<svg width="252" height="245" viewBox="0 0 252 245" fill="none" xmlns="http://www.w3.org/2000/svg">
<path d="M93.8459 4.50557C88.2941 4.40826 82.8772 5.57545 77.5571 8.8087L77.5621 8.79407C74.9392 10.3899 72.179 12.7018 69.5617 13.2609C60.9976 15.0958 53.7751 19.9754 45.6228 22.5674C41.7449 23.7976 39.8797 26.1714 39.9961 30.1916C38.4054 33.0733 35.8944 34.8772 32.9767 36.2553C30.392 37.4714 27.9294 38.8608 27.1599 41.9281L27.1222 41.9579C24.0824 45.5006 20.8857 48.9206 17.7858 54.2165L112.83 23.0253C108.718 19.1165 104.449 15.8084 109.201 9.81051C104.939 10.1002 101.926 12.5724 98.3353 12.0172C100.373 8.98532 104.733 9.62713 107.062 6.6487C102.564 5.42132 98.1637 4.58095 93.8459 4.50557ZM144.851 23.4314C140.846 23.6801 136.993 23.9962 133.669 26.8728C129.72 30.2681 125.282 31.2328 120.804 27.4567C117.425 24.6048 114.131 25.1448 110.299 26.9999C101.45 31.2946 92.3728 35.132 83.3969 39.1522C62.5721 48.5246 41.7552 57.9052 20.9465 67.2941C14.2932 69.4698 13.9985 70.0745 15.5285 76.7019C16.6467 81.5405 18.6644 86.6339 12.9871 90.2424C12.3648 90.524 11.8381 90.9811 11.4717 91.5576C11.1053 92.1341 10.9151 92.805 10.9244 93.488C10.9192 93.491 10.9137 93.4934 10.9081 93.4953C9.43437 98.6444 10.6702 103.65 11.6056 108.708C12.2002 111.909 13.6891 111.787 16.1489 110.618C21.7143 107.966 27.3612 105.48 33.0026 102.995C50.8394 95.1536 68.6795 87.3179 86.5228 79.4879C87.0229 79.509 87.5236 79.4632 88.0117 79.3518C87.4323 79.6578 86.8968 80.0212 86.6043 80.7029L68.3067 91.427L40.7538 105.464C32.8602 106.827 26.0141 111.091 18.5322 113.51C13.9017 115.004 14.822 116.616 17.9782 118.695C20.9313 122.253 25.2822 123.132 29.3632 124.514L29.3801 124.505C32.5424 125.988 35.6857 127.52 38.8835 128.931C41.8569 130.252 44.621 130.709 46.4306 126.938C47.4476 124.798 49.2976 124.488 51.5133 125.505C54.9659 127.114 58.6211 127.161 62.3167 126.523L62.3133 126.526C62.3216 126.526 62.3291 126.527 62.3358 126.528L62.3544 126.543L62.3802 126.531C63.7809 126.653 65.1641 126.671 66.3796 125.781C68.0519 125.781 69.7389 125.648 71.3909 125.816C79.2586 126.619 87.4514 123.945 95.0294 128.133C96.4683 128.926 97.8099 127.356 99.0957 126.701C112.748 119.714 126.386 112.694 140.01 105.643C158.104 96.3181 176.192 86.9951 194.273 77.6733C195.823 76.8706 199.355 76.5202 196.276 73.3843V73.3584C194.164 69.1053 192.272 64.7713 191.522 60.0328L191.537 60.0159C191.298 56.4839 190.094 53.2468 188.569 50.0855C187.247 47.3765 185.758 46.6233 182.673 47.9958C175.532 51.1773 168.207 54.0804 160.889 56.6977C153.57 59.315 146.774 63.4269 138.906 64.4939L138.883 64.4911L138.886 64.4889C138.815 63.284 139.902 63.4213 140.558 63.0556L179.381 41.4393C179.524 37.8151 178.223 34.5571 176.84 31.3244L176.832 31.3284L176.833 31.3244C174.973 26.6129 171.711 25.2348 166.994 27.1203C163.796 28.4456 160.389 29.1928 156.93 29.327V29.3163L156.905 29.3253L154.216 29.1082C150.435 28.2999 148.056 25.1842 144.849 23.4309L144.851 23.4314ZM201.99 84.7479C201.111 84.8007 200.117 85.1698 198.945 85.7851C184.632 93.2923 170.192 100.554 155.793 107.889C138.873 116.529 121.927 125.078 105.068 133.81C104.006 134.354 101.024 134.237 102.447 136.895C104.306 140.354 103.743 144.011 103.838 147.638L103.833 147.64V147.655C103.793 149.433 103.756 151.208 103.722 152.982C104.118 155.829 105.161 158.547 106.772 160.927L106.79 160.931L106.777 160.936L108.835 163.676L113.658 169.714C114.482 175.33 117.343 175.391 122.172 173.739C139.676 167.742 157.354 162.232 174.965 156.54L175.982 157.587L175.996 157.585L156.8 166.669C153.603 167.523 150.701 169.018 147.829 170.639C147.408 170.592 146.982 170.662 146.599 170.841C146.215 171.02 145.888 171.302 145.654 171.655C138.03 174.492 130.602 177.83 123.418 181.647C123.299 181.592 123.164 181.584 123.04 181.626C122.916 181.667 122.813 181.755 122.752 181.871C121.204 182.04 119.749 182.696 118.599 183.746C115.931 184.346 112.932 185.215 113.074 188.397C113.429 196.351 110.67 203.583 108.617 211.003L108.612 211.004C107.98 212.104 107.702 213.372 107.813 214.635C107.925 215.899 108.422 217.097 109.237 218.069C110.803 219.945 112.881 217.734 114.599 217.109C140.671 207.656 166.721 198.143 192.75 188.57C196.191 187.309 200.606 186.75 202.695 184.285C204.942 181.627 201.902 177.342 202.136 173.698C202.43 172.134 202.729 170.57 203.022 169.001C203.023 168.999 203.024 168.997 203.027 168.996C204.592 164.184 208.424 160.64 210.381 156.046L219.307 143.645C221.202 139.579 225.852 138.298 228.322 134.806L228.207 134.846L228.297 134.796C233.608 131.538 235.879 126.019 239.62 120.275L215.469 127.695C214.101 127.785 212.754 127.986 211.419 128.244C212.128 127.836 212.749 127.292 213.248 126.643C214.732 125.932 216.231 125.236 217.705 124.499C225.482 120.616 234.015 118.354 241.334 113.495C241.137 113.458 240.958 113.356 240.826 113.205C240.994 113.296 241.161 113.388 241.334 113.495C242.041 111.375 241.776 109.22 241.375 107.121L241.39 107.152C240.82 104.178 239.514 102.653 236.308 104.798C234.281 106.25 231.944 107.209 229.482 107.599L229.462 107.611C229.462 107.604 229.464 107.596 229.467 107.589C225.01 107.253 220.41 107.34 217.35 103.157H217.365C215.932 101.19 214.407 102.608 212.954 103.187C201.719 107.701 190.488 112.223 179.26 116.753C178.418 116.831 177.612 117.023 176.823 117.272C177.305 116.805 177.728 116.28 178.016 115.62C186.137 111.408 194.249 107.183 202.351 102.944C205.883 101.094 211.657 99.7621 212.328 97.1499C213.202 93.7642 207.718 90.9837 205.72 87.4259C204.603 85.4471 203.456 84.6596 201.991 84.7479H201.99ZM203.46 189.191C202.972 189.159 202.343 189.3 201.537 189.632C173.17 201.339 144.777 212.982 116.357 224.559C114.187 225.465 113.719 226.257 114.833 228.514C117.546 234.002 120.042 239.607 121.44 245.619L121.43 245.621H121.44V245.628C121.608 247.279 122.009 248.952 121.902 250.589C121.648 254.376 122.334 255.539 126.451 253.709C145.287 245.322 164.327 237.404 183.157 229.013C191.173 225.44 196.632 219.092 199.981 210.96L199.962 210.962C199.966 210.96 199.968 210.958 199.972 210.953C204.831 205.393 205.589 198.745 205.055 191.762C204.932 190.176 204.536 189.261 203.461 189.191L203.46 189.191ZM234.733 199.584C232.469 199.601 230.988 201.941 229.938 204.036C229 205.901 228.321 207.899 227.525 209.841L227.518 209.847C226.126 212.718 225.013 215.284 220.596 214.583C217.49 214.09 213.231 216.555 213.531 219.498C214.151 225.642 210.039 230.903 211.3 236.901C211.785 237.346 212.257 237.514 212.721 237.526C212.161 237.866 211.637 238.273 211.193 238.822C210.41 241.806 209.556 244.779 210.385 247.904L210.4 247.903C212.82 253.233 214.637 253.911 219.866 252.418C226.2 250.602 226.174 245.207 227.222 240.338C228.182 237.843 228.887 235.324 228.598 232.352L219.449 235.127L219.443 235.152C218.724 235.423 217.902 235.218 217.18 235.517C217.647 235.145 218.062 234.709 218.376 234.151C219.931 233.241 221.409 232.139 223.061 231.448C234.512 226.686 236.368 216.647 237.227 206.035C237.277 203.763 238.853 200.591 235.753 199.727C235.421 199.632 235.078 199.585 234.733 199.586V199.584ZM183.122 232.869C163.854 242.816 145.445 252.524 126.812 261.78C122.024 264.163 121.181 266.755 123.646 271.051C124.692 274.932 127.414 277.375 130.756 279.296V279.3L130.759 279.299L130.762 279.3L130.772 279.302C132.011 280.965 133.758 281.614 135.727 281.826C142.706 285.943 151.036 282.228 154.873 273.282C159.753 270.517 164.602 267.641 169.522 264.927C172.681 263.184 174.908 261.03 174.159 257.064L174.163 257.057C175.103 254.45 178.468 253.799 179.108 250.958C178.534 244.824 183.707 239.776 183.128 232.879L183.122 232.869Z" fill="#A2D187"/>
</svg>
