<svg width="172" height="196" viewBox="0 0 172 196" fill="none" xmlns="http://www.w3.org/2000/svg">
<path d="M64.0534 3.06629C60.264 3.00007 56.5668 3.7944 52.9356 5.99481L52.939 5.98485C51.1488 7.07089 49.2648 8.64425 47.4784 9.02477C41.6331 10.2735 36.7034 13.5944 31.1392 15.3584C28.4924 16.1956 27.2193 17.8111 27.2987 20.547C26.213 22.5082 24.4991 23.7359 22.5077 24.6738C20.7435 25.5014 19.0627 26.4469 18.5375 28.5344L18.5118 28.5547C16.437 30.9657 14.2551 33.2932 12.1393 36.8973L77.011 15.67C74.2044 13.0098 71.2904 10.7585 74.5338 6.6766C71.6248 6.87374 69.5681 8.55621 67.1175 8.17837C68.5081 6.11501 71.4839 6.5518 73.0738 4.52481C70.0035 3.68951 67.0004 3.11759 64.0534 3.06629ZM98.8661 15.9464C96.1325 16.1156 93.5026 16.3307 91.234 18.2884C88.5388 20.5991 85.5096 21.2556 82.4535 18.6858C80.1469 16.7449 77.899 17.1124 75.2833 18.375C69.2433 21.2977 63.0479 23.9093 56.9215 26.6452C42.7077 33.0237 28.4994 39.4077 14.2966 45.7973C9.7555 47.2781 9.55432 47.6896 10.5986 52.1999C11.3619 55.4928 12.739 58.9592 8.86401 61.4149C8.43924 61.6066 8.07978 61.9177 7.8297 62.31C7.57963 62.7024 7.4498 63.1589 7.45615 63.6238C7.45256 63.6258 7.44885 63.6275 7.44501 63.6288C6.43912 67.133 7.28261 70.5397 7.92109 73.9815C8.3269 76.1605 9.34316 76.0774 11.0221 75.2819C14.8207 73.4766 18.6749 71.785 22.5253 70.0937C34.6997 64.7573 46.8763 59.4247 59.055 54.096C59.3964 54.1103 59.7381 54.0792 60.0713 54.0033C59.6758 54.2116 59.3103 54.4589 59.1107 54.9228L46.6219 62.2212L27.8159 71.7742C22.4282 72.7014 17.7554 75.6035 12.6488 77.25C9.48828 78.2667 10.1164 79.3639 12.2706 80.7784C14.2862 83.1997 17.2559 83.798 20.0413 84.7389L20.0528 84.7324C22.2113 85.7415 24.3567 86.7843 26.5393 87.7444C28.5688 88.644 30.4554 88.9549 31.6905 86.3885C32.3846 84.9323 33.6474 84.721 35.1597 85.4131C37.5162 86.5079 40.011 86.5405 42.5334 86.106L42.5311 86.1083C42.5367 86.1083 42.5418 86.1085 42.5465 86.109L42.5591 86.1194L42.5768 86.1113C43.5328 86.1944 44.4768 86.2066 45.3065 85.6007C46.4479 85.6007 47.5993 85.5107 48.7269 85.6248C54.0969 86.1714 59.6889 84.3515 64.8611 87.202C65.8432 87.7413 66.7589 86.6729 67.6366 86.2269C76.9545 81.4719 86.2631 76.6948 95.5624 71.8956C107.912 65.5498 120.258 59.205 132.599 52.861C133.657 52.3147 136.068 52.0762 133.966 49.9421V49.9244C132.524 47.03 131.233 44.0804 130.721 40.8556L130.731 40.8441C130.568 38.4405 129.746 36.2374 128.705 34.086C127.803 32.2423 126.787 31.7298 124.681 32.6638C119.807 34.829 114.808 36.8047 109.813 38.5859C104.817 40.3672 100.179 43.1655 94.8087 43.8917L94.7926 43.8898L94.7953 43.8883C94.7465 43.0683 95.4887 43.1617 95.9363 42.9129L122.435 28.2018C122.532 25.7353 121.644 23.518 120.7 21.318L120.694 21.3207L120.695 21.318C119.426 18.1116 117.199 17.1737 113.98 18.4569C111.797 19.3588 109.471 19.8673 107.111 19.9587V19.9514L107.094 19.9575L105.258 19.8097C102.677 19.2596 101.054 17.1392 98.8649 15.946L98.8661 15.9464ZM137.866 57.6756C137.266 57.7116 136.587 57.9627 135.787 58.3815C126.018 63.4906 116.162 68.4327 106.335 73.4242C94.7861 79.3042 83.2198 85.1225 71.7131 91.0649C70.9883 91.4351 68.9527 91.3559 69.924 93.1647C71.1925 95.5189 70.8082 98.0076 70.8735 100.476L70.87 100.478V100.487C70.8426 101.697 70.8174 102.906 70.7944 104.113C71.0643 106.05 71.7763 107.9 72.8757 109.52L72.888 109.522L72.8791 109.526L74.2839 111.391L77.5761 115.5C78.1382 119.322 80.0908 119.363 83.3869 118.239C95.3343 114.158 107.4 110.408 119.42 106.534L120.114 107.247L120.124 107.245L107.022 113.428C104.84 114.009 102.859 115.026 100.899 116.129C100.612 116.097 100.321 116.145 100.059 116.267C99.7973 116.389 99.5743 116.581 99.4147 116.821C94.2107 118.752 89.1405 121.023 84.2373 123.621C84.1564 123.583 84.0641 123.578 83.9794 123.606C83.8948 123.635 83.8243 123.694 83.7827 123.773C82.7261 123.888 81.7336 124.335 80.9485 125.049C79.1272 125.458 77.0801 126.049 77.1772 128.215C77.4198 133.628 75.5363 138.549 74.1349 143.599L74.1315 143.6C73.7005 144.349 73.5104 145.211 73.5867 146.071C73.6631 146.931 74.0022 147.747 74.5584 148.408C75.6269 149.685 77.0455 148.18 78.218 147.754C96.0133 141.321 113.794 134.847 131.559 128.332C133.908 127.474 136.921 127.094 138.347 125.416C139.881 123.607 137.806 120.691 137.966 118.211C138.166 117.147 138.37 116.082 138.57 115.014C138.571 115.013 138.572 115.012 138.574 115.011C139.642 111.736 142.258 109.325 143.593 106.198L149.685 97.7584C150.979 94.9914 154.153 94.1194 155.839 91.7433L155.76 91.7701L155.822 91.7364C159.447 89.5191 160.997 85.7626 163.55 81.8541L147.066 86.9038C146.132 86.965 145.213 87.1017 144.302 87.2774C144.785 86.9992 145.209 86.6291 145.55 86.1879C146.563 85.7036 147.586 85.2301 148.592 84.7286C153.9 82.0861 159.725 80.5464 164.72 77.2396C164.585 77.2148 164.463 77.1453 164.373 77.0425C164.488 77.1045 164.602 77.1669 164.72 77.2396C165.202 75.7972 165.022 74.3303 164.748 72.9016L164.758 72.9227C164.369 70.8991 163.478 69.8613 161.289 71.321C159.906 72.309 158.311 72.9618 156.63 73.2274L156.617 73.2354C156.617 73.2302 156.618 73.225 156.62 73.2201C153.578 72.9916 150.438 73.0509 148.35 70.2043H148.36C147.382 68.8656 146.341 69.8303 145.349 70.2246C137.681 73.2967 130.016 76.3741 122.352 79.4569C121.777 79.5101 121.227 79.6406 120.689 79.8102C121.018 79.4925 121.306 79.135 121.503 78.6855C127.046 75.8193 132.582 72.9437 138.112 70.0589C140.523 68.7998 144.464 67.8937 144.922 66.1159C145.519 63.8117 141.775 61.9195 140.412 59.4982C139.649 58.1515 138.867 57.6155 137.867 57.6756H137.866ZM138.87 128.755C138.536 128.733 138.107 128.829 137.556 129.055C118.195 137.023 98.8158 144.946 79.4182 152.825C77.937 153.441 77.6176 153.981 78.3777 155.516C80.2298 159.251 81.9329 163.066 82.8874 167.158L82.8805 167.159H82.8874V167.163C83.0018 168.287 83.2759 169.426 83.203 170.54C83.0294 173.117 83.4978 173.909 86.3078 172.663C99.164 166.956 112.159 161.567 125.012 155.856C130.483 153.424 134.209 149.104 136.495 143.57L136.481 143.571C136.485 143.57 136.486 143.568 136.489 143.565C139.805 139.781 140.322 135.257 139.958 130.505C139.874 129.425 139.604 128.803 138.87 128.755L138.87 128.755ZM160.214 135.828C158.669 135.84 157.658 137.432 156.942 138.858C156.301 140.127 155.838 141.487 155.295 142.808L155.29 142.812C154.34 144.767 153.58 146.513 150.565 146.036C148.445 145.7 145.538 147.378 145.743 149.38C146.166 153.562 143.36 157.143 144.22 161.224C144.551 161.527 144.873 161.641 145.191 161.65C144.808 161.881 144.45 162.158 144.147 162.532C143.613 164.562 143.03 166.586 143.596 168.713L143.606 168.712C145.258 172.339 146.498 172.801 150.067 171.785C154.39 170.548 154.373 166.877 155.088 163.563C155.743 161.866 156.224 160.151 156.027 158.129L149.782 160.017L149.778 160.034C149.287 160.218 148.727 160.079 148.234 160.282C148.553 160.029 148.836 159.733 149.05 159.353C150.111 158.734 151.12 157.984 152.248 157.513C160.064 154.272 161.33 147.441 161.916 140.218C161.951 138.672 163.026 136.514 160.91 135.926C160.684 135.861 160.45 135.828 160.214 135.829V135.828ZM124.988 158.48C111.836 165.25 99.2719 171.857 86.5543 178.156C83.2863 179.778 82.7104 181.542 84.3927 184.465C85.1069 187.106 86.9651 188.769 89.246 190.076V190.079L89.2483 190.079L89.2498 190.079L89.2567 190.08C90.1025 191.212 91.2946 191.654 92.6392 191.799C97.4022 194.6 103.088 192.072 105.707 185.984C109.038 184.102 112.347 182.144 115.705 180.297C117.862 179.111 119.381 177.645 118.87 174.946L118.873 174.942C119.515 173.167 121.811 172.725 122.248 170.791C121.857 166.616 125.387 163.181 124.992 158.487L124.988 158.48Z" fill="#A2D187"/>
</svg>
