<svg width="35" height="35" viewBox="0 0 35 35" fill="none" xmlns="http://www.w3.org/2000/svg">
<path d="M34.0639 31.3445L26.4581 23.7354C28.7386 20.7637 29.8033 17.0358 29.4362 13.3079C29.0691 9.58001 27.2978 6.13133 24.4815 3.66144C21.6652 1.19154 18.0149 -0.114627 14.271 0.00790238C10.5271 0.130432 6.96999 1.67248 4.32123 4.32123C1.67248 6.96999 0.130432 10.5271 0.00790238 14.271C-0.114627 18.0149 1.19154 21.6652 3.66144 24.4815C6.13133 27.2978 9.58001 29.0691 13.3079 29.4362C17.0358 29.8033 20.7637 28.7386 23.7354 26.4581L31.3477 34.0719C31.5264 34.2507 31.7387 34.3925 31.9722 34.4893C32.2058 34.586 32.4562 34.6358 32.709 34.6358C32.9618 34.6358 33.2122 34.586 33.4457 34.4893C33.6793 34.3925 33.8915 34.2507 34.0703 34.0719C34.2491 33.8931 34.3909 33.6809 34.4877 33.4473C34.5844 33.2138 34.6342 32.9634 34.6342 32.7106C34.6342 32.4578 34.5844 32.2074 34.4877 31.9738C34.3909 31.7403 34.2491 31.528 34.0703 31.3493L34.0639 31.3445ZM3.87606 14.7667C3.87606 12.6127 4.51479 10.5071 5.71146 8.71618C6.90814 6.92523 8.60902 5.52935 10.599 4.70506C12.589 3.88078 14.7788 3.66511 16.8913 4.08532C19.0039 4.50554 20.9444 5.54277 22.4675 7.06585C23.9906 8.58893 25.0278 10.5295 25.4481 12.642C25.8683 14.7546 25.6526 16.9443 24.8283 18.9344C24.004 20.9244 22.6081 22.6252 20.8172 23.8219C19.0262 25.0186 16.9207 25.6573 14.7667 25.6573C11.8792 25.6543 9.11088 24.506 7.06913 22.4642C5.02739 20.4225 3.87903 17.6542 3.87606 14.7667Z" fill="black"/>
</svg>
