<svg width="1269" height="189" viewBox="0 0 1269 189" fill="none" xmlns="http://www.w3.org/2000/svg">
<line x1="43.6019" y1="170.026" x2="158.568" y2="18.755" stroke="black" stroke-opacity="0.15"/>
<line y1="-0.5" x2="190" y2="-0.5" transform="matrix(-0.605083 -0.796162 -0.796162 0.605083 1219.01 170.328)" stroke="black" stroke-opacity="0.15"/>
<line x1="180.178" y1="18.5326" x2="388.178" y2="97.5326" stroke="black" stroke-opacity="0.15"/>
<line y1="-0.5" x2="222.497" y2="-0.5" transform="matrix(-0.934843 0.355061 0.355061 0.934843 1083.01 19)" stroke="black" stroke-opacity="0.15"/>
<line y1="-0.5" x2="140" y2="-0.5" transform="matrix(1 0 0 -1 423 101)" stroke="black" stroke-opacity="0.15"/>
<line x1="673" y1="101.25" x2="840.03" y2="101.25" stroke="black" stroke-opacity="0.15"/>
<path d="M0 170C0 159.507 8.50659 151 19 151H70C80.4934 151 89 159.507 89 170C89 180.493 80.4934 189 70 189H19C8.50659 189 0 180.493 0 170Z" fill="#FFD60A"/>
<path d="M20.3 175H15.008V166.324H20.3V167.404H16.184V170.116H19.892V171.16H16.184V173.908H20.3V175ZM22.4721 175H21.1761L23.2281 172.096L21.1881 169.132H22.4961L23.9841 171.316L25.4361 169.132H26.7201L24.6801 172.096L26.6841 175H25.3761L23.9121 172.852L22.4721 175ZM27.7212 177.628V169.132H28.7412L28.8252 170.188C29.2212 169.384 30.0132 168.964 30.9492 168.964C32.6292 168.964 33.6732 170.224 33.6732 172.024C33.6732 173.812 32.6892 175.156 30.9492 175.156C30.0132 175.156 29.2332 174.76 28.8492 174.04V177.628H27.7212ZM28.8612 172.072C28.8612 173.272 29.5572 174.136 30.7092 174.136C31.8612 174.136 32.5452 173.272 32.5452 172.072C32.5452 170.86 31.8612 169.996 30.7092 169.996C29.5572 169.996 28.8612 170.848 28.8612 172.072ZM37.5085 175.144C35.7805 175.144 34.5925 173.896 34.5925 172.072C34.5925 170.236 35.7565 168.964 37.4605 168.964C39.1285 168.964 40.2205 170.116 40.2205 171.856V172.276L35.6845 172.288C35.7685 173.524 36.4165 174.208 37.5325 174.208C38.4085 174.208 38.9845 173.848 39.1765 173.176H40.2325C39.9445 174.436 38.9605 175.144 37.5085 175.144ZM37.4605 169.912C36.4765 169.912 35.8525 170.5 35.7085 171.532H39.0925C39.0925 170.56 38.4565 169.912 37.4605 169.912ZM44.9004 169.084V170.116H44.3964C43.3284 170.116 42.6684 170.764 42.6684 171.892V175H41.5404V169.144H42.5964L42.6684 170.032C42.9084 169.42 43.4964 169.012 44.3004 169.012C44.5044 169.012 44.6724 169.036 44.9004 169.084ZM46.5703 167.74C46.1623 167.74 45.8263 167.404 45.8263 166.996C45.8263 166.576 46.1623 166.252 46.5703 166.252C46.9783 166.252 47.3143 166.576 47.3143 166.996C47.3143 167.404 46.9783 167.74 46.5703 167.74ZM46.0183 175V169.132H47.1463V175H46.0183ZM51.376 175.144C49.648 175.144 48.46 173.896 48.46 172.072C48.46 170.236 49.624 168.964 51.328 168.964C52.996 168.964 54.088 170.116 54.088 171.856V172.276L49.552 172.288C49.636 173.524 50.284 174.208 51.4 174.208C52.276 174.208 52.852 173.848 53.044 173.176H54.1C53.812 174.436 52.828 175.144 51.376 175.144ZM51.328 169.912C50.344 169.912 49.72 170.5 49.576 171.532H52.96C52.96 170.56 52.324 169.912 51.328 169.912ZM56.5359 175H55.4079V169.132H56.4279L56.5479 170.032C56.9199 169.36 57.6639 168.964 58.4919 168.964C60.0399 168.964 60.7479 169.912 60.7479 171.412V175H59.6199V171.664C59.6199 170.476 59.0679 169.996 58.2039 169.996C57.1479 169.996 56.5359 170.752 56.5359 171.892V175ZM61.9862 172.072C61.9862 170.236 63.1502 168.964 64.8662 168.964C66.3422 168.964 67.3742 169.804 67.5782 171.112H66.4502C66.2582 170.368 65.6582 169.972 64.9022 169.972C63.8342 169.972 63.1022 170.788 63.1022 172.06C63.1022 173.32 63.7862 174.136 64.8542 174.136C65.6582 174.136 66.2582 173.716 66.4622 173.02H67.5902C67.3622 174.292 66.2702 175.144 64.8542 175.144C63.1262 175.144 61.9862 173.92 61.9862 172.072ZM71.3724 175.144C69.6444 175.144 68.4564 173.896 68.4564 172.072C68.4564 170.236 69.6204 168.964 71.3244 168.964C72.9924 168.964 74.0844 170.116 74.0844 171.856V172.276L69.5484 172.288C69.6324 173.524 70.2804 174.208 71.3964 174.208C72.2724 174.208 72.8484 173.848 73.0404 173.176H74.0964C73.8084 174.436 72.8244 175.144 71.3724 175.144ZM71.3244 169.912C70.3404 169.912 69.7164 170.5 69.5724 171.532H72.9564C72.9564 170.56 72.3204 169.912 71.3244 169.912Z" fill="white"/>
<path d="M130 19C130 8.50659 138.507 0 149 0H166C176.493 0 185 8.50659 185 19C185 29.4934 176.493 38 166 38H149C138.507 38 130 29.4934 130 19Z" fill="#078F00"/>
<path d="M144.168 16.404V15.324H150.564V16.404H147.96V24H146.784V16.404H144.168ZM154.259 18.084V19.116H153.755C152.687 19.116 152.027 19.764 152.027 20.892V24H150.899V18.144H151.955L152.027 19.032C152.267 18.42 152.855 18.012 153.659 18.012C153.863 18.012 154.031 18.036 154.259 18.084ZM159.433 18.132H160.549V24H159.541L159.421 23.112C159.085 23.724 158.305 24.144 157.441 24.144C156.073 24.144 155.305 23.22 155.305 21.78V18.132H156.433V21.408C156.433 22.668 156.973 23.148 157.837 23.148C158.869 23.148 159.433 22.488 159.433 21.228V18.132ZM161.649 22.296H162.729C162.729 22.896 163.185 23.256 163.929 23.256C164.721 23.256 165.177 22.932 165.177 22.392C165.177 21.996 164.985 21.756 164.373 21.6L163.341 21.36C162.297 21.108 161.805 20.592 161.805 19.728C161.805 18.648 162.717 17.964 164.013 17.964C165.297 17.964 166.137 18.684 166.161 19.8H165.081C165.057 19.212 164.661 18.84 163.977 18.84C163.269 18.84 162.873 19.152 162.873 19.692C162.873 20.088 163.161 20.352 163.737 20.496L164.769 20.748C165.765 20.988 166.257 21.444 166.257 22.32C166.257 23.436 165.297 24.144 163.905 24.144C162.525 24.144 161.649 23.412 161.649 22.296ZM169.224 24H168.096V19.08H166.944V18.132H168.096V16.296H169.224V18.132H170.376V19.08H169.224V24Z" fill="white"/>
<path d="M367 95C367 84.5066 375.507 76 386 76H439C449.493 76 458 84.5066 458 95C458 105.493 449.493 114 439 114H386C375.507 114 367 105.493 367 95Z" fill="#FF6400"/>
<path d="M382.008 100V91.324H385.32C387.012 91.324 388.044 92.188 388.044 93.616C388.044 94.612 387.612 95.284 386.748 95.644C387.708 95.956 388.2 96.652 388.2 97.684C388.2 99.124 387.156 100 385.44 100H382.008ZM385.248 92.368H383.184V95.152H385.32C386.292 95.152 386.844 94.624 386.844 93.724C386.844 92.86 386.268 92.368 385.248 92.368ZM385.416 96.172H383.184V98.956H385.416C386.424 98.956 386.988 98.44 386.988 97.54C386.988 96.676 386.412 96.172 385.416 96.172ZM390.692 100H389.564V91.168H390.692V100ZM392.029 97.06C392.029 95.248 393.325 93.976 395.089 93.976C396.841 93.976 398.137 95.248 398.137 97.06C398.137 98.872 396.841 100.144 395.089 100.144C393.325 100.144 392.029 98.872 392.029 97.06ZM393.169 97.06C393.169 98.284 393.949 99.136 395.089 99.136C396.217 99.136 397.009 98.284 397.009 97.06C397.009 95.836 396.217 94.984 395.089 94.984C393.949 94.984 393.169 95.836 393.169 97.06ZM399.061 97.072C399.061 95.236 400.225 93.964 401.941 93.964C403.417 93.964 404.449 94.804 404.653 96.112H403.525C403.333 95.368 402.733 94.972 401.977 94.972C400.909 94.972 400.177 95.788 400.177 97.06C400.177 98.32 400.861 99.136 401.929 99.136C402.733 99.136 403.333 98.716 403.537 98.02H404.665C404.437 99.292 403.345 100.144 401.929 100.144C400.201 100.144 399.061 98.92 399.061 97.072ZM407.067 100H405.939V91.168H407.067V96.892L409.671 94.132H411.087L408.843 96.472L411.075 100H409.779L408.063 97.288L407.067 98.332V100ZM415.861 100.132C413.389 100.132 411.745 98.356 411.745 95.668C411.745 92.992 413.437 91.18 415.921 91.18C417.877 91.18 419.377 92.344 419.701 94.12H418.441C418.117 92.992 417.145 92.308 415.885 92.308C414.133 92.308 412.981 93.628 412.981 95.656C412.981 97.684 414.133 99.004 415.885 99.004C417.157 99.004 418.165 98.32 418.489 97.252H419.737C419.365 98.98 417.817 100.132 415.861 100.132ZM422.117 99.988H420.989V91.168H422.117V95.032C422.489 94.396 423.197 93.964 424.109 93.964C425.609 93.964 426.329 94.912 426.329 96.412V100H425.201V96.664C425.201 95.476 424.637 94.996 423.797 94.996C422.705 94.996 422.117 95.788 422.117 96.796V99.988ZM429.667 100.144C428.407 100.144 427.663 99.436 427.663 98.368C427.663 97.288 428.467 96.616 429.847 96.508L431.695 96.364V96.196C431.695 95.212 431.107 94.864 430.315 94.864C429.367 94.864 428.827 95.284 428.827 95.992H427.843C427.843 94.768 428.851 93.964 430.363 93.964C431.815 93.964 432.799 94.732 432.799 96.316V100H431.839L431.719 99.052C431.419 99.724 430.615 100.144 429.667 100.144ZM429.991 99.268C431.059 99.268 431.707 98.572 431.707 97.468V97.156L430.207 97.276C429.211 97.372 428.803 97.756 428.803 98.332C428.803 98.956 429.259 99.268 429.991 99.268ZM434.973 92.74C434.565 92.74 434.229 92.404 434.229 91.996C434.229 91.576 434.565 91.252 434.973 91.252C435.381 91.252 435.717 91.576 435.717 91.996C435.717 92.404 435.381 92.74 434.973 92.74ZM434.421 100V94.132H435.549V100H434.421ZM438.375 100H437.247V94.132H438.267L438.387 95.032C438.759 94.36 439.503 93.964 440.331 93.964C441.879 93.964 442.587 94.912 442.587 96.412V100H441.459V96.664C441.459 95.476 440.907 94.996 440.043 94.996C438.987 94.996 438.375 95.752 438.375 96.892V100Z" fill="white"/>
<path d="M826 103C826 92.5066 834.507 84 845 84H881C891.493 84 900 92.5066 900 103C900 113.493 891.493 122 881 122H845C834.507 122 826 113.493 826 103Z" fill="#FF6400"/>
<path d="M840.504 101.664C840.504 100.176 841.704 99.168 843.492 99.168C845.148 99.168 846.216 100.092 846.312 101.592H845.124C845.064 100.728 844.452 100.224 843.48 100.224C842.388 100.224 841.68 100.776 841.68 101.628C841.68 102.324 842.076 102.744 842.892 102.936L844.32 103.272C845.736 103.596 846.456 104.364 846.456 105.588C846.456 107.148 845.244 108.144 843.396 108.144C841.632 108.144 840.456 107.22 840.384 105.732H841.584C841.608 106.56 842.304 107.088 843.396 107.088C844.548 107.088 845.28 106.548 845.28 105.684C845.28 105 844.908 104.568 844.08 104.376L842.652 104.052C841.236 103.728 840.504 102.912 840.504 101.664ZM851.858 102.132H852.974V108H851.966L851.846 107.112C851.51 107.724 850.73 108.144 849.866 108.144C848.498 108.144 847.73 107.22 847.73 105.78V102.132H848.858V105.408C848.858 106.668 849.398 107.148 850.262 107.148C851.294 107.148 851.858 106.488 851.858 105.228V102.132ZM855.798 108H854.67V102.132H855.678L855.786 102.9C856.086 102.348 856.71 101.964 857.538 101.964C858.45 101.964 859.098 102.42 859.398 103.152C859.674 102.42 860.382 101.964 861.294 101.964C862.638 101.964 863.454 102.804 863.454 104.16V108H862.35V104.436C862.35 103.512 861.834 102.984 861.042 102.984C860.19 102.984 859.626 103.584 859.626 104.52V108H858.51V104.424C858.51 103.5 858.006 102.996 857.214 102.996C856.362 102.996 855.798 103.584 855.798 104.52V108ZM866.206 108H865.078V102.132H866.086L866.194 102.9C866.494 102.348 867.118 101.964 867.946 101.964C868.858 101.964 869.506 102.42 869.806 103.152C870.082 102.42 870.79 101.964 871.702 101.964C873.046 101.964 873.862 102.804 873.862 104.16V108H872.758V104.436C872.758 103.512 872.242 102.984 871.45 102.984C870.598 102.984 870.034 103.584 870.034 104.52V108H868.918V104.424C868.918 103.5 868.414 102.996 867.622 102.996C866.77 102.996 866.206 103.584 866.206 104.52V108ZM878.018 108.144C876.29 108.144 875.102 106.896 875.102 105.072C875.102 103.236 876.266 101.964 877.97 101.964C879.638 101.964 880.73 103.116 880.73 104.856V105.276L876.194 105.288C876.278 106.524 876.926 107.208 878.042 107.208C878.918 107.208 879.494 106.848 879.686 106.176H880.742C880.454 107.436 879.47 108.144 878.018 108.144ZM877.97 102.912C876.986 102.912 876.362 103.5 876.218 104.532H879.602C879.602 103.56 878.966 102.912 877.97 102.912ZM885.41 102.084V103.116H884.906C883.838 103.116 883.178 103.764 883.178 104.892V108H882.05V102.144H883.106L883.178 103.032C883.418 102.42 884.006 102.012 884.81 102.012C885.014 102.012 885.182 102.036 885.41 102.084Z" fill="white"/>
<path d="M1052 19C1052 8.50659 1060.51 0 1071 0H1108C1118.49 0 1127 8.50659 1127 19C1127 29.4934 1118.49 38 1108 38H1071C1060.51 38 1052 29.4934 1052 19Z" fill="#003223"/>
<path d="M1068.18 15.324V22.908H1072V24H1067.01V15.324H1068.18ZM1073.7 16.74C1073.29 16.74 1072.95 16.404 1072.95 15.996C1072.95 15.576 1073.29 15.252 1073.7 15.252C1074.11 15.252 1074.44 15.576 1074.44 15.996C1074.44 16.404 1074.11 16.74 1073.7 16.74ZM1073.15 24V18.132H1074.27V24H1073.15ZM1077.1 24H1075.97V18.132H1076.98L1077.09 18.9C1077.39 18.348 1078.01 17.964 1078.84 17.964C1079.75 17.964 1080.4 18.42 1080.7 19.152C1080.98 18.42 1081.68 17.964 1082.6 17.964C1083.94 17.964 1084.76 18.804 1084.76 20.16V24H1083.65V20.436C1083.65 19.512 1083.14 18.984 1082.34 18.984C1081.49 18.984 1080.93 19.584 1080.93 20.52V24H1079.81V20.424C1079.81 19.5 1079.31 18.996 1078.52 18.996C1077.66 18.996 1077.1 19.584 1077.1 20.52V24ZM1086.93 16.74C1086.52 16.74 1086.19 16.404 1086.19 15.996C1086.19 15.576 1086.52 15.252 1086.93 15.252C1087.34 15.252 1087.67 15.576 1087.67 15.996C1087.67 16.404 1087.34 16.74 1086.93 16.74ZM1086.38 24V18.132H1087.51V24H1086.38ZM1090.86 24H1089.73V19.08H1088.58V18.132H1089.73V16.296H1090.86V18.132H1092.01V19.08H1090.86V24ZM1094.24 24H1093.11V15.168H1094.24V24ZM1098.49 24.144C1096.76 24.144 1095.57 22.896 1095.57 21.072C1095.57 19.236 1096.74 17.964 1098.44 17.964C1100.11 17.964 1101.2 19.116 1101.2 20.856V21.276L1096.67 21.288C1096.75 22.524 1097.4 23.208 1098.51 23.208C1099.39 23.208 1099.97 22.848 1100.16 22.176H1101.21C1100.93 23.436 1099.94 24.144 1098.49 24.144ZM1098.44 18.912C1097.46 18.912 1096.83 19.5 1096.69 20.532H1100.07C1100.07 19.56 1099.44 18.912 1098.44 18.912ZM1102.04 22.296H1103.12C1103.12 22.896 1103.58 23.256 1104.32 23.256C1105.11 23.256 1105.57 22.932 1105.57 22.392C1105.57 21.996 1105.38 21.756 1104.77 21.6L1103.73 21.36C1102.69 21.108 1102.2 20.592 1102.2 19.728C1102.2 18.648 1103.11 17.964 1104.41 17.964C1105.69 17.964 1106.53 18.684 1106.55 19.8H1105.47C1105.45 19.212 1105.05 18.84 1104.37 18.84C1103.66 18.84 1103.27 19.152 1103.27 19.692C1103.27 20.088 1103.55 20.352 1104.13 20.496L1105.16 20.748C1106.16 20.988 1106.65 21.444 1106.65 22.32C1106.65 23.436 1105.69 24.144 1104.3 24.144C1102.92 24.144 1102.04 23.412 1102.04 22.296ZM1107.48 22.296H1108.56C1108.56 22.896 1109.02 23.256 1109.76 23.256C1110.55 23.256 1111.01 22.932 1111.01 22.392C1111.01 21.996 1110.82 21.756 1110.2 21.6L1109.17 21.36C1108.13 21.108 1107.64 20.592 1107.64 19.728C1107.64 18.648 1108.55 17.964 1109.84 17.964C1111.13 17.964 1111.97 18.684 1111.99 19.8H1110.91C1110.89 19.212 1110.49 18.84 1109.81 18.84C1109.1 18.84 1108.7 19.152 1108.7 19.692C1108.7 20.088 1108.99 20.352 1109.57 20.496L1110.6 20.748C1111.6 20.988 1112.09 21.444 1112.09 22.32C1112.09 23.436 1111.13 24.144 1109.74 24.144C1108.36 24.144 1107.48 23.412 1107.48 22.296Z" fill="white"/>
<path d="M1174 170C1174 159.507 1182.51 151 1193 151H1250C1260.49 151 1269 159.507 1269 170C1269 180.493 1260.49 189 1250 189H1193C1182.51 189 1174 180.493 1174 170Z" fill="#078F00"/>
<path d="M1196.21 168.111H1194.88C1194.83 167.827 1194.73 167.577 1194.59 167.361C1194.45 167.145 1194.28 166.962 1194.08 166.811C1193.88 166.661 1193.65 166.547 1193.4 166.47C1193.16 166.393 1192.89 166.355 1192.62 166.355C1192.11 166.355 1191.66 166.482 1191.26 166.734C1190.87 166.987 1190.56 167.358 1190.33 167.847C1190.1 168.335 1189.99 168.932 1189.99 169.636C1189.99 170.347 1190.1 170.946 1190.33 171.435C1190.56 171.923 1190.87 172.293 1191.27 172.543C1191.67 172.793 1192.11 172.918 1192.61 172.918C1192.89 172.918 1193.15 172.881 1193.39 172.807C1193.64 172.73 1193.87 172.618 1194.07 172.47C1194.27 172.322 1194.44 172.142 1194.58 171.929C1194.73 171.713 1194.82 171.466 1194.88 171.188L1196.21 171.192C1196.14 171.621 1196 172.016 1195.79 172.376C1195.59 172.734 1195.33 173.044 1195.01 173.305C1194.7 173.564 1194.34 173.764 1193.93 173.906C1193.53 174.048 1193.08 174.119 1192.6 174.119C1191.85 174.119 1191.17 173.94 1190.58 173.582C1189.99 173.222 1189.53 172.706 1189.18 172.036C1188.85 171.365 1188.68 170.565 1188.68 169.636C1188.68 168.705 1188.85 167.905 1189.19 167.237C1189.53 166.567 1190 166.053 1190.59 165.695C1191.18 165.334 1191.85 165.153 1192.6 165.153C1193.07 165.153 1193.5 165.22 1193.9 165.354C1194.3 165.484 1194.66 165.678 1194.98 165.933C1195.31 166.186 1195.57 166.496 1195.78 166.862C1195.99 167.226 1196.13 167.642 1196.21 168.111ZM1200.5 174.132C1199.88 174.132 1199.35 173.991 1198.89 173.71C1198.43 173.429 1198.08 173.036 1197.83 172.53C1197.57 172.024 1197.45 171.433 1197.45 170.757C1197.45 170.078 1197.57 169.484 1197.83 168.976C1198.08 168.467 1198.43 168.072 1198.89 167.791C1199.35 167.51 1199.88 167.369 1200.5 167.369C1201.11 167.369 1201.65 167.51 1202.1 167.791C1202.56 168.072 1202.92 168.467 1203.17 168.976C1203.42 169.484 1203.55 170.078 1203.55 170.757C1203.55 171.433 1203.42 172.024 1203.17 172.53C1202.92 173.036 1202.56 173.429 1202.1 173.71C1201.65 173.991 1201.11 174.132 1200.5 174.132ZM1200.5 173.062C1200.9 173.062 1201.23 172.957 1201.49 172.747C1201.75 172.537 1201.95 172.257 1202.07 171.908C1202.2 171.558 1202.26 171.173 1202.26 170.753C1202.26 170.335 1202.2 169.952 1202.07 169.602C1201.95 169.25 1201.75 168.967 1201.49 168.754C1201.23 168.541 1200.9 168.435 1200.5 168.435C1200.1 168.435 1199.77 168.541 1199.5 168.754C1199.24 168.967 1199.05 169.25 1198.92 169.602C1198.8 169.952 1198.73 170.335 1198.73 170.753C1198.73 171.173 1198.8 171.558 1198.92 171.908C1199.05 172.257 1199.24 172.537 1199.5 172.747C1199.77 172.957 1200.1 173.062 1200.5 173.062ZM1205.03 174V167.455H1206.25V168.52H1206.34C1206.47 168.159 1206.69 167.878 1207 167.676C1207.31 167.472 1207.68 167.369 1208.12 167.369C1208.55 167.369 1208.92 167.472 1209.22 167.676C1209.51 167.881 1209.73 168.162 1209.88 168.52H1209.94C1210.1 168.17 1210.35 167.892 1210.69 167.685C1211.03 167.474 1211.44 167.369 1211.91 167.369C1212.5 167.369 1212.99 167.555 1213.36 167.928C1213.74 168.3 1213.93 168.861 1213.93 169.611V174H1212.65V169.73C1212.65 169.287 1212.53 168.966 1212.29 168.767C1212.05 168.568 1211.76 168.469 1211.43 168.469C1211.01 168.469 1210.69 168.597 1210.46 168.852C1210.23 169.105 1210.12 169.43 1210.12 169.828V174H1208.85V169.649C1208.85 169.294 1208.73 169.009 1208.51 168.793C1208.29 168.577 1208 168.469 1207.65 168.469C1207.41 168.469 1207.18 168.533 1206.98 168.661C1206.78 168.786 1206.61 168.96 1206.49 169.185C1206.37 169.409 1206.31 169.669 1206.31 169.964V174H1205.03ZM1215.7 174V167.455H1216.92V168.52H1217C1217.14 168.159 1217.36 167.878 1217.67 167.676C1217.98 167.472 1218.35 167.369 1218.78 167.369C1219.22 167.369 1219.59 167.472 1219.88 167.676C1220.18 167.881 1220.4 168.162 1220.54 168.52H1220.61C1220.77 168.17 1221.01 167.892 1221.36 167.685C1221.7 167.474 1222.1 167.369 1222.57 167.369C1223.17 167.369 1223.65 167.555 1224.03 167.928C1224.41 168.3 1224.59 168.861 1224.59 169.611V174H1223.32V169.73C1223.32 169.287 1223.2 168.966 1222.96 168.767C1222.72 168.568 1222.43 168.469 1222.09 168.469C1221.68 168.469 1221.36 168.597 1221.13 168.852C1220.9 169.105 1220.78 169.43 1220.78 169.828V174H1219.51V169.649C1219.51 169.294 1219.4 169.009 1219.18 168.793C1218.96 168.577 1218.67 168.469 1218.31 168.469C1218.07 168.469 1217.85 168.533 1217.64 168.661C1217.44 168.786 1217.28 168.96 1217.15 169.185C1217.03 169.409 1216.97 169.669 1216.97 169.964V174H1215.7ZM1230.51 171.286V167.455H1231.79V174H1230.53V172.866H1230.47C1230.32 173.216 1230.07 173.507 1229.74 173.74C1229.41 173.97 1229 174.085 1228.51 174.085C1228.09 174.085 1227.72 173.993 1227.39 173.808C1227.07 173.621 1226.82 173.344 1226.63 172.977C1226.45 172.611 1226.36 172.158 1226.36 171.618V167.455H1227.64V171.464C1227.64 171.911 1227.76 172.266 1228.01 172.53C1228.25 172.794 1228.58 172.926 1228.97 172.926C1229.21 172.926 1229.45 172.866 1229.68 172.747C1229.92 172.628 1230.12 172.447 1230.27 172.206C1230.43 171.964 1230.51 171.658 1230.51 171.286ZM1234.83 170.114V174H1233.56V167.455H1234.78V168.52H1234.86C1235.01 168.173 1235.25 167.895 1235.57 167.685C1235.89 167.474 1236.3 167.369 1236.79 167.369C1237.24 167.369 1237.63 167.463 1237.97 167.651C1238.3 167.835 1238.56 168.111 1238.74 168.477C1238.93 168.844 1239.02 169.297 1239.02 169.837V174H1237.75V169.99C1237.75 169.516 1237.62 169.145 1237.38 168.878C1237.13 168.608 1236.79 168.473 1236.36 168.473C1236.06 168.473 1235.8 168.537 1235.57 168.665C1235.34 168.793 1235.16 168.98 1235.03 169.227C1234.9 169.472 1234.83 169.767 1234.83 170.114ZM1240.79 174V167.455H1242.06V174H1240.79ZM1241.43 166.445C1241.21 166.445 1241.02 166.371 1240.86 166.223C1240.71 166.072 1240.63 165.893 1240.63 165.686C1240.63 165.476 1240.71 165.297 1240.86 165.149C1241.02 164.999 1241.21 164.923 1241.43 164.923C1241.66 164.923 1241.84 164.999 1242 165.149C1242.16 165.297 1242.24 165.476 1242.24 165.686C1242.24 165.893 1242.16 166.072 1242 166.223C1241.84 166.371 1241.66 166.445 1241.43 166.445ZM1246.89 167.455V168.477H1243.32V167.455H1246.89ZM1244.28 165.886H1245.55V172.078C1245.55 172.325 1245.59 172.511 1245.66 172.636C1245.74 172.759 1245.83 172.842 1245.95 172.888C1246.07 172.93 1246.2 172.952 1246.34 172.952C1246.44 172.952 1246.53 172.945 1246.6 172.93C1246.68 172.916 1246.74 172.905 1246.78 172.896L1247.01 173.949C1246.94 173.977 1246.83 174.006 1246.7 174.034C1246.56 174.065 1246.39 174.082 1246.19 174.085C1245.85 174.091 1245.54 174.031 1245.25 173.906C1244.96 173.781 1244.73 173.588 1244.55 173.327C1244.37 173.065 1244.28 172.737 1244.28 172.342V165.886ZM1249.17 176.455C1248.98 176.455 1248.81 176.439 1248.65 176.408C1248.49 176.379 1248.38 176.348 1248.3 176.314L1248.61 175.27C1248.84 175.332 1249.05 175.359 1249.23 175.351C1249.41 175.342 1249.57 175.274 1249.71 175.146C1249.85 175.018 1249.98 174.81 1250.09 174.52L1250.24 174.085L1247.85 167.455H1249.21L1250.87 172.534H1250.94L1252.6 167.455H1253.96L1251.27 174.874C1251.14 175.214 1250.98 175.503 1250.79 175.739C1250.6 175.977 1250.37 176.156 1250.1 176.276C1249.83 176.395 1249.52 176.455 1249.17 176.455Z" fill="white"/>
<path d="M573.41 46.496C573.494 46.4956 573.494 46.4956 573.581 46.4953C573.77 46.4946 573.959 46.4944 574.147 46.4941C574.283 46.4938 574.419 46.4934 574.555 46.4929C575 46.4916 575.445 46.491 575.891 46.4904C576.044 46.4902 576.198 46.4899 576.352 46.4897C576.992 46.4886 577.632 46.4877 578.272 46.4873C578.438 46.4872 578.604 46.4871 578.769 46.4869C578.811 46.4869 578.852 46.4869 578.894 46.4868C579.56 46.4863 580.226 46.4848 580.892 46.4828C581.578 46.4808 582.264 46.4797 582.95 46.4795C583.334 46.4794 583.718 46.4788 584.102 46.4773C584.464 46.4758 584.826 46.4756 585.189 46.4762C585.321 46.4763 585.453 46.4759 585.585 46.475C587.918 46.4609 590.042 47.266 591.714 48.9112C592.684 49.9 593.388 51.1817 593.748 52.5173C593.76 52.5611 593.771 52.6049 593.784 52.65C593.985 53.4512 594.021 54.2491 594.019 55.0701C594.019 55.1749 594.019 55.2797 594.019 55.3844C594.02 55.671 594.019 55.9577 594.019 56.2443C594.019 56.5566 594.019 56.8689 594.019 57.1812C594.02 57.7282 594.02 58.2752 594.02 58.8221C594.02 59.6355 594.02 60.4489 594.02 61.2623C594.021 62.5889 594.022 63.9155 594.022 65.2421C594.022 66.6398 594.022 68.0374 594.023 69.4351C594.023 69.4773 594.023 69.5194 594.023 69.5628C594.023 70.0338 594.024 70.5048 594.024 70.9758C594.024 71.8469 594.025 72.718 594.025 73.5891C594.025 73.6327 594.025 73.6763 594.025 73.7212C594.027 75.7945 594.027 77.8678 594.028 79.9412C594.028 80.0787 594.028 80.2162 594.028 80.3538C594.029 82.426 594.03 84.4982 594.03 86.5705C594.03 86.8006 594.03 87.0306 594.03 87.2607C594.03 87.3062 594.03 87.3517 594.03 87.3987C594.031 87.8577 594.031 88.3168 594.031 88.7759C594.031 88.9133 594.031 89.0508 594.031 89.1882C594.031 91.2594 594.032 93.3306 594.033 95.4017C594.033 95.4453 594.033 95.4888 594.033 95.5337C594.034 96.4469 594.035 97.3601 594.035 98.2733C594.035 98.701 594.036 99.1286 594.036 99.5563C594.036 99.6194 594.036 99.6194 594.036 99.6839C594.037 101.039 594.037 102.394 594.037 103.749C594.037 105.152 594.037 106.555 594.039 107.958C594.039 108.766 594.04 109.574 594.039 110.383C594.039 110.923 594.039 111.463 594.04 112.004C594.04 112.311 594.041 112.619 594.04 112.927C594.039 113.207 594.04 113.488 594.041 113.768C594.041 113.868 594.041 113.969 594.04 114.069C594.036 114.984 594.135 115.885 594.441 116.754C594.46 116.807 594.478 116.861 594.497 116.915C595.217 118.942 596.657 120.553 598.588 121.492C599.601 121.971 600.676 122.277 601.802 122.275C601.856 122.275 601.909 122.275 601.964 122.275C602.142 122.276 602.321 122.276 602.499 122.276C602.628 122.276 602.757 122.276 602.887 122.276C603.242 122.277 603.597 122.277 603.952 122.277C604.335 122.277 604.718 122.277 605.102 122.278C605.983 122.279 606.864 122.279 607.746 122.279C608.182 122.279 608.618 122.28 609.053 122.28C610.546 122.281 612.039 122.281 613.531 122.281C613.625 122.281 613.719 122.281 613.812 122.281C613.906 122.281 614 122.282 614.094 122.282C614.282 122.282 614.471 122.282 614.659 122.282C614.729 122.282 614.729 122.282 614.801 122.282C616.314 122.282 617.828 122.283 619.342 122.284C620.943 122.286 622.544 122.287 624.145 122.287C624.321 122.287 624.497 122.287 624.673 122.287C624.716 122.287 624.76 122.287 624.804 122.287C625.5 122.287 626.196 122.287 626.892 122.288C627.592 122.289 628.292 122.289 628.992 122.289C629.371 122.289 629.75 122.289 630.128 122.29C630.476 122.29 630.823 122.29 631.171 122.29C631.296 122.289 631.421 122.29 631.546 122.29C633.934 122.3 636.015 121.474 637.715 119.793C639.038 118.38 639.888 116.411 639.883 114.466C639.883 114.413 639.883 114.36 639.883 114.306C639.884 114.13 639.884 113.953 639.883 113.777C639.884 113.649 639.884 113.521 639.884 113.393C639.884 113.042 639.885 112.691 639.885 112.34C639.885 111.961 639.885 111.582 639.886 111.204C639.886 110.59 639.887 109.976 639.887 109.362C639.888 108.325 639.889 107.288 639.89 106.251C639.891 105.851 639.891 105.452 639.892 105.053C639.892 105.008 639.892 104.964 639.892 104.918C639.893 103.862 639.895 102.806 639.896 101.75C639.896 101.704 639.896 101.657 639.896 101.61C639.897 100.533 639.898 99.4559 639.899 98.3789C639.899 98.3095 639.899 98.3095 639.899 98.2387C639.899 97.8657 639.899 97.4928 639.9 97.1198C639.901 95.5797 639.902 94.0396 639.905 92.4994C639.905 92.2816 639.905 92.0637 639.906 91.8459C639.906 91.803 639.906 91.7601 639.906 91.7159C639.907 91.0281 639.907 90.3403 639.907 89.6524C639.907 88.96 639.908 88.2675 639.91 87.5751C639.91 87.2005 639.911 86.8258 639.91 86.4512C639.91 86.1075 639.911 85.7637 639.912 85.42C639.912 85.2964 639.912 85.1728 639.912 85.0493C639.905 82.5588 640.629 80.4224 642.38 78.6214C643.761 77.2408 645.764 76.3349 647.729 76.3252C647.78 76.3253 647.83 76.3253 647.882 76.3254C647.937 76.3252 647.992 76.325 648.048 76.3248C648.231 76.3243 648.414 76.3242 648.597 76.3241C648.729 76.3238 648.86 76.3235 648.992 76.3232C649.349 76.3224 649.706 76.322 650.063 76.3217C650.286 76.3216 650.51 76.3213 650.733 76.321C651.434 76.3202 652.134 76.3196 652.835 76.3194C653.641 76.3191 654.447 76.318 655.253 76.3163C655.877 76.3149 656.502 76.3143 657.127 76.3142C657.499 76.3142 657.871 76.3138 658.244 76.3127C658.594 76.3117 658.945 76.3116 659.296 76.3121C659.424 76.3122 659.552 76.3119 659.68 76.3113C662.143 76.3003 664.235 77.0435 666.017 78.7854C667.474 80.248 668.301 82.317 668.309 84.3762C668.309 84.425 668.309 84.4737 668.309 84.5239C668.309 84.6044 668.309 84.6044 668.309 84.6865C668.31 84.8654 668.31 85.0443 668.31 85.2233C668.31 85.3532 668.31 85.4832 668.31 85.6131C668.311 85.9695 668.311 86.3259 668.311 86.6824C668.311 87.067 668.311 87.4517 668.312 87.8364C668.313 88.7212 668.313 89.6059 668.313 90.4907C668.313 90.9283 668.314 91.366 668.314 91.8036C668.315 93.3032 668.315 94.8027 668.316 96.3023C668.316 96.3963 668.316 96.4904 668.316 96.5845C668.316 96.6787 668.316 96.773 668.316 96.8673C668.316 97.0564 668.316 97.2456 668.316 97.4347C668.316 97.4816 668.316 97.5285 668.316 97.5768C668.316 99.0963 668.317 100.616 668.318 102.135C668.32 103.744 668.321 105.352 668.321 106.96C668.321 107.137 668.321 107.314 668.321 107.491C668.321 107.534 668.321 107.578 668.321 107.623C668.321 108.321 668.322 109.019 668.322 109.718C668.323 110.421 668.323 111.124 668.323 111.827C668.323 112.207 668.323 112.587 668.324 112.968C668.324 113.316 668.324 113.665 668.324 114.014C668.324 114.14 668.324 114.265 668.324 114.391C668.328 115.422 668.272 116.478 667.954 117.467C667.931 117.541 667.931 117.541 667.908 117.617C667.745 118.117 667.519 118.575 667.264 119.034C667.234 119.089 667.204 119.145 667.173 119.202C666.142 121.016 664.384 122.334 662.389 122.903C661.709 123.088 661.038 123.191 660.333 123.19C660.284 123.191 660.234 123.191 660.182 123.191C660.016 123.191 659.851 123.191 659.685 123.192C659.565 123.192 659.446 123.192 659.326 123.192C659.07 123.193 658.813 123.194 658.556 123.194C658.149 123.195 657.742 123.196 657.335 123.197C656.178 123.201 655.021 123.204 653.863 123.206C653.224 123.208 652.584 123.209 651.945 123.212C651.607 123.213 651.269 123.214 650.931 123.214C650.613 123.214 650.294 123.215 649.976 123.217C649.86 123.217 649.744 123.217 649.629 123.217C647.223 123.214 645.12 123.956 643.375 125.641C642.384 126.656 641.721 127.893 641.35 129.255C641.339 129.298 641.327 129.341 641.314 129.386C641.091 130.264 641.077 131.154 641.079 132.054C641.078 132.176 641.078 132.298 641.078 132.42C641.077 132.681 641.077 132.943 641.076 133.204C641.076 133.618 641.075 134.032 641.074 134.446C641.071 135.473 641.069 136.501 641.068 137.529C641.067 138.329 641.065 139.129 641.063 139.929C641.061 140.339 641.061 140.75 641.061 141.16C641.061 141.417 641.06 141.673 641.059 141.93C641.059 142.047 641.059 142.165 641.059 142.283C641.061 143.253 640.982 144.197 640.657 145.119C640.638 145.172 640.62 145.226 640.601 145.281C640.237 146.305 639.709 147.201 638.963 147.996C638.835 148.13 638.835 148.13 638.719 148.284C638.492 148.56 638.203 148.766 637.923 148.985C637.848 149.046 637.848 149.046 637.771 149.107C636.398 150.165 634.676 150.705 632.952 150.701C632.868 150.701 632.868 150.701 632.782 150.701C632.595 150.702 632.408 150.702 632.22 150.701C632.085 150.702 631.949 150.702 631.813 150.702C631.441 150.703 631.068 150.703 630.695 150.703C630.334 150.703 629.974 150.703 629.613 150.704C628.647 150.705 627.68 150.705 626.714 150.705C626.257 150.705 625.799 150.706 625.342 150.706C623.775 150.707 622.208 150.707 620.641 150.707C620.542 150.707 620.444 150.707 620.346 150.707C620.247 150.707 620.149 150.707 620.05 150.708C619.852 150.708 619.655 150.708 619.457 150.708C619.408 150.708 619.359 150.708 619.309 150.708C617.72 150.708 616.132 150.709 614.543 150.71C612.863 150.712 611.182 150.713 609.501 150.713C609.316 150.713 609.131 150.713 608.947 150.713C608.901 150.713 608.856 150.713 608.809 150.713C608.079 150.713 607.349 150.713 606.619 150.714C605.884 150.715 605.149 150.715 604.414 150.715C604.017 150.715 603.619 150.715 603.222 150.716C602.857 150.716 602.492 150.716 602.128 150.716C601.996 150.715 601.865 150.716 601.734 150.716C600.555 150.721 599.446 150.609 598.334 150.205C598.272 150.182 598.209 150.16 598.145 150.137C596.101 149.34 594.529 147.738 593.637 145.752C593.252 144.808 593.017 143.803 593.019 142.782C593.018 142.731 593.018 142.68 593.018 142.627C593.018 142.457 593.018 142.287 593.017 142.117C593.017 141.994 593.017 141.872 593.016 141.749C593.016 141.486 593.015 141.223 593.015 140.959C593.014 140.542 593.013 140.124 593.012 139.707C593.008 138.519 593.005 137.332 593.003 136.145C593.001 135.489 593 134.833 592.997 134.177C592.996 133.83 592.995 133.484 592.995 133.137C592.995 132.811 592.994 132.484 592.992 132.158C592.992 132.039 592.992 131.92 592.992 131.801C592.995 129.554 592.373 127.477 590.831 125.805C590.778 125.747 590.726 125.69 590.671 125.63C589.31 124.204 587.366 123.324 585.393 123.237C585.26 123.235 585.127 123.234 584.993 123.235C584.943 123.234 584.892 123.234 584.84 123.234C584.673 123.233 584.505 123.233 584.338 123.233C584.217 123.233 584.096 123.233 583.975 123.232C583.716 123.232 583.456 123.231 583.197 123.231C582.785 123.23 582.374 123.229 581.963 123.228C580.793 123.224 579.624 123.22 578.454 123.218C577.808 123.217 577.161 123.216 576.515 123.213C576.173 123.212 575.832 123.211 575.49 123.211C575.169 123.211 574.847 123.21 574.525 123.208C574.408 123.208 574.291 123.207 574.174 123.208C571.748 123.211 569.673 122.442 567.922 120.73C566.251 119.053 565.627 116.839 565.63 114.526C565.63 114.421 565.63 114.316 565.63 114.211C565.629 113.922 565.629 113.633 565.629 113.344C565.629 113.03 565.629 112.716 565.629 112.401C565.628 111.778 565.628 111.154 565.628 110.531C565.628 109.784 565.628 109.038 565.627 108.291C565.626 106.529 565.626 104.767 565.626 103.005C565.626 102.108 565.625 101.212 565.625 100.315C565.624 97.4377 565.624 94.5605 565.624 91.6834C565.624 91.5459 565.624 91.4084 565.624 91.2709C565.624 90.9952 565.623 90.7195 565.623 90.4438C565.623 90.121 565.623 89.7982 565.623 89.4754C565.623 89.383 565.623 89.2906 565.623 89.1982C565.623 86.2319 565.622 83.2655 565.621 80.2991C565.62 78.1673 565.619 76.0354 565.619 73.9036C565.619 73.8597 565.619 73.8158 565.619 73.7707C565.618 72.8075 565.618 71.8443 565.618 70.8812C565.618 70.5365 565.618 70.1919 565.618 69.8472C565.618 69.7615 565.618 69.6757 565.618 69.59C565.618 68.2253 565.618 66.8606 565.617 65.496C565.616 64.0826 565.616 62.6691 565.616 61.2557C565.616 60.4413 565.616 59.6269 565.615 58.8125C565.615 58.268 565.615 57.7236 565.615 57.1791C565.616 56.8692 565.616 56.5593 565.615 56.2493C565.609 53.6489 565.869 51.2842 567.651 49.2499C567.69 49.2024 567.73 49.155 567.77 49.106C569.109 47.5243 571.341 46.4955 573.41 46.496Z" fill="black"/>
<path d="M639.259 39.2989C639.352 39.2988 639.444 39.2986 639.536 39.2985C639.788 39.2981 640.04 39.2981 640.292 39.2982C640.565 39.2982 640.837 39.2979 641.109 39.2976C641.642 39.2971 642.176 39.2969 642.709 39.2969C643.142 39.2968 643.576 39.2967 644.01 39.2965C645.24 39.296 646.471 39.2957 647.702 39.2957C647.768 39.2958 647.834 39.2958 647.903 39.2958C647.969 39.2958 648.035 39.2958 648.104 39.2958C649.179 39.2958 650.254 39.2952 651.329 39.2943C652.435 39.2935 653.54 39.293 654.645 39.2931C655.265 39.2931 655.885 39.293 656.505 39.2923C657.033 39.2917 657.561 39.2916 658.089 39.292C658.358 39.2922 658.627 39.2922 658.896 39.2917C659.143 39.2912 659.39 39.2913 659.637 39.2918C659.726 39.2919 659.814 39.2918 659.903 39.2915C662.24 39.283 664.227 40.0916 665.922 41.6861C665.958 41.7181 665.994 41.7502 666.031 41.7833C667.446 43.0975 668.23 45.1729 668.307 47.0724C668.309 47.213 668.31 47.3534 668.309 47.494C668.309 47.5737 668.309 47.5737 668.31 47.6549C668.31 47.831 668.31 48.0071 668.31 48.1832C668.31 48.3102 668.31 48.4372 668.311 48.5642C668.311 48.9081 668.311 49.2519 668.311 49.5957C668.311 49.811 668.311 50.0263 668.312 50.2415C668.312 50.9938 668.312 51.7461 668.312 52.4984C668.312 53.1975 668.313 53.8966 668.314 54.5957C668.315 55.1976 668.315 55.7995 668.315 56.4013C668.315 56.7601 668.315 57.1188 668.316 57.4775C668.316 57.8153 668.316 58.1531 668.316 58.491C668.316 58.6142 668.316 58.7374 668.316 58.8606C668.319 59.7832 668.296 60.7078 668.046 61.6026C668.033 61.6503 668.02 61.6981 668.006 61.7473C667.689 62.8622 667.172 63.8672 666.41 64.7441C666.368 64.794 666.325 64.8439 666.281 64.8954C664.847 66.5388 662.853 67.5173 660.676 67.6721C660.381 67.6807 660.085 67.6807 659.79 67.6805C659.701 67.6806 659.612 67.6808 659.523 67.681C659.281 67.6815 659.038 67.6816 658.795 67.6816C658.532 67.6817 658.27 67.6822 658.008 67.6826C657.553 67.6833 657.099 67.6838 656.644 67.6842C655.925 67.6848 655.206 67.6861 654.487 67.6875C654.241 67.6879 653.994 67.6884 653.748 67.6888C653.686 67.6889 653.625 67.689 653.561 67.6892C652.861 67.6904 652.161 67.6916 651.461 67.6927C651.397 67.6928 651.333 67.6929 651.267 67.693C650.231 67.6946 649.195 67.6957 648.16 67.6967C647.095 67.6978 646.029 67.6996 644.964 67.7019C644.308 67.7033 643.652 67.7042 642.996 67.7043C642.546 67.7044 642.096 67.7052 641.646 67.7065C641.387 67.7073 641.128 67.7077 640.868 67.7073C639.446 67.6945 639.446 67.6945 638.045 67.9161C637.994 67.9274 637.943 67.9388 637.89 67.9506C635.941 68.4042 634.167 69.7068 633.104 71.3931C632.227 72.8716 631.845 74.355 631.853 76.0677C631.853 76.1896 631.852 76.3115 631.852 76.4334C631.85 76.7647 631.851 77.096 631.852 77.4272C631.852 77.7859 631.851 78.1446 631.85 78.5033C631.849 79.1237 631.849 79.7442 631.849 80.3646C631.849 81.0154 631.849 81.6661 631.848 82.3168C631.848 82.3575 631.848 82.3981 631.848 82.4399C631.847 82.6463 631.847 82.8526 631.847 83.059C631.845 84.5178 631.843 85.9766 631.843 87.4354C631.843 88.8495 631.842 90.2635 631.84 91.6775C631.84 91.7211 631.84 91.7647 631.84 91.8096C631.839 92.8054 631.838 93.8013 631.837 94.7972C631.837 94.8817 631.837 94.9663 631.837 95.0509C631.837 95.1351 631.837 95.2194 631.836 95.3036C631.836 95.3452 631.836 95.3867 631.836 95.4296C631.836 95.6381 631.836 95.8466 631.836 96.0551C631.834 97.0336 631.834 98.012 631.833 98.9904C631.833 99.604 631.833 100.218 631.832 100.831C631.832 101.253 631.832 101.674 631.832 102.095C631.832 102.352 631.832 102.609 631.831 102.865C631.831 102.982 631.831 103.099 631.831 103.216C631.833 105.032 631.833 105.032 631.663 105.847C631.653 105.897 631.642 105.948 631.631 106C631.373 107.173 630.866 108.274 630.115 109.213C630.089 109.246 630.063 109.279 630.036 109.313C628.685 111.004 626.76 112.061 624.613 112.342C624.022 112.404 623.428 112.395 622.834 112.395C622.709 112.395 622.583 112.395 622.458 112.396C622.119 112.397 621.78 112.397 621.441 112.397C621.228 112.397 621.016 112.398 620.803 112.398C620.137 112.399 619.47 112.399 618.804 112.4C618.037 112.4 617.271 112.401 616.505 112.403C615.911 112.404 615.317 112.405 614.722 112.405C614.368 112.405 614.014 112.405 613.66 112.406C613.327 112.407 612.993 112.407 612.66 112.407C612.538 112.407 612.417 112.407 612.296 112.408C610.626 112.416 609.077 112.166 607.606 111.348C607.551 111.318 607.495 111.288 607.438 111.257C605.624 110.226 604.307 108.468 603.737 106.473C603.556 105.807 603.449 105.149 603.45 104.459C603.45 104.406 603.45 104.353 603.45 104.299C603.449 104.122 603.449 103.944 603.45 103.767C603.449 103.639 603.449 103.51 603.449 103.382C603.448 103.029 603.448 102.676 603.448 102.323C603.448 101.942 603.448 101.562 603.447 101.181C603.446 100.305 603.446 99.4296 603.446 98.5539C603.446 98.1208 603.445 97.6878 603.445 97.2547C603.444 95.7713 603.444 94.2878 603.444 92.8044C603.444 92.7113 603.444 92.6183 603.444 92.5252C603.444 92.4319 603.444 92.3386 603.444 92.2453C603.444 92.0581 603.443 91.871 603.443 91.6838C603.443 91.6374 603.443 91.591 603.443 91.5432C603.443 90.0393 603.442 88.5354 603.441 87.0316C603.439 85.4404 603.438 83.8492 603.438 82.258C603.438 82.0831 603.438 81.9082 603.438 81.7334C603.438 81.6903 603.438 81.6473 603.438 81.6029C603.438 80.9116 603.438 80.2203 603.437 79.5291C603.436 78.8335 603.436 78.1379 603.436 77.4423C603.436 77.0659 603.436 76.6894 603.435 76.313C603.435 75.9678 603.435 75.6225 603.436 75.2773C603.436 75.153 603.435 75.0287 603.435 74.9044C603.425 72.5415 604.202 70.4374 605.86 68.7243C606.851 67.7685 608.035 67.1083 609.352 66.7113C609.412 66.6931 609.412 66.6931 609.473 66.6746C610.24 66.4551 610.987 66.434 611.778 66.4345C611.896 66.4342 612.014 66.4338 612.132 66.4333C612.386 66.4324 612.639 66.4318 612.893 66.4316C613.295 66.4312 613.697 66.4299 614.099 66.4284C614.953 66.4254 615.807 66.4234 616.661 66.4216C617.581 66.4195 618.502 66.4173 619.422 66.414C619.82 66.4126 620.219 66.4117 620.617 66.4113C620.866 66.411 621.116 66.4101 621.366 66.4091C621.48 66.4088 621.594 66.4086 621.708 66.4087C624.091 66.4098 626.1 65.9506 627.98 64.4391C628.034 64.3956 628.088 64.3521 628.144 64.3073C629.423 63.2245 630.286 61.5488 630.622 59.9212C630.632 59.8745 630.642 59.8278 630.652 59.7796C630.811 58.9382 630.795 58.0736 630.796 57.2207C630.796 57.1051 630.796 56.9894 630.797 56.8738C630.797 56.6266 630.798 56.3793 630.798 56.1321C630.799 55.7402 630.8 55.3483 630.801 54.9564C630.805 53.8427 630.809 52.7289 630.811 51.6151C630.812 50.9986 630.813 50.3821 630.816 49.7656C630.817 49.4403 630.818 49.115 630.818 48.7896C630.818 48.4835 630.819 48.1774 630.821 47.8713C630.821 47.7598 630.822 47.6482 630.821 47.5367C630.82 46.6047 630.914 45.7142 631.221 44.8276C631.239 44.7741 631.257 44.7207 631.276 44.6656C632.003 42.6182 633.533 41.0131 635.47 40.0622C636.679 39.4957 637.932 39.2973 639.259 39.2989Z" fill="black"/>
</svg>
