<svg width="1276" height="189" viewBox="0 0 1276 189" fill="none" xmlns="http://www.w3.org/2000/svg">
<line x1="40.6019" y1="170.026" x2="155.568" y2="18.755" stroke="black" stroke-opacity="0.15"/>
<line y1="-0.5" x2="190" y2="-0.5" transform="matrix(-0.605083 -0.796162 -0.796162 0.605083 1216.01 170.328)" stroke="black" stroke-opacity="0.15"/>
<line x1="177.178" y1="18.5326" x2="385.178" y2="97.5326" stroke="black" stroke-opacity="0.15"/>
<line y1="-0.5" x2="222.497" y2="-0.5" transform="matrix(-0.934843 0.355061 0.355061 0.934843 1080.01 19)" stroke="black" stroke-opacity="0.15"/>
<line y1="-0.5" x2="140" y2="-0.5" transform="matrix(1 0 0 -1 420 101)" stroke="black" stroke-opacity="0.15"/>
<line x1="670" y1="101.25" x2="837.03" y2="101.25" stroke="black" stroke-opacity="0.15"/>
<path d="M0 170C0 159.507 8.50659 151 19 151H52C62.4934 151 71 159.507 71 170C71 180.493 62.4934 189 52 189H19C8.50659 189 0 180.493 0 170Z" fill="#FFD60A"/>
<path d="M16.16 175H15.008V166.324H16.16L19.148 173.62L22.136 166.324H23.312V175H22.16V171.568C22.16 171.16 22.16 170.812 22.16 170.524C22.16 170.236 22.164 169.988 22.172 169.78C22.18 169.572 22.188 169.388 22.196 169.228C22.204 169.06 22.216 168.9 22.232 168.748L19.7 175H18.596L16.076 168.772C16.108 168.98 16.128 169.3 16.136 169.732C16.152 170.164 16.16 170.684 16.16 171.292V175ZM24.8162 172.06C24.8162 171.46 24.9482 170.928 25.2122 170.464C25.4762 170 25.8362 169.636 26.2922 169.372C26.7562 169.108 27.2842 168.976 27.8762 168.976C28.4682 168.976 28.9922 169.108 29.4482 169.372C29.9042 169.636 30.2642 170 30.5282 170.464C30.7922 170.928 30.9242 171.46 30.9242 172.06C30.9242 172.66 30.7922 173.192 30.5282 173.656C30.2642 174.12 29.9042 174.484 29.4482 174.748C28.9922 175.012 28.4682 175.144 27.8762 175.144C27.2842 175.144 26.7562 175.012 26.2922 174.748C25.8362 174.484 25.4762 174.12 25.2122 173.656C24.9482 173.192 24.8162 172.66 24.8162 172.06ZM25.9562 172.06C25.9562 172.468 26.0362 172.828 26.1962 173.14C26.3642 173.452 26.5922 173.696 26.8802 173.872C27.1682 174.048 27.5002 174.136 27.8762 174.136C28.2522 174.136 28.5842 174.048 28.8722 173.872C29.1602 173.696 29.3842 173.452 29.5442 173.14C29.7122 172.828 29.7962 172.468 29.7962 172.06C29.7962 171.644 29.7122 171.284 29.5442 170.98C29.3842 170.668 29.1602 170.424 28.8722 170.248C28.5842 170.072 28.2522 169.984 27.8762 169.984C27.5002 169.984 27.1682 170.072 26.8802 170.248C26.5922 170.424 26.3642 170.668 26.1962 170.98C26.0362 171.284 25.9562 171.644 25.9562 172.06ZM34.5849 175.144C34.0169 175.144 33.5289 175.016 33.1209 174.76C32.7129 174.496 32.3969 174.132 32.1729 173.668C31.9569 173.204 31.8489 172.676 31.8489 172.084C31.8489 171.484 31.9609 170.952 32.1849 170.488C32.4089 170.016 32.7289 169.644 33.1449 169.372C33.5609 169.1 34.0569 168.964 34.6329 168.964C35.0889 168.964 35.4929 169.06 35.8449 169.252C36.2049 169.436 36.4849 169.712 36.6849 170.08V166.168H37.8009V175H36.7929L36.6969 173.932C36.5049 174.324 36.2209 174.624 35.8449 174.832C35.4769 175.04 35.0569 175.144 34.5849 175.144ZM34.8129 174.124C35.1969 174.124 35.5249 174.036 35.7969 173.86C36.0769 173.684 36.2929 173.44 36.4449 173.128C36.5969 172.816 36.6729 172.456 36.6729 172.048C36.6729 171.64 36.5969 171.284 36.4449 170.98C36.2929 170.668 36.0769 170.424 35.7969 170.248C35.5249 170.072 35.1969 169.984 34.8129 169.984C34.4289 169.984 34.1009 170.076 33.8289 170.26C33.5569 170.436 33.3489 170.68 33.2049 170.992C33.0609 171.296 32.9889 171.648 32.9889 172.048C32.9889 172.456 33.0609 172.816 33.2049 173.128C33.3489 173.44 33.5569 173.684 33.8289 173.86C34.1009 174.036 34.4289 174.124 34.8129 174.124ZM42.0202 175.144C41.4522 175.144 40.9482 175.016 40.5082 174.76C40.0682 174.496 39.7242 174.136 39.4762 173.68C39.2282 173.216 39.1042 172.68 39.1042 172.072C39.1042 171.456 39.2242 170.916 39.4642 170.452C39.7122 169.988 40.0482 169.624 40.4722 169.36C40.9042 169.096 41.4042 168.964 41.9722 168.964C42.5322 168.964 43.0162 169.084 43.4242 169.324C43.8402 169.564 44.1602 169.9 44.3842 170.332C44.6162 170.764 44.7322 171.272 44.7322 171.856V172.276L39.7042 172.288L39.7282 171.532H43.6042C43.6042 171.044 43.4562 170.652 43.1602 170.356C42.8642 170.06 42.4682 169.912 41.9722 169.912C41.5962 169.912 41.2722 169.996 41.0002 170.164C40.7362 170.324 40.5322 170.564 40.3882 170.884C40.2522 171.196 40.1842 171.572 40.1842 172.012C40.1842 172.716 40.3442 173.26 40.6642 173.644C40.9842 174.02 41.4442 174.208 42.0442 174.208C42.4842 174.208 42.8442 174.12 43.1242 173.944C43.4042 173.768 43.5922 173.512 43.6882 173.176H44.7442C44.6002 173.8 44.2922 174.284 43.8202 174.628C43.3482 174.972 42.7482 175.144 42.0202 175.144ZM49.4121 169.084V170.116H48.9081C48.3721 170.116 47.9481 170.272 47.6361 170.584C47.3321 170.888 47.1801 171.324 47.1801 171.892V175H46.0521V169.144H47.1081L47.2041 170.32H47.0961C47.1761 169.936 47.3681 169.624 47.6721 169.384C47.9761 169.136 48.3561 169.012 48.8121 169.012C48.9161 169.012 49.0121 169.02 49.1001 169.036C49.1961 169.044 49.3001 169.06 49.4121 169.084ZM51.6581 175H50.5301V169.132H51.5501L51.6701 170.032C51.8541 169.696 52.1181 169.436 52.4621 169.252C52.8141 169.06 53.1981 168.964 53.6141 168.964C54.3821 168.964 54.9501 169.184 55.3181 169.624C55.6861 170.064 55.8701 170.66 55.8701 171.412V175H54.7421V171.664C54.7421 171.072 54.6141 170.648 54.3581 170.392C54.1021 170.128 53.7581 169.996 53.3261 169.996C52.7981 169.996 52.3861 170.168 52.0901 170.512C51.8021 170.856 51.6581 171.316 51.6581 171.892V175Z" fill="white"/>
<path d="M122 19C122 8.50659 130.507 0 141 0H188C198.493 0 207 8.50659 207 19C207 29.4934 198.493 38 188 38H141C130.507 38 122 29.4934 122 19Z" fill="#74FF6B"/>
<path d="M138.184 15.324V24H137.008V15.324H138.184ZM141.203 24H140.075V18.132H141.095L141.215 19.032C141.399 18.696 141.663 18.436 142.007 18.252C142.359 18.06 142.743 17.964 143.159 17.964C143.927 17.964 144.495 18.184 144.863 18.624C145.231 19.064 145.415 19.66 145.415 20.412V24H144.287V20.664C144.287 20.072 144.159 19.648 143.903 19.392C143.647 19.128 143.303 18.996 142.871 18.996C142.343 18.996 141.931 19.168 141.635 19.512C141.347 19.856 141.203 20.316 141.203 20.892V24ZM148.166 24H147.038V18.132H148.058L148.178 19.032C148.362 18.696 148.626 18.436 148.97 18.252C149.322 18.06 149.706 17.964 150.122 17.964C150.89 17.964 151.458 18.184 151.826 18.624C152.194 19.064 152.378 19.66 152.378 20.412V24H151.25V20.664C151.25 20.072 151.122 19.648 150.866 19.392C150.61 19.128 150.266 18.996 149.834 18.996C149.306 18.996 148.894 19.168 148.598 19.512C148.31 19.856 148.166 20.316 148.166 20.892V24ZM153.616 21.06C153.616 20.46 153.748 19.928 154.012 19.464C154.276 19 154.636 18.636 155.092 18.372C155.556 18.108 156.084 17.976 156.676 17.976C157.268 17.976 157.792 18.108 158.248 18.372C158.704 18.636 159.064 19 159.328 19.464C159.592 19.928 159.724 20.46 159.724 21.06C159.724 21.66 159.592 22.192 159.328 22.656C159.064 23.12 158.704 23.484 158.248 23.748C157.792 24.012 157.268 24.144 156.676 24.144C156.084 24.144 155.556 24.012 155.092 23.748C154.636 23.484 154.276 23.12 154.012 22.656C153.748 22.192 153.616 21.66 153.616 21.06ZM154.756 21.06C154.756 21.468 154.836 21.828 154.996 22.14C155.164 22.452 155.392 22.696 155.68 22.872C155.968 23.048 156.3 23.136 156.676 23.136C157.052 23.136 157.384 23.048 157.672 22.872C157.96 22.696 158.184 22.452 158.344 22.14C158.512 21.828 158.596 21.468 158.596 21.06C158.596 20.644 158.512 20.284 158.344 19.98C158.184 19.668 157.96 19.424 157.672 19.248C157.384 19.072 157.052 18.984 156.676 18.984C156.3 18.984 155.968 19.072 155.68 19.248C155.392 19.424 155.164 19.668 154.996 19.98C154.836 20.284 154.756 20.644 154.756 21.06ZM162.407 24L160.043 18.132H161.243L162.527 21.408C162.631 21.68 162.723 21.94 162.803 22.188C162.883 22.428 162.947 22.636 162.995 22.812C163.051 22.612 163.119 22.392 163.199 22.152C163.287 21.912 163.383 21.664 163.487 21.408L164.795 18.132H165.971L163.523 24H162.407ZM168.375 24.144C167.751 24.144 167.259 23.98 166.899 23.652C166.547 23.324 166.371 22.896 166.371 22.368C166.371 21.832 166.563 21.404 166.947 21.084C167.331 20.756 167.867 20.564 168.555 20.508L170.403 20.364V20.196C170.403 19.868 170.343 19.608 170.223 19.416C170.103 19.216 169.939 19.076 169.731 18.996C169.523 18.908 169.287 18.864 169.023 18.864C168.551 18.864 168.183 18.964 167.919 19.164C167.663 19.356 167.535 19.632 167.535 19.992H166.551C166.551 19.584 166.655 19.228 166.863 18.924C167.071 18.62 167.363 18.384 167.739 18.216C168.123 18.048 168.567 17.964 169.071 17.964C169.559 17.964 169.983 18.052 170.343 18.228C170.711 18.396 170.995 18.656 171.195 19.008C171.403 19.352 171.507 19.788 171.507 20.316V24H170.547L170.427 23.052C170.275 23.388 170.011 23.656 169.635 23.856C169.267 24.048 168.847 24.144 168.375 24.144ZM168.699 23.268C169.235 23.268 169.655 23.108 169.959 22.788C170.263 22.46 170.415 22.02 170.415 21.468V21.156L168.915 21.276C168.419 21.324 168.059 21.44 167.835 21.624C167.619 21.808 167.511 22.044 167.511 22.332C167.511 22.644 167.615 22.88 167.823 23.04C168.039 23.192 168.331 23.268 168.699 23.268ZM172.411 18.132H175.843V19.08H172.411V18.132ZM174.691 24H173.563V16.296H174.691V24ZM176.916 24V18.132H178.044V24H176.916ZM177.468 16.74C177.268 16.74 177.092 16.668 176.94 16.524C176.796 16.372 176.724 16.196 176.724 15.996C176.724 15.788 176.796 15.612 176.94 15.468C177.092 15.324 177.268 15.252 177.468 15.252C177.676 15.252 177.852 15.324 177.996 15.468C178.14 15.612 178.212 15.788 178.212 15.996C178.212 16.196 178.14 16.372 177.996 16.524C177.852 16.668 177.676 16.74 177.468 16.74ZM179.357 21.06C179.357 20.46 179.489 19.928 179.753 19.464C180.017 19 180.377 18.636 180.833 18.372C181.297 18.108 181.825 17.976 182.417 17.976C183.009 17.976 183.533 18.108 183.989 18.372C184.445 18.636 184.805 19 185.069 19.464C185.333 19.928 185.465 20.46 185.465 21.06C185.465 21.66 185.333 22.192 185.069 22.656C184.805 23.12 184.445 23.484 183.989 23.748C183.533 24.012 183.009 24.144 182.417 24.144C181.825 24.144 181.297 24.012 180.833 23.748C180.377 23.484 180.017 23.12 179.753 22.656C179.489 22.192 179.357 21.66 179.357 21.06ZM180.497 21.06C180.497 21.468 180.577 21.828 180.737 22.14C180.905 22.452 181.133 22.696 181.421 22.872C181.709 23.048 182.041 23.136 182.417 23.136C182.793 23.136 183.125 23.048 183.413 22.872C183.701 22.696 183.925 22.452 184.085 22.14C184.253 21.828 184.337 21.468 184.337 21.06C184.337 20.644 184.253 20.284 184.085 19.98C183.925 19.668 183.701 19.424 183.413 19.248C183.125 19.072 182.793 18.984 182.417 18.984C182.041 18.984 181.709 19.072 181.421 19.248C181.133 19.424 180.905 19.668 180.737 19.98C180.577 20.284 180.497 20.644 180.497 21.06ZM187.902 24H186.774V18.132H187.794L187.914 19.032C188.098 18.696 188.362 18.436 188.706 18.252C189.058 18.06 189.442 17.964 189.858 17.964C190.626 17.964 191.194 18.184 191.562 18.624C191.93 19.064 192.114 19.66 192.114 20.412V24H190.986V20.664C190.986 20.072 190.858 19.648 190.602 19.392C190.346 19.128 190.002 18.996 189.57 18.996C189.042 18.996 188.63 19.168 188.334 19.512C188.046 19.856 187.902 20.316 187.902 20.892V24Z" fill="white"/>
<path d="M364 95C364 84.5066 372.507 76 383 76H436C446.493 76 455 84.5066 455 95C455 105.493 446.493 114 436 114H383C372.507 114 364 105.493 364 95Z" fill="#FF6400"/>
<path d="M380.184 91.324V100H379.008V91.324H380.184ZM382.416 96.172H379.86V95.152H382.32C382.808 95.152 383.184 95.028 383.448 94.78C383.712 94.532 383.844 94.18 383.844 93.724C383.844 93.292 383.704 92.96 383.424 92.728C383.152 92.488 382.76 92.368 382.248 92.368H379.656V91.324H382.32C383.168 91.324 383.832 91.528 384.312 91.936C384.8 92.344 385.044 92.904 385.044 93.616C385.044 94.152 384.912 94.6 384.648 94.96C384.392 95.312 384.012 95.568 383.508 95.728V95.572C384.068 95.708 384.488 95.956 384.768 96.316C385.056 96.668 385.2 97.124 385.2 97.684C385.2 98.164 385.088 98.58 384.864 98.932C384.648 99.276 384.332 99.54 383.916 99.724C383.5 99.908 383.008 100 382.44 100H379.656V98.956H382.416C382.92 98.956 383.308 98.832 383.58 98.584C383.852 98.336 383.988 97.988 383.988 97.54C383.988 97.108 383.848 96.772 383.568 96.532C383.296 96.292 382.912 96.172 382.416 96.172ZM387.692 100H386.564V91.168H387.692V100ZM389.029 97.06C389.029 96.46 389.161 95.928 389.425 95.464C389.689 95 390.049 94.636 390.505 94.372C390.969 94.108 391.497 93.976 392.089 93.976C392.681 93.976 393.205 94.108 393.661 94.372C394.117 94.636 394.477 95 394.741 95.464C395.005 95.928 395.137 96.46 395.137 97.06C395.137 97.66 395.005 98.192 394.741 98.656C394.477 99.12 394.117 99.484 393.661 99.748C393.205 100.012 392.681 100.144 392.089 100.144C391.497 100.144 390.969 100.012 390.505 99.748C390.049 99.484 389.689 99.12 389.425 98.656C389.161 98.192 389.029 97.66 389.029 97.06ZM390.169 97.06C390.169 97.468 390.249 97.828 390.409 98.14C390.577 98.452 390.805 98.696 391.093 98.872C391.381 99.048 391.713 99.136 392.089 99.136C392.465 99.136 392.797 99.048 393.085 98.872C393.373 98.696 393.597 98.452 393.757 98.14C393.925 97.828 394.009 97.468 394.009 97.06C394.009 96.644 393.925 96.284 393.757 95.98C393.597 95.668 393.373 95.424 393.085 95.248C392.797 95.072 392.465 94.984 392.089 94.984C391.713 94.984 391.381 95.072 391.093 95.248C390.805 95.424 390.577 95.668 390.409 95.98C390.249 96.284 390.169 96.644 390.169 97.06ZM396.061 97.072C396.061 96.456 396.181 95.916 396.421 95.452C396.669 94.988 397.009 94.624 397.441 94.36C397.873 94.096 398.373 93.964 398.941 93.964C399.677 93.964 400.289 94.16 400.777 94.552C401.265 94.944 401.557 95.464 401.653 96.112H400.525C400.429 95.736 400.241 95.452 399.961 95.26C399.681 95.068 399.353 94.972 398.977 94.972C398.625 94.972 398.313 95.06 398.041 95.236C397.769 95.404 397.557 95.644 397.405 95.956C397.253 96.268 397.177 96.636 397.177 97.06C397.177 97.484 397.249 97.852 397.393 98.164C397.537 98.468 397.741 98.708 398.005 98.884C398.269 99.052 398.577 99.136 398.929 99.136C399.329 99.136 399.673 99.036 399.961 98.836C400.249 98.636 400.441 98.364 400.537 98.02H401.665C401.593 98.444 401.429 98.816 401.173 99.136C400.925 99.448 400.605 99.696 400.213 99.88C399.829 100.056 399.401 100.144 398.929 100.144C398.353 100.144 397.849 100.016 397.417 99.76C396.993 99.504 396.661 99.148 396.421 98.692C396.181 98.228 396.061 97.688 396.061 97.072ZM404.067 100H402.939V91.168H404.067V96.892L406.671 94.132H408.087L405.843 96.472L408.075 100H406.779L405.063 97.288L404.067 98.332V100ZM412.861 100.132C412.037 100.132 411.317 99.948 410.701 99.58C410.085 99.204 409.605 98.684 409.261 98.02C408.917 97.348 408.745 96.564 408.745 95.668C408.745 94.772 408.921 93.988 409.273 93.316C409.625 92.644 410.113 92.12 410.737 91.744C411.369 91.368 412.097 91.18 412.921 91.18C413.577 91.18 414.169 91.304 414.697 91.552C415.225 91.792 415.665 92.132 416.017 92.572C416.369 93.012 416.597 93.528 416.701 94.12H415.441C415.281 93.552 414.973 93.108 414.517 92.788C414.061 92.468 413.517 92.308 412.885 92.308C412.301 92.308 411.789 92.448 411.349 92.728C410.917 93 410.581 93.388 410.341 93.892C410.101 94.388 409.981 94.976 409.981 95.656C409.981 96.328 410.101 96.916 410.341 97.42C410.581 97.924 410.921 98.316 411.361 98.596C411.801 98.868 412.309 99.004 412.885 99.004C413.525 99.004 414.077 98.848 414.541 98.536C415.013 98.216 415.329 97.788 415.489 97.252H416.737C416.617 97.828 416.373 98.332 416.005 98.764C415.645 99.196 415.193 99.532 414.649 99.772C414.113 100.012 413.517 100.132 412.861 100.132ZM419.117 99.988H417.989V91.168H419.117V95.032C419.301 94.712 419.565 94.456 419.909 94.264C420.253 94.064 420.653 93.964 421.109 93.964C421.853 93.964 422.409 94.184 422.777 94.624C423.145 95.064 423.329 95.66 423.329 96.412V100H422.201V96.664C422.201 96.264 422.141 95.944 422.021 95.704C421.909 95.456 421.745 95.276 421.529 95.164C421.321 95.052 421.077 94.996 420.797 94.996C420.437 94.996 420.129 95.076 419.873 95.236C419.625 95.396 419.437 95.612 419.309 95.884C419.181 96.156 419.117 96.46 419.117 96.796V99.988ZM426.667 100.144C426.043 100.144 425.551 99.98 425.191 99.652C424.839 99.324 424.663 98.896 424.663 98.368C424.663 97.832 424.855 97.404 425.239 97.084C425.623 96.756 426.159 96.564 426.847 96.508L428.695 96.364V96.196C428.695 95.868 428.635 95.608 428.515 95.416C428.395 95.216 428.231 95.076 428.023 94.996C427.815 94.908 427.579 94.864 427.315 94.864C426.843 94.864 426.475 94.964 426.211 95.164C425.955 95.356 425.827 95.632 425.827 95.992H424.843C424.843 95.584 424.947 95.228 425.155 94.924C425.363 94.62 425.655 94.384 426.031 94.216C426.415 94.048 426.859 93.964 427.363 93.964C427.851 93.964 428.275 94.052 428.635 94.228C429.003 94.396 429.287 94.656 429.487 95.008C429.695 95.352 429.799 95.788 429.799 96.316V100H428.839L428.719 99.052C428.567 99.388 428.303 99.656 427.927 99.856C427.559 100.048 427.139 100.144 426.667 100.144ZM426.991 99.268C427.527 99.268 427.947 99.108 428.251 98.788C428.555 98.46 428.707 98.02 428.707 97.468V97.156L427.207 97.276C426.711 97.324 426.351 97.44 426.127 97.624C425.911 97.808 425.803 98.044 425.803 98.332C425.803 98.644 425.907 98.88 426.115 99.04C426.331 99.192 426.623 99.268 426.991 99.268ZM431.421 100V94.132H432.549V100H431.421ZM431.973 92.74C431.773 92.74 431.597 92.668 431.445 92.524C431.301 92.372 431.229 92.196 431.229 91.996C431.229 91.788 431.301 91.612 431.445 91.468C431.597 91.324 431.773 91.252 431.973 91.252C432.181 91.252 432.357 91.324 432.501 91.468C432.645 91.612 432.717 91.788 432.717 91.996C432.717 92.196 432.645 92.372 432.501 92.524C432.357 92.668 432.181 92.74 431.973 92.74ZM435.375 100H434.247V94.132H435.267L435.387 95.032C435.571 94.696 435.835 94.436 436.179 94.252C436.531 94.06 436.915 93.964 437.331 93.964C438.099 93.964 438.667 94.184 439.035 94.624C439.403 95.064 439.587 95.66 439.587 96.412V100H438.459V96.664C438.459 96.072 438.331 95.648 438.075 95.392C437.819 95.128 437.475 94.996 437.043 94.996C436.515 94.996 436.103 95.168 435.807 95.512C435.519 95.856 435.375 96.316 435.375 96.892V100Z" fill="white"/>
<path d="M823 103C823 92.5066 831.507 84 842 84H878C888.493 84 897 92.5066 897 103C897 113.493 888.493 122 878 122H842C831.507 122 823 113.493 823 103Z" fill="#FF6400"/>
<path d="M837.504 101.664C837.504 101.168 837.628 100.732 837.876 100.356C838.124 99.98 838.472 99.688 838.92 99.48C839.376 99.272 839.9 99.168 840.492 99.168C841.044 99.168 841.524 99.268 841.932 99.468C842.348 99.66 842.672 99.936 842.904 100.296C843.144 100.656 843.28 101.088 843.312 101.592H842.124C842.092 101.16 841.932 100.824 841.644 100.584C841.356 100.344 840.968 100.224 840.48 100.224C839.936 100.224 839.5 100.352 839.172 100.608C838.844 100.856 838.68 101.196 838.68 101.628C838.68 101.98 838.78 102.264 838.98 102.48C839.18 102.688 839.484 102.84 839.892 102.936L841.32 103.272C842.032 103.432 842.564 103.708 842.916 104.1C843.276 104.484 843.456 104.98 843.456 105.588C843.456 106.108 843.328 106.56 843.072 106.944C842.824 107.328 842.468 107.624 842.004 107.832C841.548 108.04 841.012 108.144 840.396 108.144C839.812 108.144 839.296 108.048 838.848 107.856C838.408 107.656 838.06 107.376 837.804 107.016C837.556 106.648 837.416 106.22 837.384 105.732H838.584C838.592 106.148 838.76 106.48 839.088 106.728C839.416 106.968 839.852 107.088 840.396 107.088C840.972 107.088 841.428 106.96 841.764 106.704C842.108 106.448 842.28 106.108 842.28 105.684C842.28 105.34 842.184 105.06 841.992 104.844C841.8 104.628 841.496 104.472 841.08 104.376L839.652 104.052C838.948 103.892 838.412 103.612 838.044 103.212C837.684 102.804 837.504 102.288 837.504 101.664ZM848.858 102.132H849.974V108H848.966L848.846 107.112C848.678 107.416 848.414 107.664 848.054 107.856C847.694 108.048 847.298 108.144 846.866 108.144C846.186 108.144 845.658 107.932 845.282 107.508C844.914 107.076 844.73 106.5 844.73 105.78V102.132H845.858V105.408C845.858 106.032 845.982 106.48 846.23 106.752C846.486 107.016 846.83 107.148 847.262 107.148C847.782 107.148 848.178 106.988 848.45 106.668C848.722 106.34 848.858 105.86 848.858 105.228V102.132ZM852.798 108H851.67V102.132H852.678L852.834 103.212L852.69 103.116C852.81 102.788 853.03 102.516 853.35 102.3C853.678 102.076 854.074 101.964 854.538 101.964C855.058 101.964 855.49 102.104 855.834 102.384C856.178 102.664 856.402 103.036 856.506 103.5H856.302C856.382 103.036 856.602 102.664 856.962 102.384C857.322 102.104 857.766 101.964 858.294 101.964C858.966 101.964 859.494 102.16 859.878 102.552C860.262 102.944 860.454 103.48 860.454 104.16V108H859.35V104.436C859.35 103.972 859.23 103.616 858.99 103.368C858.758 103.112 858.442 102.984 858.042 102.984C857.762 102.984 857.514 103.048 857.298 103.176C857.09 103.296 856.926 103.472 856.806 103.704C856.686 103.936 856.626 104.208 856.626 104.52V108H855.51V104.424C855.51 103.96 855.394 103.608 855.162 103.368C854.93 103.12 854.614 102.996 854.214 102.996C853.934 102.996 853.686 103.06 853.47 103.188C853.262 103.308 853.098 103.484 852.978 103.716C852.858 103.94 852.798 104.208 852.798 104.52V108ZM863.206 108H862.078V102.132H863.086L863.242 103.212L863.098 103.116C863.218 102.788 863.438 102.516 863.758 102.3C864.086 102.076 864.482 101.964 864.946 101.964C865.466 101.964 865.898 102.104 866.242 102.384C866.586 102.664 866.81 103.036 866.914 103.5H866.71C866.79 103.036 867.01 102.664 867.37 102.384C867.73 102.104 868.174 101.964 868.702 101.964C869.374 101.964 869.902 102.16 870.286 102.552C870.67 102.944 870.862 103.48 870.862 104.16V108H869.758V104.436C869.758 103.972 869.638 103.616 869.398 103.368C869.166 103.112 868.85 102.984 868.45 102.984C868.17 102.984 867.922 103.048 867.706 103.176C867.498 103.296 867.334 103.472 867.214 103.704C867.094 103.936 867.034 104.208 867.034 104.52V108H865.918V104.424C865.918 103.96 865.802 103.608 865.57 103.368C865.338 103.12 865.022 102.996 864.622 102.996C864.342 102.996 864.094 103.06 863.878 103.188C863.67 103.308 863.506 103.484 863.386 103.716C863.266 103.94 863.206 104.208 863.206 104.52V108ZM875.018 108.144C874.45 108.144 873.946 108.016 873.506 107.76C873.066 107.496 872.722 107.136 872.474 106.68C872.226 106.216 872.102 105.68 872.102 105.072C872.102 104.456 872.222 103.916 872.462 103.452C872.71 102.988 873.046 102.624 873.47 102.36C873.902 102.096 874.402 101.964 874.97 101.964C875.53 101.964 876.014 102.084 876.422 102.324C876.838 102.564 877.158 102.9 877.382 103.332C877.614 103.764 877.73 104.272 877.73 104.856V105.276L872.702 105.288L872.726 104.532H876.602C876.602 104.044 876.454 103.652 876.158 103.356C875.862 103.06 875.466 102.912 874.97 102.912C874.594 102.912 874.27 102.996 873.998 103.164C873.734 103.324 873.53 103.564 873.386 103.884C873.25 104.196 873.182 104.572 873.182 105.012C873.182 105.716 873.342 106.26 873.662 106.644C873.982 107.02 874.442 107.208 875.042 107.208C875.482 107.208 875.842 107.12 876.122 106.944C876.402 106.768 876.59 106.512 876.686 106.176H877.742C877.598 106.8 877.29 107.284 876.818 107.628C876.346 107.972 875.746 108.144 875.018 108.144ZM882.41 102.084V103.116H881.906C881.37 103.116 880.946 103.272 880.634 103.584C880.33 103.888 880.178 104.324 880.178 104.892V108H879.05V102.144H880.106L880.202 103.32H880.094C880.174 102.936 880.366 102.624 880.67 102.384C880.974 102.136 881.354 102.012 881.81 102.012C881.914 102.012 882.01 102.02 882.098 102.036C882.194 102.044 882.298 102.06 882.41 102.084Z" fill="white"/>
<path d="M1049 19C1049 8.50659 1057.51 0 1068 0H1100C1110.49 0 1119 8.50659 1119 19C1119 29.4934 1110.49 38 1100 38H1068C1057.51 38 1049 29.4934 1049 19Z" fill="#003223"/>
<path d="M1065.18 24H1064.01V15.324H1065.18V19.056H1069.48V15.324H1070.66V24H1069.48V20.148H1065.18V24ZM1072.15 21.06C1072.15 20.46 1072.28 19.928 1072.55 19.464C1072.81 19 1073.17 18.636 1073.63 18.372C1074.09 18.108 1074.62 17.976 1075.21 17.976C1075.8 17.976 1076.33 18.108 1076.78 18.372C1077.24 18.636 1077.6 19 1077.86 19.464C1078.13 19.928 1078.26 20.46 1078.26 21.06C1078.26 21.66 1078.13 22.192 1077.86 22.656C1077.6 23.12 1077.24 23.484 1076.78 23.748C1076.33 24.012 1075.8 24.144 1075.21 24.144C1074.62 24.144 1074.09 24.012 1073.63 23.748C1073.17 23.484 1072.81 23.12 1072.55 22.656C1072.28 22.192 1072.15 21.66 1072.15 21.06ZM1073.29 21.06C1073.29 21.468 1073.37 21.828 1073.53 22.14C1073.7 22.452 1073.93 22.696 1074.22 22.872C1074.5 23.048 1074.84 23.136 1075.21 23.136C1075.59 23.136 1075.92 23.048 1076.21 22.872C1076.5 22.696 1076.72 22.452 1076.88 22.14C1077.05 21.828 1077.13 21.468 1077.13 21.06C1077.13 20.644 1077.05 20.284 1076.88 19.98C1076.72 19.668 1076.5 19.424 1076.21 19.248C1075.92 19.072 1075.59 18.984 1075.21 18.984C1074.84 18.984 1074.5 19.072 1074.22 19.248C1073.93 19.424 1073.7 19.668 1073.53 19.98C1073.37 20.284 1073.29 20.644 1073.29 21.06ZM1080.72 24H1079.59V15.168H1080.72V24ZM1082.44 24V18.132H1083.57V24H1082.44ZM1082.99 16.74C1082.79 16.74 1082.62 16.668 1082.47 16.524C1082.32 16.372 1082.25 16.196 1082.25 15.996C1082.25 15.788 1082.32 15.612 1082.47 15.468C1082.62 15.324 1082.79 15.252 1082.99 15.252C1083.2 15.252 1083.38 15.324 1083.52 15.468C1083.67 15.612 1083.74 15.788 1083.74 15.996C1083.74 16.196 1083.67 16.372 1083.52 16.524C1083.38 16.668 1083.2 16.74 1082.99 16.74ZM1087.62 24.144C1087.05 24.144 1086.56 24.016 1086.15 23.76C1085.75 23.496 1085.43 23.132 1085.21 22.668C1084.99 22.204 1084.88 21.676 1084.88 21.084C1084.88 20.484 1084.99 19.952 1085.22 19.488C1085.44 19.016 1085.76 18.644 1086.18 18.372C1086.59 18.1 1087.09 17.964 1087.67 17.964C1088.12 17.964 1088.53 18.06 1088.88 18.252C1089.24 18.436 1089.52 18.712 1089.72 19.08V15.168H1090.83V24H1089.83L1089.73 22.932C1089.54 23.324 1089.25 23.624 1088.88 23.832C1088.51 24.04 1088.09 24.144 1087.62 24.144ZM1087.85 23.124C1088.23 23.124 1088.56 23.036 1088.83 22.86C1089.11 22.684 1089.33 22.44 1089.48 22.128C1089.63 21.816 1089.71 21.456 1089.71 21.048C1089.71 20.64 1089.63 20.284 1089.48 19.98C1089.33 19.668 1089.11 19.424 1088.83 19.248C1088.56 19.072 1088.23 18.984 1087.85 18.984C1087.46 18.984 1087.13 19.076 1086.86 19.26C1086.59 19.436 1086.38 19.68 1086.24 19.992C1086.09 20.296 1086.02 20.648 1086.02 21.048C1086.02 21.456 1086.09 21.816 1086.24 22.128C1086.38 22.44 1086.59 22.684 1086.86 22.86C1087.13 23.036 1087.46 23.124 1087.85 23.124ZM1094.24 24.144C1093.61 24.144 1093.12 23.98 1092.76 23.652C1092.41 23.324 1092.23 22.896 1092.23 22.368C1092.23 21.832 1092.43 21.404 1092.81 21.084C1093.19 20.756 1093.73 20.564 1094.42 20.508L1096.27 20.364V20.196C1096.27 19.868 1096.21 19.608 1096.09 19.416C1095.97 19.216 1095.8 19.076 1095.59 18.996C1095.39 18.908 1095.15 18.864 1094.89 18.864C1094.41 18.864 1094.05 18.964 1093.78 19.164C1093.53 19.356 1093.4 19.632 1093.4 19.992H1092.41C1092.41 19.584 1092.52 19.228 1092.73 18.924C1092.93 18.62 1093.23 18.384 1093.6 18.216C1093.99 18.048 1094.43 17.964 1094.93 17.964C1095.42 17.964 1095.85 18.052 1096.21 18.228C1096.57 18.396 1096.86 18.656 1097.06 19.008C1097.27 19.352 1097.37 19.788 1097.37 20.316V24H1096.41L1096.29 23.052C1096.14 23.388 1095.87 23.656 1095.5 23.856C1095.13 24.048 1094.71 24.144 1094.24 24.144ZM1094.56 23.268C1095.1 23.268 1095.52 23.108 1095.82 22.788C1096.13 22.46 1096.28 22.02 1096.28 21.468V21.156L1094.78 21.276C1094.28 21.324 1093.92 21.44 1093.7 21.624C1093.48 21.808 1093.37 22.044 1093.37 22.332C1093.37 22.644 1093.48 22.88 1093.69 23.04C1093.9 23.192 1094.19 23.268 1094.56 23.268ZM1099.32 18.132L1101.38 23.844L1100.69 24.804L1098.13 18.132H1099.32ZM1098.29 26.628V25.704H1099.04C1099.23 25.704 1099.4 25.684 1099.55 25.644C1099.7 25.612 1099.84 25.536 1099.97 25.416C1100.1 25.304 1100.2 25.124 1100.29 24.876L1102.76 18.132H1103.93L1101.16 25.32C1100.96 25.824 1100.7 26.188 1100.4 26.412C1100.1 26.636 1099.72 26.748 1099.27 26.748C1099.09 26.748 1098.92 26.736 1098.76 26.712C1098.6 26.696 1098.44 26.668 1098.29 26.628Z" fill="white"/>
<path d="M1189 170C1189 159.507 1197.51 151 1208 151H1257C1267.49 151 1276 159.507 1276 170C1276 180.493 1267.49 189 1257 189H1208C1197.51 189 1189 180.493 1189 170Z" fill="#74FF6B"/>
<path d="M1203.96 165.273H1205.56L1208.34 172.057H1208.44L1211.22 165.273H1212.81V174H1211.56V167.685H1211.48L1208.91 173.987H1207.87L1205.29 167.68H1205.21V174H1203.96V165.273ZM1214.69 174V167.455H1215.96V174H1214.69ZM1215.33 166.445C1215.11 166.445 1214.92 166.371 1214.76 166.223C1214.6 166.072 1214.52 165.893 1214.52 165.686C1214.52 165.476 1214.6 165.297 1214.76 165.149C1214.92 164.999 1215.11 164.923 1215.33 164.923C1215.55 164.923 1215.74 164.999 1215.9 165.149C1216.06 165.297 1216.13 165.476 1216.13 165.686C1216.13 165.893 1216.06 166.072 1215.9 166.223C1215.74 166.371 1215.55 166.445 1215.33 166.445ZM1219.01 170.114V174H1217.73V167.455H1218.96V168.52H1219.04C1219.19 168.173 1219.42 167.895 1219.75 167.685C1220.07 167.474 1220.48 167.369 1220.97 167.369C1221.41 167.369 1221.81 167.463 1222.14 167.651C1222.48 167.835 1222.74 168.111 1222.92 168.477C1223.11 168.844 1223.2 169.297 1223.2 169.837V174H1221.92V169.99C1221.92 169.516 1221.8 169.145 1221.55 168.878C1221.31 168.608 1220.97 168.473 1220.53 168.473C1220.24 168.473 1219.98 168.537 1219.75 168.665C1219.52 168.793 1219.34 168.98 1219.2 169.227C1219.07 169.472 1219.01 169.767 1219.01 170.114ZM1224.97 174V167.455H1226.24V174H1224.97ZM1225.61 166.445C1225.39 166.445 1225.2 166.371 1225.04 166.223C1224.88 166.072 1224.8 165.893 1224.8 165.686C1224.8 165.476 1224.88 165.297 1225.04 165.149C1225.2 164.999 1225.39 164.923 1225.61 164.923C1225.83 164.923 1226.02 164.999 1226.18 165.149C1226.34 165.297 1226.42 165.476 1226.42 165.686C1226.42 165.893 1226.34 166.072 1226.18 166.223C1226.02 166.371 1225.83 166.445 1225.61 166.445ZM1228.01 174V167.455H1229.24V168.52H1229.32C1229.45 168.159 1229.68 167.878 1229.99 167.676C1230.3 167.472 1230.67 167.369 1231.1 167.369C1231.54 167.369 1231.9 167.472 1232.2 167.676C1232.5 167.881 1232.72 168.162 1232.86 168.52H1232.93C1233.08 168.17 1233.33 167.892 1233.67 167.685C1234.01 167.474 1234.42 167.369 1234.89 167.369C1235.49 167.369 1235.97 167.555 1236.35 167.928C1236.72 168.3 1236.91 168.861 1236.91 169.611V174H1235.64V169.73C1235.64 169.287 1235.52 168.966 1235.28 168.767C1235.03 168.568 1234.75 168.469 1234.41 168.469C1234 168.469 1233.67 168.597 1233.44 168.852C1233.21 169.105 1233.1 169.43 1233.1 169.828V174H1231.83V169.649C1231.83 169.294 1231.72 169.009 1231.5 168.793C1231.27 168.577 1230.99 168.469 1230.63 168.469C1230.39 168.469 1230.17 168.533 1229.96 168.661C1229.76 168.786 1229.6 168.96 1229.47 169.185C1229.35 169.409 1229.29 169.669 1229.29 169.964V174H1228.01ZM1240.58 174.145C1240.17 174.145 1239.8 174.068 1239.46 173.915C1239.12 173.759 1238.86 173.533 1238.66 173.237C1238.47 172.942 1238.37 172.58 1238.37 172.151C1238.37 171.781 1238.44 171.477 1238.59 171.239C1238.73 171 1238.92 170.811 1239.16 170.672C1239.4 170.533 1239.67 170.428 1239.97 170.357C1240.27 170.286 1240.57 170.232 1240.88 170.195C1241.28 170.149 1241.59 170.112 1241.84 170.084C1242.08 170.053 1242.26 170.003 1242.37 169.935C1242.48 169.866 1242.54 169.756 1242.54 169.602V169.572C1242.54 169.2 1242.43 168.912 1242.22 168.707C1242.01 168.503 1241.7 168.401 1241.29 168.401C1240.86 168.401 1240.53 168.496 1240.28 168.686C1240.03 168.874 1239.86 169.082 1239.77 169.312L1238.57 169.04C1238.72 168.642 1238.92 168.321 1239.2 168.077C1239.47 167.83 1239.79 167.651 1240.15 167.54C1240.5 167.426 1240.88 167.369 1241.28 167.369C1241.54 167.369 1241.81 167.401 1242.11 167.463C1242.4 167.523 1242.68 167.634 1242.93 167.795C1243.19 167.957 1243.4 168.189 1243.57 168.49C1243.73 168.788 1243.81 169.176 1243.81 169.653V174H1242.57V173.105H1242.52C1242.44 173.27 1242.31 173.432 1242.15 173.591C1241.98 173.75 1241.77 173.882 1241.51 173.987C1241.26 174.092 1240.95 174.145 1240.58 174.145ZM1240.86 173.122C1241.21 173.122 1241.52 173.053 1241.77 172.913C1242.02 172.774 1242.21 172.592 1242.34 172.368C1242.47 172.141 1242.54 171.898 1242.54 171.639V170.795C1242.5 170.841 1242.41 170.884 1242.28 170.923C1242.15 170.96 1242 170.993 1241.84 171.021C1241.67 171.047 1241.51 171.071 1241.36 171.094C1241.2 171.114 1241.07 171.131 1240.96 171.145C1240.72 171.176 1240.49 171.229 1240.29 171.303C1240.08 171.376 1239.92 171.483 1239.8 171.622C1239.68 171.759 1239.62 171.94 1239.62 172.168C1239.62 172.483 1239.74 172.722 1239.97 172.884C1240.2 173.043 1240.5 173.122 1240.86 173.122ZM1246.85 165.273V174H1245.57V165.273H1246.85ZM1248.62 174V167.455H1249.89V174H1248.62ZM1249.26 166.445C1249.04 166.445 1248.85 166.371 1248.69 166.223C1248.54 166.072 1248.46 165.893 1248.46 165.686C1248.46 165.476 1248.54 165.297 1248.69 165.149C1248.85 164.999 1249.04 164.923 1249.26 164.923C1249.49 164.923 1249.67 164.999 1249.83 165.149C1249.99 165.297 1250.07 165.476 1250.07 165.686C1250.07 165.893 1249.99 166.072 1249.83 166.223C1249.67 166.371 1249.49 166.445 1249.26 166.445ZM1256.57 169.053L1255.42 169.257C1255.37 169.109 1255.29 168.969 1255.19 168.835C1255.09 168.702 1254.95 168.592 1254.77 168.507C1254.59 168.422 1254.37 168.379 1254.11 168.379C1253.75 168.379 1253.45 168.46 1253.21 168.622C1252.97 168.781 1252.84 168.987 1252.84 169.24C1252.84 169.459 1252.93 169.635 1253.09 169.768C1253.25 169.902 1253.51 170.011 1253.87 170.097L1254.91 170.335C1255.51 170.474 1255.96 170.689 1256.26 170.979C1256.55 171.268 1256.7 171.645 1256.7 172.108C1256.7 172.5 1256.59 172.849 1256.36 173.156C1256.14 173.46 1255.82 173.699 1255.42 173.872C1255.02 174.045 1254.55 174.132 1254.03 174.132C1253.29 174.132 1252.69 173.976 1252.23 173.663C1251.77 173.348 1251.48 172.901 1251.38 172.321L1252.61 172.134C1252.69 172.455 1252.84 172.697 1253.08 172.862C1253.32 173.024 1253.63 173.105 1254.02 173.105C1254.43 173.105 1254.77 173.018 1255.02 172.845C1255.27 172.669 1255.39 172.455 1255.39 172.202C1255.39 171.997 1255.32 171.825 1255.16 171.686C1255.01 171.547 1254.78 171.442 1254.47 171.371L1253.36 171.128C1252.75 170.989 1252.3 170.767 1252.01 170.463C1251.72 170.159 1251.57 169.774 1251.57 169.308C1251.57 168.922 1251.68 168.584 1251.89 168.294C1252.11 168.004 1252.41 167.778 1252.79 167.616C1253.17 167.452 1253.61 167.369 1254.1 167.369C1254.8 167.369 1255.36 167.523 1255.77 167.83C1256.17 168.134 1256.44 168.541 1256.57 169.053ZM1261.22 167.455V168.477H1257.64V167.455H1261.22ZM1258.6 165.886H1259.88V172.078C1259.88 172.325 1259.91 172.511 1259.99 172.636C1260.06 172.759 1260.16 172.842 1260.27 172.888C1260.39 172.93 1260.52 172.952 1260.66 172.952C1260.76 172.952 1260.85 172.945 1260.93 172.93C1261 172.916 1261.06 172.905 1261.11 172.896L1261.34 173.949C1261.26 173.977 1261.16 174.006 1261.02 174.034C1260.89 174.065 1260.71 174.082 1260.51 174.085C1260.17 174.091 1259.86 174.031 1259.57 173.906C1259.28 173.781 1259.05 173.588 1258.87 173.327C1258.69 173.065 1258.6 172.737 1258.6 172.342V165.886Z" fill="white"/>
<path d="M570.41 46.496C570.494 46.4957 570.494 46.4957 570.581 46.4953C570.77 46.4947 570.959 46.4944 571.147 46.4942C571.283 46.4938 571.419 46.4934 571.555 46.493C572 46.4917 572.445 46.4911 572.891 46.4905C573.044 46.4902 573.198 46.49 573.352 46.4897C573.992 46.4887 574.632 46.4878 575.272 46.4874C575.438 46.4872 575.604 46.4871 575.769 46.487C575.811 46.487 575.852 46.4869 575.894 46.4869C576.56 46.4864 577.226 46.4849 577.892 46.4829C578.578 46.4808 579.264 46.4798 579.95 46.4796C580.334 46.4794 580.718 46.4789 581.102 46.4773C581.464 46.4759 581.826 46.4757 582.189 46.4763C582.321 46.4763 582.453 46.4759 582.585 46.4751C584.918 46.461 587.042 47.2661 588.714 48.9113C589.684 49.9001 590.388 51.1818 590.748 52.5173C590.76 52.5611 590.771 52.6049 590.784 52.6501C590.985 53.4513 591.021 54.2492 591.019 55.0702C591.019 55.1749 591.019 55.2797 591.019 55.3845C591.02 55.6711 591.019 55.9577 591.019 56.2444C591.019 56.5567 591.019 56.869 591.019 57.1813C591.02 57.7283 591.02 58.2752 591.02 58.8222C591.02 59.6356 591.02 60.4489 591.02 61.2623C591.021 62.5889 591.022 63.9156 591.022 65.2422C591.022 66.6398 591.022 68.0375 591.023 69.4352C591.023 69.4773 591.023 69.5195 591.023 69.5629C591.023 70.0339 591.024 70.5049 591.024 70.9759C591.024 71.847 591.025 72.7181 591.025 73.5892C591.025 73.6328 591.025 73.6763 591.025 73.7212C591.027 75.7946 591.027 77.8679 591.028 79.9412C591.028 80.0788 591.028 80.2163 591.028 80.3538C591.029 82.4261 591.03 84.4983 591.03 86.5705C591.03 86.8006 591.03 87.0307 591.03 87.2608C591.03 87.3063 591.03 87.3518 591.03 87.3987C591.031 87.8578 591.031 88.3169 591.031 88.7759C591.031 88.9134 591.031 89.0508 591.031 89.1883C591.031 91.2595 591.032 93.3306 591.033 95.4018C591.033 95.4453 591.033 95.4889 591.033 95.5338C591.034 96.447 591.035 97.3602 591.035 98.2734C591.035 98.701 591.036 99.1287 591.036 99.5564C591.036 99.6195 591.036 99.6195 591.036 99.6839C591.037 101.039 591.037 102.394 591.037 103.749C591.037 105.152 591.037 106.555 591.039 107.958C591.039 108.766 591.04 109.575 591.039 110.383C591.039 110.923 591.039 111.464 591.04 112.004C591.04 112.312 591.041 112.619 591.04 112.927C591.039 113.207 591.04 113.488 591.041 113.768C591.041 113.868 591.041 113.969 591.04 114.069C591.036 114.985 591.135 115.886 591.441 116.754C591.46 116.807 591.478 116.861 591.497 116.915C592.217 118.942 593.657 120.553 595.588 121.493C596.601 121.972 597.676 122.277 598.802 122.275C598.856 122.275 598.909 122.275 598.964 122.275C599.142 122.276 599.321 122.276 599.499 122.276C599.628 122.276 599.757 122.276 599.887 122.276C600.242 122.277 600.597 122.277 600.952 122.277C601.335 122.277 601.718 122.277 602.102 122.278C602.983 122.279 603.864 122.279 604.746 122.279C605.182 122.279 605.618 122.28 606.053 122.28C607.546 122.281 609.039 122.281 610.531 122.281C610.625 122.282 610.719 122.282 610.812 122.282C610.906 122.282 611 122.282 611.094 122.282C611.282 122.282 611.471 122.282 611.659 122.282C611.729 122.282 611.729 122.282 611.801 122.282C613.314 122.282 614.828 122.283 616.342 122.284C617.943 122.286 619.544 122.287 621.145 122.287C621.321 122.287 621.497 122.287 621.673 122.287C621.716 122.287 621.76 122.287 621.804 122.287C622.5 122.287 623.196 122.287 623.892 122.288C624.592 122.289 625.292 122.289 625.992 122.289C626.371 122.289 626.75 122.289 627.128 122.29C627.476 122.29 627.823 122.29 628.171 122.29C628.296 122.289 628.421 122.29 628.546 122.29C630.934 122.3 633.015 121.474 634.715 119.793C636.038 118.38 636.888 116.411 636.883 114.466C636.883 114.413 636.883 114.36 636.883 114.306C636.884 114.13 636.884 113.953 636.883 113.777C636.884 113.649 636.884 113.521 636.884 113.393C636.884 113.042 636.885 112.691 636.885 112.34C636.885 111.961 636.885 111.582 636.886 111.204C636.886 110.59 636.887 109.976 636.887 109.362C636.888 108.325 636.889 107.288 636.89 106.251C636.891 105.851 636.891 105.452 636.892 105.053C636.892 105.008 636.892 104.964 636.892 104.918C636.893 103.862 636.895 102.806 636.896 101.75C636.896 101.704 636.896 101.658 636.896 101.61C636.897 100.533 636.898 99.4559 636.899 98.3789C636.899 98.3095 636.899 98.3095 636.899 98.2387C636.899 97.8658 636.899 97.4928 636.9 97.1199C636.901 95.5798 636.902 94.0396 636.905 92.4995C636.905 92.2816 636.905 92.0638 636.906 91.8459C636.906 91.803 636.906 91.7602 636.906 91.716C636.907 91.0282 636.907 90.3403 636.907 89.6525C636.907 88.96 636.908 88.2676 636.91 87.5751C636.91 87.2005 636.911 86.8259 636.91 86.4513C636.91 86.1075 636.911 85.7638 636.912 85.42C636.912 85.2965 636.912 85.1729 636.912 85.0493C636.905 82.5588 637.629 80.4225 639.38 78.6215C640.761 77.2408 642.764 76.335 644.729 76.3253C644.78 76.3253 644.83 76.3254 644.882 76.3254C644.937 76.3253 644.992 76.3251 645.048 76.3249C645.231 76.3244 645.414 76.3243 645.597 76.3242C645.729 76.3239 645.86 76.3236 645.992 76.3233C646.349 76.3225 646.706 76.3221 647.063 76.3218C647.286 76.3216 647.51 76.3214 647.733 76.3211C648.434 76.3203 649.134 76.3197 649.835 76.3194C650.641 76.3192 651.447 76.3181 652.253 76.3163C652.877 76.315 653.502 76.3144 654.127 76.3143C654.499 76.3142 654.871 76.3139 655.244 76.3128C655.594 76.3118 655.945 76.3117 656.296 76.3122C656.424 76.3122 656.552 76.312 656.68 76.3114C659.143 76.3003 661.235 77.0436 663.017 78.7854C664.474 80.2481 665.301 82.3171 665.309 84.3763C665.309 84.425 665.309 84.4738 665.309 84.524C665.309 84.6045 665.309 84.6045 665.309 84.6866C665.31 84.8655 665.31 85.0444 665.31 85.2233C665.31 85.3533 665.31 85.4832 665.31 85.6132C665.311 85.9696 665.311 86.326 665.311 86.6824C665.311 87.0671 665.311 87.4518 665.312 87.8365C665.313 88.7212 665.313 89.606 665.313 90.4907C665.313 90.9284 665.314 91.366 665.314 91.8037C665.315 93.3032 665.315 94.8028 665.316 96.3023C665.316 96.3964 665.316 96.4905 665.316 96.5845C665.316 96.6788 665.316 96.7731 665.316 96.8674C665.316 97.0565 665.316 97.2456 665.316 97.4348C665.316 97.4817 665.316 97.5286 665.316 97.5769C665.316 99.0964 665.317 100.616 665.318 102.135C665.32 103.744 665.321 105.352 665.321 106.96C665.321 107.137 665.321 107.314 665.321 107.491C665.321 107.534 665.321 107.578 665.321 107.623C665.321 108.321 665.322 109.019 665.322 109.718C665.323 110.421 665.323 111.124 665.323 111.827C665.323 112.207 665.323 112.587 665.324 112.968C665.324 113.317 665.324 113.665 665.324 114.014C665.324 114.14 665.324 114.265 665.324 114.391C665.328 115.422 665.272 116.478 664.954 117.467C664.931 117.541 664.931 117.541 664.908 117.617C664.745 118.117 664.519 118.575 664.264 119.034C664.234 119.089 664.204 119.145 664.173 119.202C663.142 121.016 661.384 122.334 659.389 122.904C658.709 123.088 658.038 123.191 657.333 123.19C657.284 123.191 657.234 123.191 657.182 123.191C657.016 123.191 656.851 123.192 656.685 123.192C656.565 123.192 656.446 123.192 656.326 123.193C656.07 123.193 655.813 123.194 655.556 123.194C655.149 123.195 654.742 123.196 654.335 123.197C653.178 123.201 652.021 123.204 650.863 123.206C650.224 123.208 649.584 123.209 648.945 123.212C648.607 123.213 648.269 123.214 647.931 123.214C647.613 123.214 647.294 123.215 646.976 123.217C646.86 123.217 646.744 123.217 646.629 123.217C644.223 123.214 642.12 123.956 640.375 125.641C639.384 126.656 638.721 127.893 638.35 129.255C638.339 129.298 638.327 129.341 638.314 129.386C638.091 130.265 638.077 131.154 638.079 132.054C638.078 132.176 638.078 132.298 638.078 132.42C638.077 132.682 638.077 132.943 638.076 133.204C638.076 133.618 638.075 134.032 638.074 134.446C638.071 135.474 638.069 136.501 638.068 137.529C638.067 138.329 638.065 139.129 638.063 139.929C638.061 140.339 638.061 140.75 638.061 141.16C638.061 141.417 638.06 141.673 638.059 141.93C638.059 142.047 638.059 142.165 638.059 142.283C638.061 143.254 637.982 144.197 637.657 145.119C637.638 145.172 637.62 145.226 637.601 145.281C637.237 146.305 636.709 147.201 635.963 147.996C635.835 148.131 635.835 148.131 635.719 148.284C635.492 148.56 635.203 148.766 634.923 148.985C634.848 149.046 634.848 149.046 634.771 149.107C633.398 150.165 631.676 150.705 629.952 150.701C629.868 150.701 629.868 150.701 629.782 150.701C629.595 150.702 629.408 150.702 629.22 150.702C629.085 150.702 628.949 150.702 628.813 150.702C628.441 150.703 628.068 150.703 627.695 150.703C627.334 150.703 626.974 150.703 626.613 150.704C625.647 150.705 624.68 150.705 623.714 150.705C623.257 150.705 622.799 150.706 622.342 150.706C620.775 150.707 619.208 150.707 617.641 150.707C617.542 150.708 617.444 150.708 617.346 150.708C617.247 150.708 617.149 150.708 617.05 150.708C616.852 150.708 616.655 150.708 616.457 150.708C616.408 150.708 616.359 150.708 616.309 150.708C614.72 150.708 613.132 150.709 611.543 150.71C609.863 150.712 608.182 150.713 606.501 150.713C606.316 150.713 606.131 150.713 605.947 150.713C605.901 150.713 605.856 150.713 605.809 150.713C605.079 150.713 604.349 150.713 603.619 150.714C602.884 150.715 602.149 150.715 601.414 150.715C601.017 150.715 600.619 150.715 600.222 150.716C599.857 150.716 599.492 150.716 599.128 150.716C598.996 150.715 598.865 150.716 598.734 150.716C597.555 150.721 596.446 150.609 595.334 150.205C595.272 150.183 595.209 150.16 595.145 150.137C593.101 149.34 591.529 147.738 590.637 145.752C590.252 144.808 590.017 143.803 590.019 142.782C590.018 142.731 590.018 142.68 590.018 142.627C590.018 142.457 590.018 142.287 590.017 142.117C590.017 141.994 590.017 141.872 590.016 141.749C590.016 141.486 590.015 141.223 590.015 140.959C590.014 140.542 590.013 140.124 590.012 139.707C590.008 138.519 590.005 137.332 590.003 136.145C590.001 135.489 590 134.833 589.997 134.177C589.996 133.831 589.995 133.484 589.995 133.138C589.995 132.811 589.994 132.484 589.992 132.158C589.992 132.039 589.992 131.92 589.992 131.801C589.995 129.554 589.373 127.477 587.831 125.805C587.778 125.747 587.726 125.69 587.671 125.63C586.31 124.204 584.366 123.324 582.393 123.237C582.26 123.235 582.127 123.234 581.993 123.235C581.943 123.234 581.892 123.234 581.84 123.234C581.673 123.234 581.505 123.233 581.338 123.233C581.217 123.233 581.096 123.233 580.975 123.232C580.716 123.232 580.456 123.231 580.197 123.231C579.785 123.23 579.374 123.229 578.963 123.228C577.793 123.224 576.624 123.221 575.454 123.219C574.808 123.217 574.161 123.216 573.515 123.213C573.173 123.212 572.832 123.211 572.49 123.211C572.169 123.211 571.847 123.21 571.525 123.208C571.408 123.208 571.291 123.208 571.174 123.208C568.748 123.211 566.673 122.442 564.922 120.731C563.251 119.053 562.627 116.839 562.63 114.526C562.63 114.421 562.63 114.316 562.63 114.211C562.629 113.922 562.629 113.633 562.629 113.344C562.629 113.03 562.629 112.716 562.629 112.401C562.628 111.778 562.628 111.154 562.628 110.531C562.628 109.784 562.628 109.038 562.627 108.291C562.626 106.529 562.626 104.767 562.626 103.005C562.626 102.108 562.625 101.212 562.625 100.315C562.624 97.4378 562.624 94.5606 562.624 91.6834C562.624 91.5459 562.624 91.4085 562.624 91.271C562.624 90.9953 562.623 90.7195 562.623 90.4438C562.623 90.121 562.623 89.7982 562.623 89.4755C562.623 89.3831 562.623 89.2907 562.623 89.1983C562.623 86.2319 562.622 83.2656 562.621 80.2992C562.62 78.1673 562.619 76.0355 562.619 73.9036C562.619 73.8598 562.619 73.8159 562.619 73.7707C562.618 72.8076 562.618 71.8444 562.618 70.8813C562.618 70.5366 562.618 70.1919 562.618 69.8473C562.618 69.7615 562.618 69.6758 562.618 69.59C562.618 68.2254 562.618 66.8607 562.617 65.496C562.616 64.0826 562.616 62.6692 562.616 61.2557C562.616 60.4413 562.616 59.6269 562.615 58.8125C562.615 58.2681 562.615 57.7236 562.615 57.1791C562.616 56.8692 562.616 56.5593 562.615 56.2494C562.609 53.649 562.869 51.2843 564.651 49.25C564.69 49.2025 564.73 49.155 564.77 49.1061C566.109 47.5244 568.341 46.4956 570.41 46.496Z" fill="black"/>
<path d="M636.259 39.2988C636.352 39.2987 636.444 39.2986 636.536 39.2984C636.788 39.2981 637.04 39.2981 637.292 39.2981C637.565 39.2981 637.837 39.2978 638.109 39.2975C638.642 39.297 639.176 39.2968 639.709 39.2968C640.142 39.2968 640.576 39.2967 641.01 39.2965C642.24 39.2959 643.471 39.2956 644.702 39.2957C644.768 39.2957 644.834 39.2957 644.903 39.2957C644.969 39.2957 645.035 39.2957 645.104 39.2957C646.179 39.2957 647.254 39.2951 648.329 39.2943C649.435 39.2934 650.54 39.293 651.645 39.293C652.265 39.2931 652.885 39.2929 653.505 39.2922C654.033 39.2917 654.561 39.2915 655.089 39.292C655.358 39.2922 655.627 39.2922 655.896 39.2916C656.143 39.2912 656.39 39.2912 656.637 39.2918C656.726 39.2919 656.814 39.2918 656.903 39.2914C659.24 39.283 661.227 40.0916 662.922 41.686C662.958 41.7181 662.994 41.7502 663.031 41.7832C664.446 43.0975 665.23 45.1729 665.307 47.0723C665.309 47.2129 665.31 47.3534 665.309 47.494C665.309 47.5736 665.309 47.5736 665.31 47.6549C665.31 47.8309 665.31 48.007 665.31 48.1831C665.31 48.3101 665.31 48.4371 665.311 48.5642C665.311 48.908 665.311 49.2518 665.311 49.5957C665.311 49.8109 665.311 50.0262 665.312 50.2415C665.312 50.9938 665.312 51.746 665.312 52.4983C665.312 53.1974 665.313 53.8965 665.314 54.5956C665.315 55.1975 665.315 55.7994 665.315 56.4013C665.315 56.76 665.315 57.1187 665.316 57.4775C665.316 57.8153 665.316 58.1531 665.316 58.4909C665.316 58.6141 665.316 58.7373 665.316 58.8605C665.319 59.7831 665.296 60.7077 665.046 61.6025C665.033 61.6502 665.02 61.698 665.006 61.7472C664.689 62.8621 664.172 63.8672 663.41 64.744C663.368 64.7939 663.325 64.8439 663.281 64.8953C661.847 66.5387 659.853 67.5172 657.676 67.672C657.381 67.6806 657.085 67.6807 656.79 67.6804C656.701 67.6806 656.612 67.6807 656.523 67.6809C656.281 67.6814 656.038 67.6815 655.795 67.6816C655.532 67.6817 655.27 67.6821 655.008 67.6826C654.553 67.6833 654.099 67.6838 653.644 67.6842C652.925 67.6848 652.206 67.686 651.487 67.6874C651.241 67.6878 650.994 67.6883 650.748 67.6888C650.686 67.6889 650.625 67.689 650.561 67.6891C649.861 67.6904 649.161 67.6915 648.461 67.6926C648.397 67.6927 648.333 67.6928 648.267 67.6929C647.231 67.6945 646.195 67.6957 645.16 67.6967C644.095 67.6977 643.029 67.6995 641.964 67.7018C641.308 67.7033 640.652 67.7041 639.996 67.7042C639.546 67.7044 639.096 67.7052 638.646 67.7065C638.387 67.7072 638.128 67.7076 637.868 67.7073C636.446 67.6944 636.446 67.6944 635.045 67.916C634.994 67.9274 634.943 67.9388 634.89 67.9505C632.941 68.4042 631.167 69.7068 630.104 71.393C629.227 72.8715 628.845 74.3549 628.853 76.0677C628.853 76.1896 628.852 76.3114 628.852 76.4333C628.85 76.7646 628.851 77.0959 628.852 77.4272C628.852 77.7859 628.851 78.1445 628.85 78.5032C628.849 79.1237 628.849 79.7441 628.849 80.3646C628.849 81.0153 628.849 81.666 628.848 82.3168C628.848 82.3574 628.848 82.398 628.848 82.4399C628.847 82.6462 628.847 82.8526 628.847 83.0589C628.845 84.5177 628.843 85.9766 628.843 87.4354C628.843 88.8494 628.842 90.2634 628.84 91.6774C628.84 91.721 628.84 91.7646 628.84 91.8095C628.839 92.8054 628.838 93.8012 628.837 94.7971C628.837 94.8817 628.837 94.9662 628.837 95.0508C628.837 95.1351 628.837 95.2193 628.836 95.3035C628.836 95.3451 628.836 95.3867 628.836 95.4295C628.836 95.638 628.836 95.8465 628.836 96.0551C628.834 97.0335 628.834 98.0119 628.833 98.9903C628.833 99.604 628.833 100.218 628.832 100.831C628.832 101.253 628.832 101.674 628.832 102.095C628.832 102.352 628.832 102.609 628.831 102.865C628.831 102.982 628.831 103.099 628.831 103.216C628.833 105.032 628.833 105.032 628.663 105.847C628.653 105.897 628.642 105.948 628.631 106C628.373 107.173 627.866 108.274 627.115 109.213C627.089 109.246 627.063 109.279 627.036 109.313C625.685 111.003 623.76 112.061 621.613 112.341C621.022 112.404 620.428 112.395 619.834 112.395C619.709 112.395 619.583 112.395 619.458 112.396C619.119 112.397 618.78 112.397 618.441 112.397C618.228 112.397 618.016 112.398 617.803 112.398C617.137 112.399 616.47 112.399 615.804 112.4C615.037 112.4 614.271 112.401 613.505 112.403C612.911 112.404 612.317 112.405 611.722 112.405C611.368 112.405 611.014 112.405 610.66 112.406C610.327 112.407 609.993 112.407 609.66 112.407C609.538 112.407 609.417 112.407 609.296 112.408C607.626 112.416 606.077 112.166 604.606 111.348C604.551 111.318 604.495 111.288 604.438 111.257C602.624 110.226 601.307 108.468 600.737 106.473C600.556 105.807 600.449 105.149 600.45 104.459C600.45 104.406 600.45 104.353 600.45 104.299C600.449 104.122 600.449 103.944 600.45 103.767C600.449 103.639 600.449 103.51 600.449 103.382C600.448 103.029 600.448 102.676 600.448 102.323C600.448 101.942 600.448 101.562 600.447 101.181C600.446 100.305 600.446 99.4296 600.446 98.5538C600.446 98.1208 600.445 97.6877 600.445 97.2546C600.444 95.7712 600.444 94.2878 600.444 92.8044C600.444 92.7113 600.444 92.6182 600.444 92.5251C600.444 92.4318 600.444 92.3385 600.444 92.2452C600.444 92.0581 600.443 91.8709 600.443 91.6837C600.443 91.6373 600.443 91.5909 600.443 91.5431C600.443 90.0392 600.442 88.5354 600.441 87.0315C600.439 85.4403 600.438 83.8491 600.438 82.2579C600.438 82.083 600.438 81.9082 600.438 81.7333C600.438 81.6903 600.438 81.6472 600.438 81.6029C600.438 80.9116 600.438 80.2203 600.437 79.529C600.436 78.8334 600.436 78.1378 600.436 77.4422C600.436 77.0658 600.436 76.6894 600.435 76.3129C600.435 75.9677 600.435 75.6225 600.436 75.2773C600.436 75.153 600.435 75.0287 600.435 74.9044C600.425 72.5415 601.202 70.4373 602.86 68.7242C603.851 67.7684 605.035 67.1082 606.352 66.7113C606.412 66.6931 606.412 66.6931 606.473 66.6745C607.24 66.4551 607.987 66.434 608.778 66.4345C608.896 66.4341 609.014 66.4337 609.132 66.4332C609.386 66.4323 609.639 66.4318 609.893 66.4315C610.295 66.4311 610.697 66.4298 611.099 66.4283C611.953 66.4253 612.807 66.4234 613.661 66.4215C614.581 66.4195 615.502 66.4173 616.422 66.4139C616.82 66.4125 617.219 66.4117 617.617 66.4113C617.866 66.4109 618.116 66.41 618.366 66.4091C618.48 66.4087 618.594 66.4085 618.708 66.4086C621.091 66.4097 623.1 65.9505 624.98 64.439C625.034 64.3955 625.088 64.352 625.144 64.3072C626.423 63.2244 627.286 61.5488 627.622 59.9212C627.632 59.8745 627.642 59.8277 627.652 59.7796C627.811 58.9381 627.795 58.0736 627.796 57.2207C627.796 57.105 627.796 56.9894 627.797 56.8737C627.797 56.6265 627.798 56.3793 627.798 56.132C627.799 55.7402 627.8 55.3483 627.801 54.9564C627.805 53.8426 627.809 52.7288 627.811 51.6151C627.812 50.9985 627.813 50.382 627.816 49.7655C627.817 49.4402 627.818 49.1149 627.818 48.7896C627.818 48.4834 627.819 48.1773 627.821 47.8712C627.821 47.7597 627.822 47.6482 627.821 47.5367C627.82 46.6046 627.914 45.7141 628.221 44.8275C628.239 44.7741 628.257 44.7206 628.276 44.6656C629.003 42.6182 630.533 41.0131 632.47 40.0621C633.679 39.4956 634.932 39.2973 636.259 39.2988Z" fill="black"/>
</svg>
