<svg width="409" height="216" viewBox="0 0 409 216" fill="none" xmlns="http://www.w3.org/2000/svg">
<path d="M172.5 80.5L115.5 131L51.5 52L35 187.5" stroke="#D9D9D9"/>
<path d="M247 80.5L304 131L375.5 24L384.5 187.5" stroke="#D9D9D9"/>
<path d="M72 140C72 129.507 80.5066 121 91 121H133C143.493 121 152 129.507 152 140V140C152 150.493 143.493 159 133 159H91C80.5066 159 72 150.493 72 140V140Z" fill="#FF6400"/>
<path d="M87.82 136.77V144H86.84V136.77H87.82ZM89.68 140.81H87.55V139.96H89.6C90.0067 139.96 90.32 139.857 90.54 139.65C90.76 139.443 90.87 139.15 90.87 138.77C90.87 138.41 90.7533 138.133 90.52 137.94C90.2933 137.74 89.9667 137.64 89.54 137.64H87.38V136.77H89.6C90.3067 136.77 90.86 136.94 91.26 137.28C91.6667 137.62 91.87 138.087 91.87 138.68C91.87 139.127 91.76 139.5 91.54 139.8C91.3267 140.093 91.01 140.307 90.59 140.44V140.31C91.0567 140.423 91.4067 140.63 91.64 140.93C91.88 141.223 92 141.603 92 142.07C92 142.47 91.9067 142.817 91.72 143.11C91.54 143.397 91.2767 143.617 90.93 143.77C90.5833 143.923 90.1733 144 89.7 144H87.38V143.13H89.68C90.1 143.13 90.4233 143.027 90.65 142.82C90.8767 142.613 90.99 142.323 90.99 141.95C90.99 141.59 90.8733 141.31 90.64 141.11C90.4133 140.91 90.0933 140.81 89.68 140.81ZM94.0767 144H93.1367V136.64H94.0767V144ZM95.1905 141.55C95.1905 141.05 95.3005 140.607 95.5205 140.22C95.7405 139.833 96.0405 139.53 96.4205 139.31C96.8071 139.09 97.2471 138.98 97.7405 138.98C98.2338 138.98 98.6705 139.09 99.0505 139.31C99.4305 139.53 99.7305 139.833 99.9505 140.22C100.17 140.607 100.28 141.05 100.28 141.55C100.28 142.05 100.17 142.493 99.9505 142.88C99.7305 143.267 99.4305 143.57 99.0505 143.79C98.6705 144.01 98.2338 144.12 97.7405 144.12C97.2471 144.12 96.8071 144.01 96.4205 143.79C96.0405 143.57 95.7405 143.267 95.5205 142.88C95.3005 142.493 95.1905 142.05 95.1905 141.55ZM96.1405 141.55C96.1405 141.89 96.2071 142.19 96.3405 142.45C96.4805 142.71 96.6705 142.913 96.9105 143.06C97.1505 143.207 97.4271 143.28 97.7405 143.28C98.0538 143.28 98.3305 143.207 98.5705 143.06C98.8105 142.913 98.9971 142.71 99.1305 142.45C99.2705 142.19 99.3405 141.89 99.3405 141.55C99.3405 141.203 99.2705 140.903 99.1305 140.65C98.9971 140.39 98.8105 140.187 98.5705 140.04C98.3305 139.893 98.0538 139.82 97.7405 139.82C97.4271 139.82 97.1505 139.893 96.9105 140.04C96.6705 140.187 96.4805 140.39 96.3405 140.65C96.2071 140.903 96.1405 141.203 96.1405 141.55ZM101.051 141.56C101.051 141.047 101.151 140.597 101.351 140.21C101.558 139.823 101.841 139.52 102.201 139.3C102.561 139.08 102.978 138.97 103.451 138.97C104.064 138.97 104.574 139.133 104.981 139.46C105.388 139.787 105.631 140.22 105.711 140.76H104.771C104.691 140.447 104.534 140.21 104.301 140.05C104.068 139.89 103.794 139.81 103.481 139.81C103.188 139.81 102.928 139.883 102.701 140.03C102.474 140.17 102.298 140.37 102.171 140.63C102.044 140.89 101.981 141.197 101.981 141.55C101.981 141.903 102.041 142.21 102.161 142.47C102.281 142.723 102.451 142.923 102.671 143.07C102.891 143.21 103.148 143.28 103.441 143.28C103.774 143.28 104.061 143.197 104.301 143.03C104.541 142.863 104.701 142.637 104.781 142.35H105.721C105.661 142.703 105.524 143.013 105.311 143.28C105.104 143.54 104.838 143.747 104.511 143.9C104.191 144.047 103.834 144.12 103.441 144.12C102.961 144.12 102.541 144.013 102.181 143.8C101.828 143.587 101.551 143.29 101.351 142.91C101.151 142.523 101.051 142.073 101.051 141.56ZM107.723 144H106.783V136.64H107.723V141.41L109.893 139.11H111.073L109.203 141.06L111.063 144H109.983L108.553 141.74L107.723 142.61V144ZM115.051 144.11C114.364 144.11 113.764 143.957 113.251 143.65C112.738 143.337 112.338 142.903 112.051 142.35C111.764 141.79 111.621 141.137 111.621 140.39C111.621 139.643 111.768 138.99 112.061 138.43C112.354 137.87 112.761 137.433 113.281 137.12C113.808 136.807 114.414 136.65 115.101 136.65C115.648 136.65 116.141 136.753 116.581 136.96C117.021 137.16 117.388 137.443 117.681 137.81C117.974 138.177 118.164 138.607 118.251 139.1H117.201C117.068 138.627 116.811 138.257 116.431 137.99C116.051 137.723 115.598 137.59 115.071 137.59C114.584 137.59 114.158 137.707 113.791 137.94C113.431 138.167 113.151 138.49 112.951 138.91C112.751 139.323 112.651 139.813 112.651 140.38C112.651 140.94 112.751 141.43 112.951 141.85C113.151 142.27 113.434 142.597 113.801 142.83C114.168 143.057 114.591 143.17 115.071 143.17C115.604 143.17 116.064 143.04 116.451 142.78C116.844 142.513 117.108 142.157 117.241 141.71H118.281C118.181 142.19 117.978 142.61 117.671 142.97C117.371 143.33 116.994 143.61 116.541 143.81C116.094 144.01 115.598 144.11 115.051 144.11ZM120.264 143.99H119.324V136.64H120.264V139.86C120.417 139.593 120.637 139.38 120.924 139.22C121.21 139.053 121.544 138.97 121.924 138.97C122.544 138.97 123.007 139.153 123.314 139.52C123.62 139.887 123.774 140.383 123.774 141.01V144H122.834V141.22C122.834 140.887 122.784 140.62 122.684 140.42C122.59 140.213 122.454 140.063 122.274 139.97C122.1 139.877 121.897 139.83 121.664 139.83C121.364 139.83 121.107 139.897 120.894 140.03C120.687 140.163 120.53 140.343 120.424 140.57C120.317 140.797 120.264 141.05 120.264 141.33V143.99ZM126.556 144.12C126.036 144.12 125.626 143.983 125.326 143.71C125.032 143.437 124.886 143.08 124.886 142.64C124.886 142.193 125.046 141.837 125.366 141.57C125.686 141.297 126.132 141.137 126.706 141.09L128.246 140.97V140.83C128.246 140.557 128.196 140.34 128.096 140.18C127.996 140.013 127.859 139.897 127.686 139.83C127.512 139.757 127.316 139.72 127.096 139.72C126.702 139.72 126.396 139.803 126.176 139.97C125.962 140.13 125.856 140.36 125.856 140.66H125.036C125.036 140.32 125.122 140.023 125.296 139.77C125.469 139.517 125.712 139.32 126.026 139.18C126.346 139.04 126.716 138.97 127.136 138.97C127.542 138.97 127.896 139.043 128.196 139.19C128.502 139.33 128.739 139.547 128.906 139.84C129.079 140.127 129.166 140.49 129.166 140.93V144H128.366L128.266 143.21C128.139 143.49 127.919 143.713 127.606 143.88C127.299 144.04 126.949 144.12 126.556 144.12ZM126.826 143.39C127.272 143.39 127.622 143.257 127.876 142.99C128.129 142.717 128.256 142.35 128.256 141.89V141.63L127.006 141.73C126.592 141.77 126.292 141.867 126.106 142.02C125.926 142.173 125.836 142.37 125.836 142.61C125.836 142.87 125.922 143.067 126.096 143.2C126.276 143.327 126.519 143.39 126.826 143.39ZM130.518 144V139.11H131.458V144H130.518ZM130.978 137.95C130.811 137.95 130.664 137.89 130.538 137.77C130.418 137.643 130.358 137.497 130.358 137.33C130.358 137.157 130.418 137.01 130.538 136.89C130.664 136.77 130.811 136.71 130.978 136.71C131.151 136.71 131.298 136.77 131.418 136.89C131.538 137.01 131.598 137.157 131.598 137.33C131.598 137.497 131.538 137.643 131.418 137.77C131.298 137.89 131.151 137.95 130.978 137.95ZM133.812 144H132.872V139.11H133.722L133.822 139.86C133.976 139.58 134.196 139.363 134.482 139.21C134.776 139.05 135.096 138.97 135.442 138.97C136.082 138.97 136.556 139.153 136.862 139.52C137.169 139.887 137.322 140.383 137.322 141.01V144H136.382V141.22C136.382 140.727 136.276 140.373 136.062 140.16C135.849 139.94 135.562 139.83 135.202 139.83C134.762 139.83 134.419 139.973 134.172 140.26C133.932 140.547 133.812 140.93 133.812 141.41V144Z" fill="white"/>
<path d="M11 42C11 31.5066 19.5066 23 30 23H68C78.4934 23 87 31.5066 87 42C87 52.4934 78.4934 61 68 61H30C19.5066 61 11 52.4934 11 42Z" fill="#74FF6B"/>
<path d="M26.82 38.77V46H25.84V38.77H26.82ZM29.336 46H28.396V41.11H29.246L29.346 41.86C29.4993 41.58 29.7193 41.3633 30.006 41.21C30.2993 41.05 30.6193 40.97 30.966 40.97C31.606 40.97 32.0793 41.1533 32.386 41.52C32.6927 41.8867 32.846 42.3833 32.846 43.01V46H31.906V43.22C31.906 42.7267 31.7993 42.3733 31.586 42.16C31.3727 41.94 31.086 41.83 30.726 41.83C30.286 41.83 29.9427 41.9733 29.696 42.26C29.456 42.5467 29.336 42.93 29.336 43.41V46ZM35.138 46H34.198V41.11H35.048L35.148 41.86C35.3013 41.58 35.5213 41.3633 35.808 41.21C36.1013 41.05 36.4213 40.97 36.768 40.97C37.408 40.97 37.8813 41.1533 38.188 41.52C38.4946 41.8867 38.648 42.3833 38.648 43.01V46H37.708V43.22C37.708 42.7267 37.6013 42.3733 37.388 42.16C37.1746 41.94 36.888 41.83 36.528 41.83C36.088 41.83 35.7446 41.9733 35.498 42.26C35.258 42.5467 35.138 42.93 35.138 43.41V46ZM39.6799 43.55C39.6799 43.05 39.7899 42.6067 40.0099 42.22C40.2299 41.8333 40.5299 41.53 40.9099 41.31C41.2966 41.09 41.7366 40.98 42.2299 40.98C42.7233 40.98 43.1599 41.09 43.5399 41.31C43.9199 41.53 44.2199 41.8333 44.4399 42.22C44.6599 42.6067 44.7699 43.05 44.7699 43.55C44.7699 44.05 44.6599 44.4933 44.4399 44.88C44.2199 45.2667 43.9199 45.57 43.5399 45.79C43.1599 46.01 42.7233 46.12 42.2299 46.12C41.7366 46.12 41.2966 46.01 40.9099 45.79C40.5299 45.57 40.2299 45.2667 40.0099 44.88C39.7899 44.4933 39.6799 44.05 39.6799 43.55ZM40.6299 43.55C40.6299 43.89 40.6966 44.19 40.8299 44.45C40.9699 44.71 41.1599 44.9133 41.3999 45.06C41.6399 45.2067 41.9166 45.28 42.2299 45.28C42.5433 45.28 42.8199 45.2067 43.0599 45.06C43.2999 44.9133 43.4866 44.71 43.6199 44.45C43.7599 44.19 43.8299 43.89 43.8299 43.55C43.8299 43.2033 43.7599 42.9033 43.6199 42.65C43.4866 42.39 43.2999 42.1867 43.0599 42.04C42.8199 41.8933 42.5433 41.82 42.2299 41.82C41.9166 41.82 41.6399 41.8933 41.3999 42.04C41.1599 42.1867 40.9699 42.39 40.8299 42.65C40.6966 42.9033 40.6299 43.2033 40.6299 43.55ZM47.0059 46L45.0359 41.11H46.0359L47.1059 43.84C47.1925 44.0667 47.2692 44.2833 47.3359 44.49C47.4025 44.69 47.4559 44.8633 47.4959 45.01C47.5425 44.8433 47.5992 44.66 47.6659 44.46C47.7392 44.26 47.8192 44.0533 47.9059 43.84L48.9959 41.11H49.9759L47.9359 46H47.0059ZM51.9791 46.12C51.4591 46.12 51.0491 45.9833 50.7491 45.71C50.4558 45.4367 50.3091 45.08 50.3091 44.64C50.3091 44.1933 50.4691 43.8367 50.7891 43.57C51.1091 43.2967 51.5558 43.1367 52.1291 43.09L53.6691 42.97V42.83C53.6691 42.5567 53.6191 42.34 53.5191 42.18C53.4191 42.0133 53.2825 41.8967 53.1091 41.83C52.9358 41.7567 52.7391 41.72 52.5191 41.72C52.1258 41.72 51.8191 41.8033 51.5991 41.97C51.3858 42.13 51.2791 42.36 51.2791 42.66H50.4591C50.4591 42.32 50.5458 42.0233 50.7191 41.77C50.8925 41.5167 51.1358 41.32 51.4491 41.18C51.7691 41.04 52.1391 40.97 52.5591 40.97C52.9658 40.97 53.3191 41.0433 53.6191 41.19C53.9258 41.33 54.1625 41.5467 54.3291 41.84C54.5025 42.1267 54.5891 42.49 54.5891 42.93V46H53.7891L53.6891 45.21C53.5625 45.49 53.3425 45.7133 53.0291 45.88C52.7225 46.04 52.3725 46.12 51.9791 46.12ZM52.2491 45.39C52.6958 45.39 53.0458 45.2567 53.2991 44.99C53.5525 44.7167 53.6791 44.35 53.6791 43.89V43.63L52.4291 43.73C52.0158 43.77 51.7158 43.8667 51.5291 44.02C51.3491 44.1733 51.2591 44.37 51.2591 44.61C51.2591 44.87 51.3458 45.0667 51.5191 45.2C51.6991 45.3267 51.9425 45.39 52.2491 45.39ZM55.3428 41.11H58.2028V41.9H55.3428V41.11ZM57.2428 46H56.3028V39.58H57.2428V46ZM59.0964 46V41.11H60.0364V46H59.0964ZM59.5564 39.95C59.3897 39.95 59.2431 39.89 59.1164 39.77C58.9964 39.6433 58.9364 39.4967 58.9364 39.33C58.9364 39.1567 58.9964 39.01 59.1164 38.89C59.2431 38.77 59.3897 38.71 59.5564 38.71C59.7297 38.71 59.8764 38.77 59.9964 38.89C60.1164 39.01 60.1764 39.1567 60.1764 39.33C60.1764 39.4967 60.1164 39.6433 59.9964 39.77C59.8764 39.89 59.7297 39.95 59.5564 39.95ZM61.1311 43.55C61.1311 43.05 61.2411 42.6067 61.4611 42.22C61.6811 41.8333 61.9811 41.53 62.3611 41.31C62.7478 41.09 63.1878 40.98 63.6811 40.98C64.1744 40.98 64.6111 41.09 64.9911 41.31C65.3711 41.53 65.6711 41.8333 65.8911 42.22C66.1111 42.6067 66.2211 43.05 66.2211 43.55C66.2211 44.05 66.1111 44.4933 65.8911 44.88C65.6711 45.2667 65.3711 45.57 64.9911 45.79C64.6111 46.01 64.1744 46.12 63.6811 46.12C63.1878 46.12 62.7478 46.01 62.3611 45.79C61.9811 45.57 61.6811 45.2667 61.4611 44.88C61.2411 44.4933 61.1311 44.05 61.1311 43.55ZM62.0811 43.55C62.0811 43.89 62.1478 44.19 62.2811 44.45C62.4211 44.71 62.6111 44.9133 62.8511 45.06C63.0911 45.2067 63.3678 45.28 63.6811 45.28C63.9944 45.28 64.2711 45.2067 64.5111 45.06C64.7511 44.9133 64.9378 44.71 65.0711 44.45C65.2111 44.19 65.2811 43.89 65.2811 43.55C65.2811 43.2033 65.2111 42.9033 65.0711 42.65C64.9378 42.39 64.7511 42.1867 64.5111 42.04C64.2711 41.8933 63.9944 41.82 63.6811 41.82C63.3678 41.82 63.0911 41.8933 62.8511 42.04C62.6111 42.1867 62.4211 42.39 62.2811 42.65C62.1478 42.9033 62.0811 43.2033 62.0811 43.55ZM68.2516 46H67.3116V41.11H68.1616L68.2616 41.86C68.415 41.58 68.635 41.3633 68.9216 41.21C69.215 41.05 69.535 40.97 69.8816 40.97C70.5216 40.97 70.995 41.1533 71.3016 41.52C71.6083 41.8867 71.7616 42.3833 71.7616 43.01V46H70.8216V43.22C70.8216 42.7267 70.715 42.3733 70.5016 42.16C70.2883 41.94 70.0016 41.83 69.6416 41.83C69.2016 41.83 68.8583 41.9733 68.6116 42.26C68.3716 42.5467 68.2516 42.93 68.2516 43.41V46Z" fill="white"/>
<path d="M265 132C265 121.507 273.507 113 284 113H313C323.493 113 332 121.507 332 132C332 142.493 323.493 151 313 151H284C273.507 151 265 142.493 265 132Z" fill="#FF6400"/>
<path d="M279.42 130.72C279.42 130.307 279.523 129.943 279.73 129.63C279.937 129.317 280.227 129.073 280.6 128.9C280.98 128.727 281.417 128.64 281.91 128.64C282.37 128.64 282.77 128.723 283.11 128.89C283.457 129.05 283.727 129.28 283.92 129.58C284.12 129.88 284.233 130.24 284.26 130.66H283.27C283.243 130.3 283.11 130.02 282.87 129.82C282.63 129.62 282.307 129.52 281.9 129.52C281.447 129.52 281.083 129.627 280.81 129.84C280.537 130.047 280.4 130.33 280.4 130.69C280.4 130.983 280.483 131.22 280.65 131.4C280.817 131.573 281.07 131.7 281.41 131.78L282.6 132.06C283.193 132.193 283.637 132.423 283.93 132.75C284.23 133.07 284.38 133.483 284.38 133.99C284.38 134.423 284.273 134.8 284.06 135.12C283.853 135.44 283.557 135.687 283.17 135.86C282.79 136.033 282.343 136.12 281.83 136.12C281.343 136.12 280.913 136.04 280.54 135.88C280.173 135.713 279.883 135.48 279.67 135.18C279.463 134.873 279.347 134.517 279.32 134.11H280.32C280.327 134.457 280.467 134.733 280.74 134.94C281.013 135.14 281.377 135.24 281.83 135.24C282.31 135.24 282.69 135.133 282.97 134.92C283.257 134.707 283.4 134.423 283.4 134.07C283.4 133.783 283.32 133.55 283.16 133.37C283 133.19 282.747 133.06 282.4 132.98L281.21 132.71C280.623 132.577 280.177 132.343 279.87 132.01C279.57 131.67 279.42 131.24 279.42 130.72ZM288.881 131.11H289.811V136H288.971L288.871 135.26C288.731 135.513 288.511 135.72 288.211 135.88C287.911 136.04 287.581 136.12 287.221 136.12C286.655 136.12 286.215 135.943 285.901 135.59C285.595 135.23 285.441 134.75 285.441 134.15V131.11H286.381V133.84C286.381 134.36 286.485 134.733 286.691 134.96C286.905 135.18 287.191 135.29 287.551 135.29C287.985 135.29 288.315 135.157 288.541 134.89C288.768 134.617 288.881 134.217 288.881 133.69V131.11ZM292.165 136H291.225V131.11H292.065L292.195 132.01L292.075 131.93C292.175 131.657 292.359 131.43 292.625 131.25C292.899 131.063 293.229 130.97 293.615 130.97C294.049 130.97 294.409 131.087 294.695 131.32C294.982 131.553 295.169 131.863 295.255 132.25H295.085C295.152 131.863 295.335 131.553 295.635 131.32C295.935 131.087 296.305 130.97 296.745 130.97C297.305 130.97 297.745 131.133 298.065 131.46C298.385 131.787 298.545 132.233 298.545 132.8V136H297.625V133.03C297.625 132.643 297.525 132.347 297.325 132.14C297.132 131.927 296.869 131.82 296.535 131.82C296.302 131.82 296.095 131.873 295.915 131.98C295.742 132.08 295.605 132.227 295.505 132.42C295.405 132.613 295.355 132.84 295.355 133.1V136H294.425V133.02C294.425 132.633 294.329 132.34 294.135 132.14C293.942 131.933 293.679 131.83 293.345 131.83C293.112 131.83 292.905 131.883 292.725 131.99C292.552 132.09 292.415 132.237 292.315 132.43C292.215 132.617 292.165 132.84 292.165 133.1V136ZM300.838 136H299.898V131.11H300.738L300.868 132.01L300.748 131.93C300.848 131.657 301.032 131.43 301.298 131.25C301.572 131.063 301.902 130.97 302.288 130.97C302.722 130.97 303.082 131.087 303.368 131.32C303.655 131.553 303.842 131.863 303.928 132.25H303.758C303.825 131.863 304.008 131.553 304.308 131.32C304.608 131.087 304.978 130.97 305.418 130.97C305.978 130.97 306.418 131.133 306.738 131.46C307.058 131.787 307.218 132.233 307.218 132.8V136H306.298V133.03C306.298 132.643 306.198 132.347 305.998 132.14C305.805 131.927 305.542 131.82 305.208 131.82C304.975 131.82 304.768 131.873 304.588 131.98C304.415 132.08 304.278 132.227 304.178 132.42C304.078 132.613 304.028 132.84 304.028 133.1V136H303.098V133.02C303.098 132.633 303.002 132.34 302.808 132.14C302.615 131.933 302.352 131.83 302.018 131.83C301.785 131.83 301.578 131.883 301.398 131.99C301.225 132.09 301.088 132.237 300.988 132.43C300.888 132.617 300.838 132.84 300.838 133.1V136ZM310.681 136.12C310.208 136.12 309.788 136.013 309.421 135.8C309.055 135.58 308.768 135.28 308.561 134.9C308.355 134.513 308.251 134.067 308.251 133.56C308.251 133.047 308.351 132.597 308.551 132.21C308.758 131.823 309.038 131.52 309.391 131.3C309.751 131.08 310.168 130.97 310.641 130.97C311.108 130.97 311.511 131.07 311.851 131.27C312.198 131.47 312.465 131.75 312.651 132.11C312.845 132.47 312.941 132.893 312.941 133.38V133.73L308.751 133.74L308.771 133.11H312.001C312.001 132.703 311.878 132.377 311.631 132.13C311.385 131.883 311.055 131.76 310.641 131.76C310.328 131.76 310.058 131.83 309.831 131.97C309.611 132.103 309.441 132.303 309.321 132.57C309.208 132.83 309.151 133.143 309.151 133.51C309.151 134.097 309.285 134.55 309.551 134.87C309.818 135.183 310.201 135.34 310.701 135.34C311.068 135.34 311.368 135.267 311.601 135.12C311.835 134.973 311.991 134.76 312.071 134.48H312.951C312.831 135 312.575 135.403 312.181 135.69C311.788 135.977 311.288 136.12 310.681 136.12ZM316.841 131.07V131.93H316.421C315.975 131.93 315.621 132.06 315.361 132.32C315.108 132.573 314.981 132.937 314.981 133.41V136H314.041V131.12H314.921L315.001 132.1H314.911C314.978 131.78 315.138 131.52 315.391 131.32C315.645 131.113 315.961 131.01 316.341 131.01C316.428 131.01 316.508 131.017 316.581 131.03C316.661 131.037 316.748 131.05 316.841 131.07Z" fill="white"/>
<path d="M339 19C339 8.50659 347.507 0 358 0H383C393.493 0 402 8.50659 402 19C402 29.4934 393.493 38 383 38H358C347.507 38 339 29.4934 339 19Z" fill="#003223"/>
<path d="M354.82 23H353.84V15.77H354.82V18.88H358.4V15.77H359.38V23H358.4V19.79H354.82V23ZM360.627 20.55C360.627 20.05 360.737 19.6067 360.957 19.22C361.177 18.8333 361.477 18.53 361.857 18.31C362.243 18.09 362.683 17.98 363.177 17.98C363.67 17.98 364.107 18.09 364.487 18.31C364.867 18.53 365.167 18.8333 365.387 19.22C365.607 19.6067 365.717 20.05 365.717 20.55C365.717 21.05 365.607 21.4933 365.387 21.88C365.167 22.2667 364.867 22.57 364.487 22.79C364.107 23.01 363.67 23.12 363.177 23.12C362.683 23.12 362.243 23.01 361.857 22.79C361.477 22.57 361.177 22.2667 360.957 21.88C360.737 21.4933 360.627 21.05 360.627 20.55ZM361.577 20.55C361.577 20.89 361.643 21.19 361.777 21.45C361.917 21.71 362.107 21.9133 362.347 22.06C362.587 22.2067 362.863 22.28 363.177 22.28C363.49 22.28 363.767 22.2067 364.007 22.06C364.247 21.9133 364.433 21.71 364.567 21.45C364.707 21.19 364.777 20.89 364.777 20.55C364.777 20.2033 364.707 19.9033 364.567 19.65C364.433 19.39 364.247 19.1867 364.007 19.04C363.767 18.8933 363.49 18.82 363.177 18.82C362.863 18.82 362.587 18.8933 362.347 19.04C362.107 19.1867 361.917 19.39 361.777 19.65C361.643 19.9033 361.577 20.2033 361.577 20.55ZM367.767 23H366.827V15.64H367.767V23ZM369.201 23V18.11H370.141V23H369.201ZM369.661 16.95C369.494 16.95 369.348 16.89 369.221 16.77C369.101 16.6433 369.041 16.4967 369.041 16.33C369.041 16.1567 369.101 16.01 369.221 15.89C369.348 15.77 369.494 15.71 369.661 15.71C369.834 15.71 369.981 15.77 370.101 15.89C370.221 16.01 370.281 16.1567 370.281 16.33C370.281 16.4967 370.221 16.6433 370.101 16.77C369.981 16.89 369.834 16.95 369.661 16.95ZM373.516 23.12C373.042 23.12 372.636 23.0133 372.296 22.8C371.956 22.58 371.692 22.2767 371.506 21.89C371.326 21.5033 371.236 21.0633 371.236 20.57C371.236 20.07 371.329 19.6267 371.516 19.24C371.702 18.8467 371.969 18.5367 372.316 18.31C372.662 18.0833 373.076 17.97 373.556 17.97C373.936 17.97 374.272 18.05 374.566 18.21C374.866 18.3633 375.099 18.5933 375.266 18.9V15.64H376.196V23H375.356L375.276 22.11C375.116 22.4367 374.879 22.6867 374.566 22.86C374.259 23.0333 373.909 23.12 373.516 23.12ZM373.706 22.27C374.026 22.27 374.299 22.1967 374.526 22.05C374.759 21.9033 374.939 21.7 375.066 21.44C375.192 21.18 375.256 20.88 375.256 20.54C375.256 20.2 375.192 19.9033 375.066 19.65C374.939 19.39 374.759 19.1867 374.526 19.04C374.299 18.8933 374.026 18.82 373.706 18.82C373.386 18.82 373.112 18.8967 372.886 19.05C372.659 19.1967 372.486 19.4 372.366 19.66C372.246 19.9133 372.186 20.2067 372.186 20.54C372.186 20.88 372.246 21.18 372.366 21.44C372.486 21.7 372.659 21.9033 372.886 22.05C373.112 22.1967 373.386 22.27 373.706 22.27ZM379.032 23.12C378.512 23.12 378.102 22.9833 377.802 22.71C377.509 22.4367 377.362 22.08 377.362 21.64C377.362 21.1933 377.522 20.8367 377.842 20.57C378.162 20.2967 378.609 20.1367 379.182 20.09L380.722 19.97V19.83C380.722 19.5567 380.672 19.34 380.572 19.18C380.472 19.0133 380.335 18.8967 380.162 18.83C379.989 18.7567 379.792 18.72 379.572 18.72C379.179 18.72 378.872 18.8033 378.652 18.97C378.439 19.13 378.332 19.36 378.332 19.66H377.512C377.512 19.32 377.599 19.0233 377.772 18.77C377.945 18.5167 378.189 18.32 378.502 18.18C378.822 18.04 379.192 17.97 379.612 17.97C380.019 17.97 380.372 18.0433 380.672 18.19C380.979 18.33 381.215 18.5467 381.382 18.84C381.555 19.1267 381.642 19.49 381.642 19.93V23H380.842L380.742 22.21C380.615 22.49 380.395 22.7133 380.082 22.88C379.775 23.04 379.425 23.12 379.032 23.12ZM379.302 22.39C379.749 22.39 380.099 22.2567 380.352 21.99C380.605 21.7167 380.732 21.35 380.732 20.89V20.63L379.482 20.73C379.069 20.77 378.769 20.8667 378.582 21.02C378.402 21.1733 378.312 21.37 378.312 21.61C378.312 21.87 378.399 22.0667 378.572 22.2C378.752 22.3267 378.995 22.39 379.302 22.39ZM383.266 18.11L384.986 22.87L384.406 23.67L382.276 18.11H383.266ZM382.406 25.19V24.42H383.036C383.19 24.42 383.33 24.4033 383.456 24.37C383.583 24.3433 383.7 24.28 383.806 24.18C383.913 24.0867 384.003 23.9367 384.076 23.73L386.136 18.11H387.106L384.796 24.1C384.63 24.52 384.42 24.8233 384.166 25.01C383.913 25.1967 383.6 25.29 383.226 25.29C383.073 25.29 382.93 25.28 382.796 25.26C382.663 25.2467 382.533 25.2233 382.406 25.19Z" fill="white"/>
<path d="M335 188C335 177.507 343.507 169 354 169H390C400.493 169 409 177.507 409 188C409 198.493 400.493 207 390 207H354C343.507 207 335 198.493 335 188Z" fill="#74FF6B"/>
<path d="M350.8 192H349.84V184.77H350.8L353.29 190.85L355.78 184.77H356.76V192H355.8V189.14C355.8 188.8 355.8 188.51 355.8 188.27C355.8 188.03 355.803 187.823 355.81 187.65C355.817 187.477 355.823 187.323 355.83 187.19C355.837 187.05 355.847 186.917 355.86 186.79L353.75 192H352.83L350.73 186.81C350.757 186.983 350.773 187.25 350.78 187.61C350.793 187.97 350.8 188.403 350.8 188.91V192ZM358.334 192V187.11H359.274V192H358.334ZM358.794 185.95C358.627 185.95 358.48 185.89 358.354 185.77C358.234 185.643 358.174 185.497 358.174 185.33C358.174 185.157 358.234 185.01 358.354 184.89C358.48 184.77 358.627 184.71 358.794 184.71C358.967 184.71 359.114 184.77 359.234 184.89C359.354 185.01 359.414 185.157 359.414 185.33C359.414 185.497 359.354 185.643 359.234 185.77C359.114 185.89 358.967 185.95 358.794 185.95ZM361.628 192H360.688V187.11H361.538L361.638 187.86C361.792 187.58 362.012 187.363 362.298 187.21C362.592 187.05 362.912 186.97 363.258 186.97C363.898 186.97 364.372 187.153 364.678 187.52C364.985 187.887 365.138 188.383 365.138 189.01V192H364.198V189.22C364.198 188.727 364.092 188.373 363.878 188.16C363.665 187.94 363.378 187.83 363.018 187.83C362.578 187.83 362.235 187.973 361.988 188.26C361.748 188.547 361.628 188.93 361.628 189.41V192ZM366.49 192V187.11H367.43V192H366.49ZM366.95 185.95C366.783 185.95 366.637 185.89 366.51 185.77C366.39 185.643 366.33 185.497 366.33 185.33C366.33 185.157 366.39 185.01 366.51 184.89C366.637 184.77 366.783 184.71 366.95 184.71C367.123 184.71 367.27 184.77 367.39 184.89C367.51 185.01 367.57 185.157 367.57 185.33C367.57 185.497 367.51 185.643 367.39 185.77C367.27 185.89 367.123 185.95 366.95 185.95ZM369.785 192H368.845V187.11H369.685L369.815 188.01L369.695 187.93C369.795 187.657 369.978 187.43 370.245 187.25C370.518 187.063 370.848 186.97 371.235 186.97C371.668 186.97 372.028 187.087 372.315 187.32C372.602 187.553 372.788 187.863 372.875 188.25H372.705C372.772 187.863 372.955 187.553 373.255 187.32C373.555 187.087 373.925 186.97 374.365 186.97C374.925 186.97 375.365 187.133 375.685 187.46C376.005 187.787 376.165 188.233 376.165 188.8V192H375.245V189.03C375.245 188.643 375.145 188.347 374.945 188.14C374.752 187.927 374.488 187.82 374.155 187.82C373.922 187.82 373.715 187.873 373.535 187.98C373.362 188.08 373.225 188.227 373.125 188.42C373.025 188.613 372.975 188.84 372.975 189.1V192H372.045V189.02C372.045 188.633 371.948 188.34 371.755 188.14C371.562 187.933 371.298 187.83 370.965 187.83C370.732 187.83 370.525 187.883 370.345 187.99C370.172 188.09 370.035 188.237 369.935 188.43C369.835 188.617 369.785 188.84 369.785 189.1V192ZM378.948 192.12C378.428 192.12 378.018 191.983 377.718 191.71C377.425 191.437 377.278 191.08 377.278 190.64C377.278 190.193 377.438 189.837 377.758 189.57C378.078 189.297 378.525 189.137 379.098 189.09L380.638 188.97V188.83C380.638 188.557 380.588 188.34 380.488 188.18C380.388 188.013 380.251 187.897 380.078 187.83C379.905 187.757 379.708 187.72 379.488 187.72C379.095 187.72 378.788 187.803 378.568 187.97C378.355 188.13 378.248 188.36 378.248 188.66H377.428C377.428 188.32 377.515 188.023 377.688 187.77C377.861 187.517 378.105 187.32 378.418 187.18C378.738 187.04 379.108 186.97 379.528 186.97C379.935 186.97 380.288 187.043 380.588 187.19C380.895 187.33 381.131 187.547 381.298 187.84C381.471 188.127 381.558 188.49 381.558 188.93V192H380.758L380.658 191.21C380.531 191.49 380.311 191.713 379.998 191.88C379.691 192.04 379.341 192.12 378.948 192.12ZM379.218 191.39C379.665 191.39 380.015 191.257 380.268 190.99C380.521 190.717 380.648 190.35 380.648 189.89V189.63L379.398 189.73C378.985 189.77 378.685 189.867 378.498 190.02C378.318 190.173 378.228 190.37 378.228 190.61C378.228 190.87 378.315 191.067 378.488 191.2C378.668 191.327 378.911 191.39 379.218 191.39ZM383.87 192H382.93V184.64H383.87V192ZM385.303 192V187.11H386.243V192H385.303ZM385.763 185.95C385.597 185.95 385.45 185.89 385.323 185.77C385.203 185.643 385.143 185.497 385.143 185.33C385.143 185.157 385.203 185.01 385.323 184.89C385.45 184.77 385.597 184.71 385.763 184.71C385.937 184.71 386.083 184.77 386.203 184.89C386.323 185.01 386.383 185.157 386.383 185.33C386.383 185.497 386.323 185.643 386.203 185.77C386.083 185.89 385.937 185.95 385.763 185.95ZM387.258 190.58H388.158C388.158 190.827 388.248 191.023 388.428 191.17C388.608 191.31 388.851 191.38 389.158 191.38C389.491 191.38 389.748 191.317 389.928 191.19C390.108 191.057 390.198 190.88 390.198 190.66C390.198 190.5 390.148 190.367 390.048 190.26C389.955 190.153 389.781 190.067 389.528 190L388.668 189.8C388.235 189.693 387.911 189.53 387.698 189.31C387.491 189.09 387.388 188.8 387.388 188.44C387.388 188.14 387.465 187.88 387.618 187.66C387.778 187.44 387.995 187.27 388.268 187.15C388.548 187.03 388.868 186.97 389.228 186.97C389.588 186.97 389.898 187.033 390.158 187.16C390.425 187.287 390.631 187.463 390.778 187.69C390.931 187.917 391.011 188.187 391.018 188.5H390.118C390.111 188.247 390.028 188.05 389.868 187.91C389.708 187.77 389.485 187.7 389.198 187.7C388.905 187.7 388.678 187.763 388.518 187.89C388.358 188.017 388.278 188.19 388.278 188.41C388.278 188.737 388.518 188.96 388.998 189.08L389.858 189.29C390.271 189.383 390.581 189.537 390.788 189.75C390.995 189.957 391.098 190.24 391.098 190.6C391.098 190.907 391.015 191.177 390.848 191.41C390.681 191.637 390.451 191.813 390.158 191.94C389.871 192.06 389.531 192.12 389.138 192.12C388.565 192.12 388.108 191.98 387.768 191.7C387.428 191.42 387.258 191.047 387.258 190.58ZM391.671 187.11H394.531V187.9H391.671V187.11ZM393.571 192H392.631V185.58H393.571V192Z" fill="white"/>
<path d="M181.416 41.1941C181.472 41.1939 181.472 41.1939 181.528 41.1937C181.652 41.1933 181.776 41.1931 181.9 41.1929C181.989 41.1927 182.078 41.1924 182.167 41.1922C182.459 41.1913 182.751 41.1909 183.043 41.1905C183.144 41.1903 183.245 41.1902 183.345 41.19C183.765 41.1893 184.185 41.1887 184.604 41.1885C184.713 41.1884 184.822 41.1883 184.931 41.1882C184.958 41.1882 184.985 41.1882 185.013 41.1882C185.449 41.1878 185.886 41.1868 186.323 41.1855C186.772 41.1842 187.222 41.1835 187.672 41.1833C187.924 41.1833 188.176 41.1829 188.428 41.1819C188.665 41.181 188.902 41.1808 189.14 41.1812C189.227 41.1812 189.313 41.181 189.4 41.1804C190.93 41.1712 192.323 41.6991 193.419 42.7779C194.055 43.4263 194.517 44.2668 194.752 45.1425C194.76 45.1713 194.768 45.2 194.776 45.2296C194.908 45.755 194.932 46.2782 194.93 46.8165C194.93 46.8852 194.93 46.9539 194.93 47.0226C194.931 47.2106 194.931 47.3985 194.93 47.5865C194.93 47.7913 194.931 47.9961 194.931 48.2009C194.931 48.5595 194.931 48.9182 194.931 49.2769C194.931 49.8102 194.931 50.3436 194.931 50.877C194.932 51.7469 194.932 52.6168 194.932 53.4867C194.932 54.4032 194.932 55.3197 194.933 56.2362C194.933 56.2638 194.933 56.2915 194.933 56.32C194.933 56.6288 194.933 56.9377 194.934 57.2465C194.934 57.8177 194.934 58.3889 194.935 58.9601C194.935 58.9887 194.935 59.0173 194.935 59.0467C194.935 60.4063 194.936 61.7659 194.936 63.1254C194.937 63.2156 194.937 63.3058 194.937 63.396C194.937 64.7548 194.937 66.1137 194.938 67.4725C194.938 67.6234 194.938 67.7743 194.938 67.9251C194.938 67.955 194.938 67.9848 194.938 68.0156C194.938 68.3166 194.938 68.6176 194.938 68.9187C194.938 69.0088 194.938 69.0989 194.938 69.1891C194.939 70.5472 194.939 71.9054 194.94 73.2635C194.94 73.2921 194.94 73.3206 194.94 73.35C194.94 73.9489 194.941 74.5477 194.941 75.1465C194.941 75.4269 194.941 75.7074 194.942 75.9878C194.942 76.0292 194.942 76.0292 194.942 76.0715C194.942 76.96 194.942 77.8485 194.942 78.737C194.942 79.6569 194.943 80.5769 194.943 81.4968C194.944 82.027 194.944 82.5571 194.944 83.0872C194.943 83.4415 194.944 83.7958 194.944 84.1501C194.944 84.3518 194.945 84.5536 194.944 84.7553C194.944 84.9392 194.944 85.1231 194.945 85.307C194.945 85.3728 194.945 85.4385 194.944 85.5043C194.942 86.1047 195.007 86.6954 195.207 87.265C195.219 87.2999 195.232 87.3348 195.244 87.3708C195.716 88.6996 196.66 89.756 197.927 90.3722C198.591 90.6863 199.295 90.8869 200.034 90.8853C200.069 90.8854 200.104 90.8855 200.14 90.8855C200.257 90.8858 200.374 90.8857 200.491 90.8856C200.576 90.8857 200.661 90.8859 200.745 90.886C200.978 90.8863 201.211 90.8864 201.444 90.8864C201.695 90.8865 201.946 90.8868 202.198 90.8871C202.776 90.8876 203.354 90.8879 203.932 90.8881C204.217 90.8882 204.503 90.8883 204.789 90.8885C205.768 90.889 206.747 90.8894 207.725 90.8895C207.787 90.8895 207.848 90.8895 207.91 90.8896C207.971 90.8896 208.033 90.8896 208.094 90.8896C208.218 90.8896 208.341 90.8896 208.465 90.8896C208.511 90.8896 208.511 90.8896 208.558 90.8897C209.55 90.8898 210.543 90.8904 211.535 90.8914C212.585 90.8923 213.635 90.8929 214.685 90.8929C214.801 90.893 214.916 90.893 215.031 90.893C215.06 90.893 215.088 90.893 215.117 90.893C215.574 90.893 216.03 90.8935 216.486 90.8941C216.945 90.8946 217.404 90.8947 217.863 90.8944C218.112 90.8943 218.36 90.8943 218.609 90.8949C218.837 90.8954 219.064 90.8953 219.292 90.8949C219.374 90.8948 219.456 90.8949 219.538 90.8952C221.104 90.9015 222.469 90.3603 223.583 89.2577C224.451 88.3309 225.008 87.0402 225.005 85.7644C225.005 85.7298 225.005 85.6953 225.005 85.6597C225.006 85.544 225.006 85.4284 225.005 85.3127C225.006 85.2289 225.006 85.1451 225.006 85.0613C225.006 84.831 225.006 84.6008 225.006 84.3705C225.006 84.1221 225.007 83.8738 225.007 83.6254C225.007 83.2228 225.008 82.8203 225.008 82.4177C225.008 81.7377 225.009 81.0576 225.01 80.3776C225.01 80.1157 225.011 79.8538 225.011 79.5919C225.011 79.5628 225.011 79.5337 225.011 79.5037C225.012 78.8112 225.013 78.1187 225.013 77.4262C225.014 77.3959 225.014 77.3656 225.014 77.3344C225.014 76.6282 225.015 75.922 225.016 75.2157C225.016 75.1702 225.016 75.1702 225.016 75.1238C225.016 74.8792 225.016 74.6347 225.016 74.3901C225.017 73.3802 225.018 72.3703 225.019 71.3604C225.02 71.2175 225.02 71.0746 225.02 70.9318C225.02 70.9037 225.02 70.8756 225.02 70.8466C225.021 70.3955 225.021 69.9445 225.021 69.4935C225.021 69.0394 225.022 68.5853 225.023 68.1313C225.023 67.8856 225.023 67.64 225.023 67.3943C225.023 67.1689 225.023 66.9435 225.024 66.7181C225.024 66.637 225.024 66.556 225.024 66.475C225.019 64.8419 225.494 63.441 226.642 62.26C227.548 61.3547 228.862 60.7607 230.15 60.7543C230.183 60.7543 230.216 60.7544 230.25 60.7544C230.286 60.7543 230.322 60.7542 230.36 60.7541C230.479 60.7537 230.599 60.7536 230.719 60.7536C230.806 60.7534 230.892 60.7532 230.978 60.753C231.212 60.7525 231.446 60.7522 231.681 60.752C231.827 60.7519 231.974 60.7517 232.12 60.7516C232.579 60.751 233.039 60.7506 233.498 60.7505C234.027 60.7503 234.555 60.7496 235.084 60.7484C235.493 60.7476 235.903 60.7472 236.312 60.7471C236.557 60.7471 236.801 60.7468 237.045 60.7461C237.275 60.7455 237.505 60.7454 237.735 60.7457C237.819 60.7458 237.903 60.7456 237.987 60.7452C239.602 60.738 240.973 61.2253 242.142 62.3675C243.098 63.3266 243.64 64.6834 243.645 66.0337C243.645 66.0656 243.645 66.0976 243.645 66.1305C243.645 66.1833 243.645 66.1833 243.645 66.2371C243.646 66.3545 243.646 66.4718 243.646 66.5891C243.646 66.6743 243.646 66.7595 243.646 66.8447C243.646 67.0784 243.646 67.3122 243.646 67.5459C243.646 67.7981 243.647 68.0504 243.647 68.3026C243.648 68.8828 243.648 69.463 243.648 70.0431C243.648 70.3301 243.648 70.6171 243.648 70.9041C243.649 71.8874 243.649 72.8707 243.649 73.854C243.649 73.9157 243.649 73.9774 243.65 74.0391C243.65 74.1009 243.65 74.1627 243.65 74.2245C243.65 74.3486 243.65 74.4726 243.65 74.5966C243.65 74.6273 243.65 74.6581 243.65 74.6898C243.65 75.6862 243.65 76.6826 243.651 77.679C243.652 78.7337 243.653 79.7883 243.653 80.8429C243.653 80.9588 243.653 81.0748 243.653 81.1907C243.653 81.2192 243.653 81.2478 243.653 81.2772C243.653 81.7352 243.653 82.1931 243.654 82.6511C243.655 83.112 243.655 83.573 243.654 84.0339C243.654 84.2833 243.654 84.5327 243.655 84.7821C243.655 85.0109 243.655 85.2397 243.655 85.4685C243.655 85.5508 243.655 85.633 243.655 85.7153C243.658 86.3917 243.621 87.0837 243.412 87.7325C243.397 87.7812 243.397 87.7812 243.382 87.8308C243.275 88.1586 243.127 88.4593 242.96 88.76C242.94 88.7964 242.921 88.8327 242.9 88.8702C242.224 90.0598 241.071 90.9238 239.763 91.2974C239.317 91.4184 238.877 91.4862 238.415 91.4855C238.383 91.4857 238.35 91.4858 238.316 91.4859C238.207 91.4862 238.099 91.4863 237.99 91.4863C237.912 91.4865 237.833 91.4867 237.755 91.487C237.587 91.4874 237.418 91.4877 237.25 91.488C236.983 91.4884 236.716 91.4892 236.449 91.4901C235.69 91.4926 234.932 91.4948 234.173 91.4961C233.753 91.4968 233.334 91.498 232.914 91.4996C232.693 91.5004 232.471 91.5011 232.25 91.5012C232.041 91.5012 231.832 91.5019 231.624 91.5029C231.548 91.5032 231.472 91.5033 231.396 91.5032C229.818 91.5008 228.439 91.9877 227.295 93.0925C226.645 93.7582 226.211 94.5693 225.967 95.4625C225.96 95.4908 225.952 95.519 225.944 95.5481C225.797 96.1243 225.788 96.7073 225.789 97.2977C225.789 97.3778 225.789 97.4579 225.788 97.538C225.788 97.7092 225.788 97.8805 225.788 98.0517C225.788 98.3232 225.787 98.5946 225.786 98.866C225.784 99.5401 225.783 100.214 225.782 100.888C225.781 101.413 225.781 101.937 225.779 102.461C225.778 102.731 225.778 103 225.778 103.269C225.778 103.437 225.777 103.605 225.776 103.774C225.776 103.851 225.776 103.928 225.776 104.005C225.778 104.642 225.726 105.26 225.512 105.865C225.5 105.9 225.488 105.935 225.476 105.971C225.237 106.643 224.891 107.23 224.402 107.751C224.318 107.84 224.318 107.84 224.242 107.941C224.093 108.121 223.904 108.256 223.72 108.4C223.671 108.44 223.671 108.44 223.62 108.48C222.72 109.174 221.591 109.528 220.46 109.525C220.405 109.525 220.405 109.525 220.349 109.526C220.226 109.526 220.103 109.526 219.981 109.526C219.892 109.526 219.803 109.526 219.714 109.526C219.469 109.526 219.225 109.526 218.98 109.526C218.744 109.527 218.507 109.527 218.271 109.527C217.637 109.528 217.004 109.528 216.37 109.528C216.07 109.528 215.77 109.528 215.47 109.528C214.442 109.529 213.415 109.529 212.387 109.53C212.323 109.53 212.258 109.53 212.194 109.53C212.129 109.53 212.065 109.53 212 109.53C211.87 109.53 211.741 109.53 211.611 109.53C211.579 109.53 211.547 109.53 211.514 109.53C210.472 109.53 209.431 109.53 208.389 109.531C207.287 109.532 206.185 109.533 205.082 109.533C204.961 109.533 204.84 109.533 204.719 109.533C204.689 109.533 204.659 109.533 204.629 109.533C204.15 109.533 203.671 109.533 203.192 109.534C202.711 109.535 202.229 109.535 201.747 109.534C201.486 109.534 201.226 109.534 200.965 109.535C200.726 109.535 200.487 109.535 200.248 109.535C200.161 109.535 200.075 109.535 199.989 109.535C199.216 109.538 198.489 109.465 197.76 109.2C197.719 109.185 197.678 109.171 197.636 109.155C196.296 108.633 195.265 107.583 194.68 106.28C194.428 105.661 194.274 105.002 194.274 104.333C194.274 104.299 194.274 104.266 194.274 104.231C194.274 104.119 194.274 104.008 194.274 103.896C194.273 103.816 194.273 103.736 194.273 103.655C194.273 103.483 194.272 103.31 194.272 103.137C194.272 102.863 194.271 102.59 194.27 102.316C194.267 101.537 194.265 100.759 194.264 99.9804C194.263 99.5502 194.262 99.1201 194.26 98.6899C194.26 98.4627 194.259 98.2355 194.259 98.0083C194.259 97.7941 194.258 97.5799 194.257 97.3657C194.257 97.2877 194.257 97.2097 194.257 97.1318C194.259 95.6585 193.851 94.2965 192.84 93.2C192.805 93.1622 192.771 93.1243 192.735 93.0853C191.842 92.1502 190.568 91.5732 189.274 91.5163C189.187 91.5148 189.099 91.5144 189.012 91.5145C188.979 91.5144 188.946 91.5143 188.912 91.5142C188.802 91.5138 188.692 91.5138 188.582 91.5137C188.503 91.5135 188.424 91.5133 188.344 91.5131C188.174 91.5127 188.004 91.5123 187.834 91.5121C187.564 91.5116 187.294 91.5108 187.025 91.5099C186.258 91.5075 185.491 91.5053 184.724 91.504C184.3 91.5032 183.876 91.5021 183.452 91.5005C183.228 91.4996 183.004 91.499 182.781 91.4989C182.57 91.4988 182.359 91.4982 182.148 91.4971C182.071 91.4968 181.994 91.4968 181.917 91.4969C180.326 91.4993 178.966 90.9946 177.817 89.8725C176.722 88.7727 176.313 87.3205 176.315 85.8041C176.315 85.7352 176.315 85.6663 176.314 85.5974C176.314 85.4079 176.314 85.2184 176.314 85.029C176.314 84.8229 176.314 84.6168 176.314 84.4107C176.314 84.0019 176.314 83.5931 176.314 83.1843C176.314 82.6947 176.313 82.205 176.313 81.7153C176.312 80.56 176.312 79.4046 176.312 78.2492C176.312 77.6612 176.312 77.0733 176.312 76.4853C176.311 74.5986 176.311 72.7119 176.31 70.8252C176.31 70.7351 176.31 70.6449 176.31 70.5548C176.31 70.374 176.31 70.1932 176.31 70.0124C176.31 69.8007 176.31 69.589 176.31 69.3774C176.31 69.3168 176.31 69.2562 176.31 69.1956C176.31 67.2505 176.31 65.3053 176.309 63.3601C176.308 61.9622 176.307 60.5643 176.307 59.1664C176.307 59.1376 176.307 59.1088 176.307 59.0792C176.307 58.4476 176.307 57.816 176.307 57.1845C176.307 56.9584 176.307 56.7324 176.307 56.5064C176.307 56.4502 176.307 56.394 176.307 56.3378C176.307 55.4429 176.307 54.548 176.306 53.6532C176.305 52.7263 176.305 51.7995 176.306 50.8726C176.306 50.3386 176.306 49.8046 176.305 49.2706C176.305 48.9135 176.305 48.5565 176.305 48.1995C176.305 47.9962 176.305 47.793 176.305 47.5898C176.301 45.8846 176.472 44.334 177.64 43C177.666 42.9689 177.692 42.9377 177.718 42.9057C178.596 41.8685 180.06 41.1938 181.416 41.1941Z" fill="black"/>
<path d="M224.596 36.4747C224.657 36.4746 224.717 36.4745 224.778 36.4744C224.943 36.4741 225.108 36.4741 225.273 36.4742C225.452 36.4742 225.631 36.474 225.809 36.4738C226.159 36.4735 226.509 36.4733 226.858 36.4733C227.143 36.4733 227.427 36.4732 227.711 36.4731C228.518 36.4727 229.325 36.4726 230.132 36.4726C230.176 36.4726 230.219 36.4726 230.264 36.4726C230.308 36.4726 230.351 36.4726 230.396 36.4726C231.101 36.4726 231.806 36.4722 232.511 36.4717C233.236 36.4711 233.96 36.4708 234.685 36.4709C235.092 36.4709 235.498 36.4708 235.905 36.4703C236.251 36.47 236.597 36.4699 236.943 36.4701C237.12 36.4703 237.296 36.4703 237.473 36.4699C237.635 36.4696 237.797 36.4697 237.959 36.47C238.017 36.4701 238.075 36.47 238.133 36.4698C239.665 36.4643 240.968 36.9945 242.08 38.04C242.104 38.061 242.127 38.0821 242.152 38.1038C243.079 38.9656 243.593 40.3265 243.644 41.572C243.645 41.6642 243.646 41.7563 243.645 41.8485C243.645 41.9007 243.645 41.9007 243.646 41.954C243.646 42.0695 243.646 42.1849 243.646 42.3004C243.646 42.3837 243.646 42.467 243.646 42.5503C243.647 42.7757 243.647 43.0012 243.647 43.2267C243.647 43.3678 243.647 43.509 243.647 43.6502C243.647 44.1435 243.647 44.6368 243.647 45.1301C243.647 45.5885 243.648 46.0469 243.648 46.5053C243.649 46.9 243.649 47.2947 243.649 47.6894C243.649 47.9246 243.649 48.1598 243.65 48.3951C243.65 48.6166 243.65 48.8381 243.65 49.0596C243.65 49.1404 243.65 49.2212 243.65 49.302C243.652 49.907 243.636 50.5133 243.473 51.1C243.464 51.1313 243.455 51.1626 243.447 51.1949C243.238 51.926 242.9 52.585 242.4 53.16C242.372 53.1928 242.344 53.2255 242.315 53.2592C241.375 54.3369 240.067 54.9785 238.64 55.08C238.446 55.0857 238.253 55.0857 238.059 55.0855C238.001 55.0856 237.942 55.0857 237.884 55.0859C237.725 55.0862 237.566 55.0862 237.406 55.0863C237.234 55.0863 237.062 55.0867 236.89 55.0869C236.592 55.0874 236.294 55.0877 235.996 55.088C235.525 55.0884 235.053 55.0892 234.582 55.0901C234.42 55.0904 234.258 55.0907 234.097 55.091C234.057 55.0911 234.016 55.0911 233.975 55.0912C233.516 55.0921 233.056 55.0928 232.597 55.0935C232.555 55.0936 232.513 55.0937 232.47 55.0937C231.791 55.0948 231.112 55.0955 230.432 55.0962C229.734 55.0969 229.036 55.098 228.337 55.0996C227.907 55.1005 227.477 55.1011 227.047 55.1012C226.751 55.1012 226.456 55.1018 226.161 55.1026C225.991 55.1031 225.821 55.1034 225.651 55.1031C224.719 55.0947 224.719 55.0947 223.8 55.24C223.766 55.2475 223.733 55.2549 223.698 55.2626C222.42 55.5601 221.257 56.4143 220.56 57.52C219.985 58.4895 219.734 59.4623 219.74 60.5854C219.739 60.6653 219.739 60.7452 219.739 60.8251C219.738 61.0424 219.738 61.2596 219.739 61.4768C219.739 61.712 219.738 61.9473 219.738 62.1825C219.737 62.5893 219.737 62.9962 219.737 63.403C219.737 63.8297 219.737 64.2564 219.736 64.6831C219.736 64.7098 219.736 64.7364 219.736 64.7639C219.736 64.8992 219.736 65.0345 219.736 65.1698C219.734 66.1264 219.733 67.083 219.733 68.0396C219.733 68.9668 219.732 69.8941 219.731 70.8213C219.731 70.8499 219.731 70.8784 219.731 70.9079C219.731 71.5609 219.73 72.2139 219.729 72.867C219.729 72.9224 219.729 72.9779 219.729 73.0333C219.729 73.0886 219.729 73.1438 219.729 73.1991C219.729 73.2263 219.729 73.2536 219.729 73.2817C219.729 73.4184 219.728 73.5551 219.728 73.6919C219.727 74.3334 219.727 74.975 219.727 75.6166C219.727 76.019 219.726 76.4214 219.726 76.8238C219.726 77.1001 219.726 77.3764 219.726 77.6527C219.726 77.8209 219.726 77.9892 219.725 78.1575C219.725 78.2341 219.725 78.3107 219.725 78.3873C219.726 79.5783 219.726 79.5783 219.615 80.1125C219.608 80.1457 219.601 80.1788 219.594 80.213C219.425 80.9825 219.092 81.7043 218.6 82.32C218.583 82.3416 218.566 82.3632 218.548 82.3854C217.662 83.4941 216.4 84.1875 214.992 84.3715C214.604 84.4127 214.215 84.4062 213.826 84.4064C213.743 84.4066 213.661 84.4068 213.579 84.4071C213.357 84.4076 213.134 84.4078 212.912 84.408C212.773 84.4081 212.633 84.4083 212.494 84.4085C212.057 84.409 211.62 84.4094 211.183 84.4096C210.68 84.4097 210.178 84.4104 209.676 84.4116C209.286 84.4125 208.896 84.4129 208.506 84.4129C208.274 84.413 208.042 84.4132 207.81 84.4139C207.591 84.4146 207.373 84.4147 207.154 84.4143C207.074 84.4143 206.995 84.4144 206.915 84.4148C205.82 84.42 204.805 84.2561 203.84 83.72C203.804 83.7003 203.767 83.6806 203.73 83.6603C202.54 82.9844 201.676 81.8316 201.303 80.5235C201.184 80.0867 201.114 79.6551 201.115 79.2028C201.115 79.1681 201.115 79.1333 201.115 79.0976C201.114 78.9813 201.114 78.8651 201.114 78.7489C201.114 78.6646 201.114 78.5804 201.114 78.4962C201.114 78.2648 201.114 78.0334 201.114 77.802C201.114 77.5524 201.113 77.3028 201.113 77.0532C201.112 76.4789 201.112 75.9046 201.112 75.3304C201.112 75.0464 201.112 74.7624 201.112 74.4784C201.111 73.5057 201.111 72.533 201.111 71.5602C201.11 71.4992 201.11 71.4382 201.11 71.3771C201.11 71.316 201.11 71.2548 201.11 71.1936C201.11 71.0709 201.11 70.9481 201.11 70.8254C201.11 70.795 201.11 70.7646 201.11 70.7332C201.11 69.7471 201.11 68.7609 201.109 67.7748C201.108 66.7314 201.107 65.6879 201.107 64.6445C201.107 64.5299 201.107 64.4152 201.107 64.3005C201.107 64.2723 201.107 64.2441 201.107 64.215C201.107 63.7617 201.107 63.3084 201.106 62.8551C201.105 62.399 201.105 61.9428 201.106 61.4867C201.106 61.2399 201.106 60.993 201.105 60.7462C201.105 60.5198 201.105 60.2934 201.105 60.0671C201.105 59.9856 201.105 59.904 201.105 59.8225C201.099 58.2731 201.608 56.8933 202.695 55.77C203.345 55.1432 204.121 54.7103 204.985 54.45C205.024 54.4381 205.024 54.4381 205.065 54.4259C205.567 54.282 206.057 54.2682 206.576 54.2685C206.653 54.2683 206.731 54.268 206.808 54.2677C206.974 54.2671 207.14 54.2668 207.307 54.2666C207.57 54.2663 207.834 54.2654 208.097 54.2645C208.657 54.2625 209.217 54.2612 209.778 54.26C210.381 54.2587 210.985 54.2572 211.588 54.255C211.849 54.2541 212.111 54.2536 212.372 54.2533C212.535 54.2531 212.699 54.2525 212.863 54.2518C212.937 54.2516 213.012 54.2515 213.087 54.2516C214.65 54.2523 215.967 53.9512 217.2 52.96C217.236 52.9315 217.271 52.903 217.308 52.8736C218.146 52.1636 218.712 51.0648 218.933 49.9975C218.939 49.9669 218.945 49.9362 218.952 49.9047C219.056 49.3529 219.046 48.7859 219.046 48.2267C219.047 48.1508 219.047 48.075 219.047 47.9992C219.047 47.8371 219.048 47.6749 219.048 47.5128C219.048 47.2558 219.049 46.9989 219.05 46.7419C219.053 46.0116 219.055 45.2812 219.056 44.5509C219.057 44.1466 219.058 43.7423 219.06 43.338C219.06 43.1247 219.061 42.9114 219.061 42.6981C219.061 42.4974 219.062 42.2966 219.063 42.0959C219.063 42.0228 219.063 41.9496 219.063 41.8765C219.062 41.2653 219.124 40.6814 219.325 40.1C219.337 40.065 219.349 40.0299 219.361 39.9938C219.838 38.6513 220.841 37.5987 222.111 36.9752C222.904 36.6037 223.726 36.4736 224.596 36.4747Z" fill="black"/>
<path d="M0 197C0 186.507 8.50659 178 19 178H45C55.4934 178 64 186.507 64 197C64 207.493 55.4934 216 45 216H19C8.50659 216 0 207.493 0 197Z" fill="#FFD60A"/>
<path d="M15.8 201H14.84V193.77H15.8L18.29 199.85L20.78 193.77H21.76V201H20.8V198.14C20.8 197.8 20.8 197.51 20.8 197.27C20.8 197.03 20.8033 196.823 20.81 196.65C20.8167 196.477 20.8233 196.323 20.83 196.19C20.8367 196.05 20.8467 195.917 20.86 195.79L18.75 201H17.83L15.73 195.81C15.7567 195.983 15.7733 196.25 15.78 196.61C15.7933 196.97 15.8 197.403 15.8 197.91V201ZM23.0135 198.55C23.0135 198.05 23.1235 197.607 23.3435 197.22C23.5635 196.833 23.8635 196.53 24.2435 196.31C24.6302 196.09 25.0702 195.98 25.5635 195.98C26.0568 195.98 26.4935 196.09 26.8735 196.31C27.2535 196.53 27.5535 196.833 27.7735 197.22C27.9935 197.607 28.1035 198.05 28.1035 198.55C28.1035 199.05 27.9935 199.493 27.7735 199.88C27.5535 200.267 27.2535 200.57 26.8735 200.79C26.4935 201.01 26.0568 201.12 25.5635 201.12C25.0702 201.12 24.6302 201.01 24.2435 200.79C23.8635 200.57 23.5635 200.267 23.3435 199.88C23.1235 199.493 23.0135 199.05 23.0135 198.55ZM23.9635 198.55C23.9635 198.89 24.0302 199.19 24.1635 199.45C24.3035 199.71 24.4935 199.913 24.7335 200.06C24.9735 200.207 25.2502 200.28 25.5635 200.28C25.8768 200.28 26.1535 200.207 26.3935 200.06C26.6335 199.913 26.8202 199.71 26.9535 199.45C27.0935 199.19 27.1635 198.89 27.1635 198.55C27.1635 198.203 27.0935 197.903 26.9535 197.65C26.8202 197.39 26.6335 197.187 26.3935 197.04C26.1535 196.893 25.8768 196.82 25.5635 196.82C25.2502 196.82 24.9735 196.893 24.7335 197.04C24.4935 197.187 24.3035 197.39 24.1635 197.65C24.0302 197.903 23.9635 198.203 23.9635 198.55ZM31.1541 201.12C30.6807 201.12 30.2741 201.013 29.9341 200.8C29.5941 200.58 29.3307 200.277 29.1441 199.89C28.9641 199.503 28.8741 199.063 28.8741 198.57C28.8741 198.07 28.9674 197.627 29.1541 197.24C29.3407 196.847 29.6074 196.537 29.9541 196.31C30.3007 196.083 30.7141 195.97 31.1941 195.97C31.5741 195.97 31.9107 196.05 32.2041 196.21C32.5041 196.363 32.7374 196.593 32.9041 196.9V193.64H33.8341V201H32.9941L32.9141 200.11C32.7541 200.437 32.5174 200.687 32.2041 200.86C31.8974 201.033 31.5474 201.12 31.1541 201.12ZM31.3441 200.27C31.6641 200.27 31.9374 200.197 32.1641 200.05C32.3974 199.903 32.5774 199.7 32.7041 199.44C32.8307 199.18 32.8941 198.88 32.8941 198.54C32.8941 198.2 32.8307 197.903 32.7041 197.65C32.5774 197.39 32.3974 197.187 32.1641 197.04C31.9374 196.893 31.6641 196.82 31.3441 196.82C31.0241 196.82 30.7507 196.897 30.5241 197.05C30.2974 197.197 30.1241 197.4 30.0041 197.66C29.8841 197.913 29.8241 198.207 29.8241 198.54C29.8241 198.88 29.8841 199.18 30.0041 199.44C30.1241 199.7 30.2974 199.903 30.5241 200.05C30.7507 200.197 31.0241 200.27 31.3441 200.27ZM37.3502 201.12C36.8768 201.12 36.4568 201.013 36.0902 200.8C35.7235 200.58 35.4368 200.28 35.2302 199.9C35.0235 199.513 34.9202 199.067 34.9202 198.56C34.9202 198.047 35.0202 197.597 35.2202 197.21C35.4268 196.823 35.7068 196.52 36.0602 196.3C36.4202 196.08 36.8368 195.97 37.3102 195.97C37.7768 195.97 38.1802 196.07 38.5202 196.27C38.8668 196.47 39.1335 196.75 39.3202 197.11C39.5135 197.47 39.6102 197.893 39.6102 198.38V198.73L35.4202 198.74L35.4402 198.11H38.6702C38.6702 197.703 38.5468 197.377 38.3002 197.13C38.0535 196.883 37.7235 196.76 37.3102 196.76C36.9968 196.76 36.7268 196.83 36.5002 196.97C36.2802 197.103 36.1102 197.303 35.9902 197.57C35.8768 197.83 35.8202 198.143 35.8202 198.51C35.8202 199.097 35.9535 199.55 36.2202 199.87C36.4868 200.183 36.8702 200.34 37.3702 200.34C37.7368 200.34 38.0368 200.267 38.2702 200.12C38.5035 199.973 38.6602 199.76 38.7402 199.48H39.6202C39.5002 200 39.2435 200.403 38.8502 200.69C38.4568 200.977 37.9568 201.12 37.3502 201.12ZM43.5101 196.07V196.93H43.0901C42.6434 196.93 42.2901 197.06 42.0301 197.32C41.7767 197.573 41.6501 197.937 41.6501 198.41V201H40.7101V196.12H41.5901L41.6701 197.1H41.5801C41.6467 196.78 41.8067 196.52 42.0601 196.32C42.3134 196.113 42.6301 196.01 43.0101 196.01C43.0967 196.01 43.1767 196.017 43.2501 196.03C43.3301 196.037 43.4167 196.05 43.5101 196.07ZM45.3817 201H44.4417V196.11H45.2917L45.3917 196.86C45.5451 196.58 45.7651 196.363 46.0517 196.21C46.3451 196.05 46.6651 195.97 47.0117 195.97C47.6517 195.97 48.1251 196.153 48.4317 196.52C48.7384 196.887 48.8917 197.383 48.8917 198.01V201H47.9517V198.22C47.9517 197.727 47.8451 197.373 47.6317 197.16C47.4184 196.94 47.1317 196.83 46.7717 196.83C46.3317 196.83 45.9884 196.973 45.7417 197.26C45.5017 197.547 45.3817 197.93 45.3817 198.41V201Z" fill="white"/>
</svg>
