<svg width="233" height="71" viewBox="0 0 233 71" fill="none" xmlns="http://www.w3.org/2000/svg">
<path d="M196.173 21.5004C306.082 5.80225 125.953 8.92175 22.1494 12.4438C4.22978 12.4438 -15.6806 11.689 26.9281 1.50037" stroke="#6EC93E" stroke-width="3" stroke-linecap="round"/>
<g filter="url(#filter0_d_278_316)">
<circle cx="193.5" cy="25.5004" r="10" fill="#024330"/>
<circle cx="193.5" cy="25.5004" r="8.5" stroke="#7BC84F" stroke-width="3"/>
</g>
<g filter="url(#filter1_d_278_316)">
<path d="M203.177 52.8929L195.878 32.2319C194.993 29.7257 197.563 27.3913 199.973 28.5128L219.034 37.3845C221.443 38.5057 221.313 41.9735 218.827 42.9113L212.932 45.1354C212.136 45.4354 211.506 46.0588 211.196 46.8507L208.8 52.9853C207.788 55.575 204.103 55.5144 203.177 52.8929Z" fill="#077000"/>
<path d="M203.177 52.8929L195.878 32.2319C194.993 29.7257 197.563 27.3913 199.973 28.5128L219.034 37.3845C221.443 38.5057 221.313 41.9735 218.827 42.9113L212.932 45.1354C212.136 45.4354 211.506 46.0588 211.196 46.8507L208.8 52.9853C207.788 55.575 204.103 55.5144 203.177 52.8929Z" stroke="#024330" stroke-width="3" stroke-linecap="round"/>
</g>
<defs>
<filter id="filter0_d_278_316" x="177.5" y="13.5004" width="32" height="32" filterUnits="userSpaceOnUse" color-interpolation-filters="sRGB">
<feFlood flood-opacity="0" result="BackgroundImageFix"/>
<feColorMatrix in="SourceAlpha" type="matrix" values="0 0 0 0 0 0 0 0 0 0 0 0 0 0 0 0 0 0 127 0" result="hardAlpha"/>
<feOffset dy="4"/>
<feGaussianBlur stdDeviation="3"/>
<feComposite in2="hardAlpha" operator="out"/>
<feColorMatrix type="matrix" values="0 0 0 0 0 0 0 0 0 0 0 0 0 0 0 0 0 0 0.25 0"/>
<feBlend mode="normal" in2="BackgroundImageFix" result="effect1_dropShadow_278_316"/>
<feBlend mode="normal" in="SourceGraphic" in2="effect1_dropShadow_278_316" result="shape"/>
</filter>
<filter id="filter1_d_278_316" x="184.196" y="20.7195" width="48.0728" height="49.6743" filterUnits="userSpaceOnUse" color-interpolation-filters="sRGB">
<feFlood flood-opacity="0" result="BackgroundImageFix"/>
<feColorMatrix in="SourceAlpha" type="matrix" values="0 0 0 0 0 0 0 0 0 0 0 0 0 0 0 0 0 0 127 0" result="hardAlpha"/>
<feOffset dy="4"/>
<feGaussianBlur stdDeviation="5"/>
<feComposite in2="hardAlpha" operator="out"/>
<feColorMatrix type="matrix" values="0 0 0 0 0 0 0 0 0 0 0 0 0 0 0 0 0 0 0.25 0"/>
<feBlend mode="normal" in2="BackgroundImageFix" result="effect1_dropShadow_278_316"/>
<feBlend mode="normal" in="SourceGraphic" in2="effect1_dropShadow_278_316" result="shape"/>
</filter>
</defs>
</svg>
