<svg width="105" height="45" viewBox="0 0 105 45" fill="none" xmlns="http://www.w3.org/2000/svg">
<path d="M81.7593 15.0002C127.355 4.01156 52.6287 6.19521 9.56616 8.66062C2.13224 8.66062 -6.12755 8.13232 11.5486 1.00024" stroke="#6EC93E" stroke-width="2" stroke-linecap="round"/>
<g filter="url(#filter0_d_306_226)">
<circle cx="81.1485" cy="15.1487" r="4.14847" fill="#024330"/>
<circle cx="81.1485" cy="15.1487" r="3.64847" stroke="#7BC84F"/>
</g>
<g filter="url(#filter1_d_306_226)">
<path d="M84.3794 27.5947L82.3485 21.7541C81.475 19.2421 84.06 16.9199 86.4644 18.0567L91.6775 20.5215C94.0555 21.6459 93.8841 25.0882 91.4279 26.0295C90.6685 26.3205 90.0606 26.923 89.7687 27.6821C88.8089 30.1781 85.2577 30.1205 84.3794 27.5947Z" fill="#077000"/>
<path d="M81.876 21.9182C80.8572 18.9877 83.8728 16.2788 86.6777 17.6047L91.8916 20.0696C94.6812 21.3888 94.459 25.4032 91.6064 26.4963C90.9781 26.7373 90.4758 27.2363 90.2354 27.8616C89.1083 30.7923 84.9386 30.7247 83.9072 27.759L81.876 21.9182Z" stroke="#024330" stroke-linecap="round"/>
</g>
<defs>
<filter id="filter0_d_306_226" x="71" y="9.00024" width="20.2969" height="20.2969" filterUnits="userSpaceOnUse" color-interpolation-filters="sRGB">
<feFlood flood-opacity="0" result="BackgroundImageFix"/>
<feColorMatrix in="SourceAlpha" type="matrix" values="0 0 0 0 0 0 0 0 0 0 0 0 0 0 0 0 0 0 127 0" result="hardAlpha"/>
<feOffset dy="4"/>
<feGaussianBlur stdDeviation="3"/>
<feComposite in2="hardAlpha" operator="out"/>
<feColorMatrix type="matrix" values="0 0 0 0 0 0 0 0 0 0 0 0 0 0 0 0 0 0 0.25 0"/>
<feBlend mode="normal" in2="BackgroundImageFix" result="effect1_dropShadow_306_226"/>
<feBlend mode="normal" in="SourceGraphic" in2="effect1_dropShadow_306_226" result="shape"/>
</filter>
<filter id="filter1_d_306_226" x="71.1724" y="10.757" width="33.1973" height="33.765" filterUnits="userSpaceOnUse" color-interpolation-filters="sRGB">
<feFlood flood-opacity="0" result="BackgroundImageFix"/>
<feColorMatrix in="SourceAlpha" type="matrix" values="0 0 0 0 0 0 0 0 0 0 0 0 0 0 0 0 0 0 127 0" result="hardAlpha"/>
<feOffset dy="4"/>
<feGaussianBlur stdDeviation="5"/>
<feComposite in2="hardAlpha" operator="out"/>
<feColorMatrix type="matrix" values="0 0 0 0 0 0 0 0 0 0 0 0 0 0 0 0 0 0 0.25 0"/>
<feBlend mode="normal" in2="BackgroundImageFix" result="effect1_dropShadow_306_226"/>
<feBlend mode="normal" in="SourceGraphic" in2="effect1_dropShadow_306_226" result="shape"/>
</filter>
</defs>
</svg>
