<svg width="220" height="43" viewBox="0 0 220 43" fill="none" xmlns="http://www.w3.org/2000/svg">
<path d="M48 21.5C48 33.3741 37.8357 43 25.2973 43C12.759 43 2.5946 33.3741 2.5946 21.5C2.5946 9.62588 12.759 0 25.2973 0C37.8357 0 48 9.62588 48 21.5ZM6.43689 21.5C6.43689 31.3645 14.881 39.3613 25.2973 39.3613C35.7136 39.3613 44.1577 31.3645 44.1577 21.5C44.1577 11.6355 35.7136 3.63874 25.2973 3.63874C14.881 3.63874 6.43689 11.6355 6.43689 21.5Z" fill="#F1F1F1"/>
<ellipse cx="9.72973" cy="9.21429" rx="9.72973" ry="9.21429" fill="#A1D283"/>
<path d="M75.9858 18.5653C75.9176 17.8778 75.625 17.3437 75.108 16.9631C74.5909 16.5824 73.8892 16.392 73.0028 16.392C72.4006 16.392 71.892 16.4773 71.4773 16.6477C71.0625 16.8125 70.7443 17.0426 70.5227 17.3381C70.3068 17.6335 70.1989 17.9688 70.1989 18.3438C70.1875 18.6562 70.2528 18.929 70.3949 19.1619C70.5426 19.3949 70.7443 19.5966 71 19.767C71.2557 19.9318 71.5511 20.0767 71.8864 20.2017C72.2216 20.321 72.5795 20.4233 72.9602 20.5085L74.5284 20.8835C75.2898 21.054 75.9886 21.2812 76.625 21.5653C77.2614 21.8494 77.8125 22.1989 78.2784 22.6136C78.7443 23.0284 79.1051 23.517 79.3608 24.0795C79.6222 24.642 79.7557 25.2869 79.7614 26.0142C79.7557 27.0824 79.483 28.0085 78.9432 28.7926C78.4091 29.571 77.6364 30.1761 76.625 30.608C75.6193 31.0341 74.4063 31.2472 72.9858 31.2472C71.5767 31.2472 70.3494 31.0312 69.304 30.5994C68.2642 30.1676 67.4517 29.5284 66.8665 28.6818C66.2869 27.8295 65.983 26.7756 65.9545 25.5199H69.5256C69.5653 26.1051 69.733 26.5937 70.0284 26.9858C70.3295 27.3722 70.7301 27.6648 71.2301 27.8636C71.7358 28.0568 72.3068 28.1534 72.9432 28.1534C73.5682 28.1534 74.1108 28.0625 74.571 27.8807C75.0369 27.6989 75.3977 27.446 75.6534 27.1222C75.9091 26.7983 76.0369 26.4261 76.0369 26.0057C76.0369 25.6136 75.9205 25.2841 75.6875 25.017C75.4602 24.75 75.125 24.5227 74.6818 24.3352C74.2443 24.1477 73.7074 23.9773 73.071 23.8239L71.1705 23.3466C69.6989 22.9886 68.5369 22.429 67.6847 21.6676C66.8324 20.9062 66.4091 19.8807 66.4148 18.5909C66.4091 17.5341 66.6903 16.6108 67.2585 15.821C67.8324 15.0312 68.6193 14.4148 69.6193 13.9716C70.6193 13.5284 71.7557 13.3068 73.0284 13.3068C74.3239 13.3068 75.4545 13.5284 76.4205 13.9716C77.392 14.4148 78.1477 15.0312 78.6875 15.821C79.2273 16.6108 79.5057 17.5256 79.5227 18.5653H75.9858ZM82.9754 35.9091V17.9091H86.555V20.108H86.7169C86.876 19.7557 87.1061 19.3977 87.4072 19.0341C87.7141 18.6648 88.1118 18.358 88.6004 18.1136C89.0947 17.8636 89.7084 17.7386 90.4413 17.7386C91.3959 17.7386 92.2766 17.9886 93.0834 18.4886C93.8902 18.983 94.5351 19.7301 95.018 20.7301C95.501 21.7244 95.7425 22.9716 95.7425 24.4716C95.7425 25.9318 95.5067 27.1648 95.0351 28.1705C94.5692 29.1705 93.9328 29.929 93.126 30.446C92.3249 30.9574 91.4271 31.2131 90.4328 31.2131C89.7283 31.2131 89.1288 31.0966 88.6345 30.8636C88.1459 30.6307 87.7453 30.3381 87.4328 29.9858C87.1203 29.6278 86.8817 29.267 86.7169 28.9034H86.6061V35.9091H82.9754ZM86.5294 24.4545C86.5294 25.233 86.6374 25.9119 86.8533 26.4915C87.0692 27.071 87.3817 27.5227 87.7908 27.8466C88.1999 28.1648 88.697 28.3239 89.2822 28.3239C89.8732 28.3239 90.3732 28.1619 90.7822 27.8381C91.1913 27.5085 91.501 27.054 91.7112 26.4744C91.9271 25.8892 92.0351 25.2159 92.0351 24.4545C92.0351 23.6989 91.93 23.0341 91.7197 22.4602C91.5095 21.8864 91.1999 21.4375 90.7908 21.1136C90.3817 20.7898 89.8788 20.6278 89.2822 20.6278C88.6913 20.6278 88.1913 20.7841 87.7822 21.0966C87.3788 21.4091 87.0692 21.8523 86.8533 22.4261C86.6374 23 86.5294 23.6761 86.5294 24.4545ZM104.878 31.2557C103.554 31.2557 102.409 30.9744 101.443 30.4119C100.483 29.8437 99.7413 29.054 99.2186 28.0426C98.6959 27.0256 98.4345 25.8466 98.4345 24.5057C98.4345 23.1534 98.6959 21.9716 99.2186 20.9602C99.7413 19.9432 100.483 19.1534 101.443 18.5909C102.409 18.0227 103.554 17.7386 104.878 17.7386C106.202 17.7386 107.344 18.0227 108.304 18.5909C109.27 19.1534 110.014 19.9432 110.537 20.9602C111.06 21.9716 111.321 23.1534 111.321 24.5057C111.321 25.8466 111.06 27.0256 110.537 28.0426C110.014 29.054 109.27 29.8437 108.304 30.4119C107.344 30.9744 106.202 31.2557 104.878 31.2557ZM104.895 28.4432C105.497 28.4432 106 28.2727 106.403 27.9318C106.807 27.5852 107.111 27.1136 107.315 26.517C107.525 25.9205 107.631 25.2415 107.631 24.4801C107.631 23.7188 107.525 23.0398 107.315 22.4432C107.111 21.8466 106.807 21.375 106.403 21.0284C106 20.6818 105.497 20.5085 104.895 20.5085C104.287 20.5085 103.775 20.6818 103.361 21.0284C102.952 21.375 102.642 21.8466 102.432 22.4432C102.227 23.0398 102.125 23.7188 102.125 24.4801C102.125 25.2415 102.227 25.9205 102.432 26.517C102.642 27.1136 102.952 27.5852 103.361 27.9318C103.775 28.2727 104.287 28.4432 104.895 28.4432ZM114.482 31V17.9091H118.002V20.1932H118.138C118.377 19.3807 118.777 18.767 119.34 18.3523C119.902 17.9318 120.55 17.7216 121.283 17.7216C121.465 17.7216 121.661 17.733 121.871 17.7557C122.081 17.7784 122.266 17.8097 122.425 17.8494V21.071C122.254 21.0199 122.019 20.9744 121.717 20.9347C121.416 20.8949 121.141 20.875 120.891 20.875C120.357 20.875 119.879 20.9915 119.459 21.2244C119.044 21.4517 118.715 21.7699 118.47 22.179C118.232 22.5881 118.112 23.0597 118.112 23.5938V31H114.482ZM132.721 17.9091V20.6364H124.838V17.9091H132.721ZM126.628 14.7727H130.258V26.9773C130.258 27.3125 130.309 27.5739 130.412 27.7614C130.514 27.9432 130.656 28.071 130.838 28.1449C131.025 28.2187 131.241 28.2557 131.486 28.2557C131.656 28.2557 131.826 28.2415 131.997 28.2131C132.167 28.179 132.298 28.1534 132.389 28.1364L132.96 30.8381C132.778 30.8949 132.522 30.9602 132.193 31.0341C131.863 31.1136 131.463 31.1619 130.991 31.179C130.116 31.2131 129.349 31.0966 128.69 30.8295C128.037 30.5625 127.528 30.1477 127.164 29.5852C126.801 29.0227 126.622 28.3125 126.628 27.4545V14.7727ZM146.614 21.642L143.29 21.8466C143.234 21.5625 143.112 21.3068 142.924 21.0795C142.737 20.8466 142.489 20.6619 142.183 20.5256C141.881 20.3835 141.521 20.3125 141.1 20.3125C140.538 20.3125 140.063 20.4318 139.677 20.6705C139.29 20.9034 139.097 21.2159 139.097 21.608C139.097 21.9205 139.222 22.1847 139.472 22.4006C139.722 22.6165 140.151 22.7898 140.759 22.9205L143.129 23.3977C144.401 23.6591 145.35 24.0795 145.975 24.6591C146.6 25.2386 146.913 26 146.913 26.9432C146.913 27.8011 146.66 28.554 146.154 29.2017C145.654 29.8494 144.967 30.3551 144.092 30.7188C143.222 31.0767 142.219 31.2557 141.083 31.2557C139.35 31.2557 137.969 30.8949 136.941 30.1733C135.918 29.446 135.319 28.4574 135.143 27.2074L138.714 27.0199C138.822 27.5483 139.083 27.9517 139.498 28.2301C139.913 28.5028 140.444 28.6392 141.092 28.6392C141.728 28.6392 142.239 28.517 142.626 28.2727C143.018 28.0227 143.217 27.7017 143.222 27.3097C143.217 26.9801 143.077 26.7102 142.805 26.5C142.532 26.2841 142.112 26.1193 141.543 26.0057L139.276 25.554C137.998 25.2983 137.046 24.8551 136.421 24.2244C135.802 23.5937 135.492 22.7898 135.492 21.8125C135.492 20.9716 135.719 20.2472 136.174 19.6392C136.634 19.0312 137.279 18.5625 138.109 18.233C138.944 17.9034 139.921 17.7386 141.04 17.7386C142.694 17.7386 143.995 18.0881 144.944 18.7869C145.898 19.4858 146.455 20.4375 146.614 21.642ZM150.067 31V13.5455H153.698V20.108H153.809C153.968 19.7557 154.198 19.3977 154.499 19.0341C154.806 18.6648 155.203 18.358 155.692 18.1136C156.186 17.8636 156.8 17.7386 157.533 17.7386C158.488 17.7386 159.368 17.9886 160.175 18.4886C160.982 18.983 161.627 19.7301 162.11 20.7301C162.593 21.7244 162.834 22.9716 162.834 24.4716C162.834 25.9318 162.598 27.1648 162.127 28.1705C161.661 29.1705 161.024 29.929 160.218 30.446C159.416 30.9574 158.519 31.2131 157.524 31.2131C156.82 31.2131 156.22 31.0966 155.726 30.8636C155.238 30.6307 154.837 30.3381 154.524 29.9858C154.212 29.6278 153.973 29.267 153.809 28.9034H153.647V31H150.067ZM153.621 24.4545C153.621 25.233 153.729 25.9119 153.945 26.4915C154.161 27.071 154.473 27.5227 154.882 27.8466C155.291 28.1648 155.789 28.3239 156.374 28.3239C156.965 28.3239 157.465 28.1619 157.874 27.8381C158.283 27.5085 158.593 27.054 158.803 26.4744C159.019 25.8892 159.127 25.2159 159.127 24.4545C159.127 23.6989 159.022 23.0341 158.811 22.4602C158.601 21.8864 158.291 21.4375 157.882 21.1136C157.473 20.7898 156.97 20.6278 156.374 20.6278C155.783 20.6278 155.283 20.7841 154.874 21.0966C154.47 21.4091 154.161 21.8523 153.945 22.4261C153.729 23 153.621 23.6761 153.621 24.4545ZM172.023 31.2557C170.676 31.2557 169.517 30.983 168.545 30.4375C167.579 29.8864 166.835 29.108 166.312 28.1023C165.79 27.0909 165.528 25.8949 165.528 24.5142C165.528 23.1676 165.79 21.9858 166.312 20.9688C166.835 19.9517 167.571 19.1591 168.52 18.5909C169.474 18.0227 170.594 17.7386 171.878 17.7386C172.741 17.7386 173.545 17.8778 174.29 18.1562C175.04 18.429 175.693 18.8409 176.25 19.392C176.812 19.9432 177.25 20.6364 177.562 21.4716C177.875 22.3011 178.031 23.2727 178.031 24.3864V25.3835H166.977V23.1335H174.613C174.613 22.6108 174.5 22.1477 174.273 21.7443C174.045 21.3409 173.73 21.0256 173.327 20.7983C172.929 20.5653 172.466 20.4489 171.937 20.4489C171.386 20.4489 170.898 20.5767 170.471 20.8324C170.051 21.0824 169.721 21.4205 169.483 21.8466C169.244 22.267 169.122 22.7358 169.116 23.2528V25.392C169.116 26.0398 169.236 26.5994 169.474 27.071C169.719 27.5426 170.062 27.9062 170.506 28.1619C170.949 28.4176 171.474 28.5455 172.082 28.5455C172.486 28.5455 172.855 28.4886 173.19 28.375C173.525 28.2614 173.812 28.0909 174.051 27.8636C174.29 27.6364 174.471 27.358 174.596 27.0284L177.954 27.25C177.784 28.0568 177.435 28.7614 176.906 29.3636C176.383 29.9602 175.707 30.4261 174.878 30.7614C174.054 31.0909 173.102 31.2557 172.023 31.2557ZM188.163 17.9091V20.6364H180.28V17.9091H188.163ZM182.07 14.7727H185.7V26.9773C185.7 27.3125 185.752 27.5739 185.854 27.7614C185.956 27.9432 186.098 28.071 186.28 28.1449C186.467 28.2187 186.683 28.2557 186.928 28.2557C187.098 28.2557 187.269 28.2415 187.439 28.2131C187.61 28.179 187.74 28.1534 187.831 28.1364L188.402 30.8381C188.22 30.8949 187.965 30.9602 187.635 31.0341C187.306 31.1136 186.905 31.1619 186.433 31.179C185.558 31.2131 184.791 31.0966 184.132 30.8295C183.479 30.5625 182.97 30.1477 182.607 29.5852C182.243 29.0227 182.064 28.3125 182.07 27.4545V14.7727ZM193.451 31.2216C192.888 31.2216 192.405 31.0227 192.002 30.625C191.604 30.2216 191.405 29.7386 191.405 29.1761C191.405 28.6193 191.604 28.142 192.002 27.7443C192.405 27.3466 192.888 27.1477 193.451 27.1477C193.996 27.1477 194.473 27.3466 194.883 27.7443C195.292 28.142 195.496 28.6193 195.496 29.1761C195.496 29.5511 195.4 29.8949 195.206 30.2074C195.019 30.5142 194.772 30.7614 194.465 30.9489C194.158 31.1307 193.82 31.2216 193.451 31.2216ZM199.277 31V17.9091H202.908V31H199.277ZM201.101 16.2216C200.561 16.2216 200.098 16.0426 199.712 15.6847C199.331 15.321 199.141 14.8864 199.141 14.3807C199.141 13.8807 199.331 13.4517 199.712 13.0938C200.098 12.7301 200.561 12.5483 201.101 12.5483C201.641 12.5483 202.101 12.7301 202.482 13.0938C202.868 13.4517 203.061 13.8807 203.061 14.3807C203.061 14.8864 202.868 15.321 202.482 15.6847C202.101 16.0426 201.641 16.2216 201.101 16.2216ZM212.531 31.2557C211.207 31.2557 210.062 30.9744 209.096 30.4119C208.136 29.8437 207.394 29.054 206.872 28.0426C206.349 27.0256 206.088 25.8466 206.088 24.5057C206.088 23.1534 206.349 21.9716 206.872 20.9602C207.394 19.9432 208.136 19.1534 209.096 18.5909C210.062 18.0227 211.207 17.7386 212.531 17.7386C213.855 17.7386 214.997 18.0227 215.957 18.5909C216.923 19.1534 217.667 19.9432 218.19 20.9602C218.713 21.9716 218.974 23.1534 218.974 24.5057C218.974 25.8466 218.713 27.0256 218.19 28.0426C217.667 29.054 216.923 29.8437 215.957 30.4119C214.997 30.9744 213.855 31.2557 212.531 31.2557ZM212.548 28.4432C213.15 28.4432 213.653 28.2727 214.056 27.9318C214.46 27.5852 214.764 27.1136 214.968 26.517C215.179 25.9205 215.284 25.2415 215.284 24.4801C215.284 23.7188 215.179 23.0398 214.968 22.4432C214.764 21.8466 214.46 21.375 214.056 21.0284C213.653 20.6818 213.15 20.5085 212.548 20.5085C211.94 20.5085 211.429 20.6818 211.014 21.0284C210.605 21.375 210.295 21.8466 210.085 22.4432C209.88 23.0398 209.778 23.7188 209.778 24.4801C209.778 25.2415 209.88 25.9205 210.085 26.517C210.295 27.1136 210.605 27.5852 211.014 27.9318C211.429 28.2727 211.94 28.4432 212.548 28.4432Z" fill="#F1F1F1"/>
</svg>
